<svg width="72" height="72" viewBox="0 0 72 72" fill="none" xmlns="http://www.w3.org/2000/svg">
<path d="M58.5 72H13.5C6.0435 72 0 65.9565 0 58.5V13.5C0 6.0435 6.0435 0 13.5 0H58.5C65.9565 0 72 6.0435 72 13.5V58.5C72 65.9565 65.9565 72 58.5 72Z" fill="#F3D4C6"/>
<path d="M12.5959 40.3895C17.381 39.6251 21.9227 43.2578 21.9228 49.1642C18.7309 49.5735 12.2567 48.3432 12.5959 40.3895Z" fill="#B52C0E" stroke="#B52C0E" stroke-width="1.5"/>
<path d="M36.9328 40.3895C41.7179 39.6251 46.2596 43.2578 46.2597 49.1642C43.0678 49.5735 36.5936 48.3432 36.9328 40.3895Z" fill="#B52C0E" stroke="#B52C0E" stroke-width="1.5"/>
<path d="M36.8889 30.0671C41.6739 29.3027 46.2157 32.9354 46.2157 38.8418C43.0239 39.2511 36.5496 38.0208 36.8889 30.0671Z" fill="#B52C0E" stroke="#B52C0E" stroke-width="1.5"/>
<path d="M33.4578 40.3895C28.6727 39.6251 24.131 43.2578 24.131 49.1642C27.3228 49.5735 33.7971 48.3432 33.4578 40.3895Z" fill="#EA7767" stroke="#EA7767" stroke-width="1.5"/>
<path d="M55.575 40.3895C50.7899 39.6251 46.2482 43.2578 46.2481 49.1642C49.44 49.5735 55.9142 48.3432 55.575 40.3895Z" fill="#B52C0E" stroke="#B52C0E" stroke-width="1.5"/>
<path d="M55.659 30.0671C50.8739 29.3027 46.3322 32.9354 46.3321 38.8418C49.524 39.2511 55.9982 38.0208 55.659 30.0671Z" fill="#B52C0E" stroke="#B52C0E" stroke-width="1.5"/>
<path d="M46.3018 31.1437L46.3018 53.3582" stroke="#B52C0E" stroke-width="1.5"/>
<path d="M23.0078 40.751L23.0078 52.8693" stroke="#B52C0E" stroke-width="1.5"/>
<path d="M22.9942 28.2795C19.103 31.2991 16.5583 38.0965 22.9943 41.0628C29.4572 38.0698 26.8586 31.2858 22.9942 28.2795Z" fill="#B52C0E" stroke="#B52C0E" stroke-width="1.5"/>
<path d="M46.2618 18.217C42.3706 21.2366 39.8259 28.034 46.2619 31.0003C52.7248 28.0073 50.1262 21.2233 46.2618 18.217Z" fill="#EA7767" stroke="#EA7767" stroke-width="1.5"/>
</svg>
