<svg width="73" height="73" viewBox="0 0 73 73" fill="none" xmlns="http://www.w3.org/2000/svg">
<path d="M59.0242 72.7197H13.9846C6.52149 72.7197 0.472656 66.6709 0.472656 59.2078V14.1682C0.472656 6.70508 6.52149 0.65625 13.9846 0.65625H59.0242C66.4873 0.65625 72.5361 6.70508 72.5361 14.1682V59.2078C72.5361 66.6709 66.4873 72.7197 59.0242 72.7197Z" fill="#FFE4BD"/>
<path d="M20.25 52.819C20.25 50.2418 18.3844 48.1523 16.0833 48.1523H14V50.4857C14 53.0628 15.8656 55.1523 18.1667 55.1523H22.3333C24.6344 55.1523 26.5 53.0628 26.5 50.4857V48.1523H24.4167C22.1156 48.1523 20.25 50.2418 20.25 52.819Z" fill="#AD460C"/>
<path d="M20.1776 38.6667C20.1776 36.0895 18.3336 34 16.0592 34H14V36.3333C14 38.9105 15.844 41 18.1184 41H22.2368C24.5112 41 26.3552 38.9105 26.3552 36.3333V34H24.296C22.0216 34 20.1776 36.0895 20.1776 38.6667Z" fill="#FDA56E"/>
<path d="M24.4167 19C22.1156 19 20.25 21.0895 20.25 23.6667C20.25 21.0895 18.3844 19 16.0833 19H14V21.3333C14 23.9105 15.8656 26 18.1667 26H22.3333C24.6344 26 26.5 23.9105 26.5 21.3333V19H24.4167Z" fill="#FDA56E"/>
<path d="M36.7773 52.819C36.7773 50.2418 34.9117 48.1523 32.6107 48.1523H30.5273V50.4857C30.5273 53.0628 32.393 55.1523 34.694 55.1523H38.8607C41.1617 55.1523 43.0273 53.0628 43.0273 50.4857V48.1523H40.944C38.643 48.1523 36.7773 50.2418 36.7773 52.819Z" fill="#FDA56E"/>
<path d="M36.7773 38.2428C36.7773 35.6657 34.9117 33.5762 32.6107 33.5762H30.5273V35.9095C30.5273 38.4867 32.393 40.5762 34.694 40.5762H38.8607C41.1617 40.5762 43.0273 38.4867 43.0273 35.9095V33.5762H40.944C38.643 33.5762 36.7773 35.6657 36.7773 38.2428Z" fill="#AD460C"/>
<path d="M40.944 19C38.643 19 36.7773 21.0895 36.7773 23.6667C36.7773 21.0895 34.9117 19 32.6107 19H30.5273V21.3333C30.5273 23.9105 32.393 26 34.694 26H38.8607C41.1617 26 43.0273 23.9105 43.0273 21.3333V19H40.944Z" fill="#FDA56E"/>
<path d="M53.7773 52.819C53.7773 50.2418 51.9117 48.1523 49.6107 48.1523H47.5273V50.4857C47.5273 53.0628 49.393 55.1523 51.694 55.1523H55.8607C58.1617 55.1523 60.0273 53.0628 60.0273 50.4857V48.1523H57.944C55.643 48.1523 53.7773 50.2418 53.7773 52.819Z" fill="#FDA56E"/>
<path d="M53.7773 38.2428C53.7773 35.6657 51.9117 33.5762 49.6107 33.5762H47.5273V35.9095C47.5273 38.4867 49.393 40.5762 51.694 40.5762H55.8607C58.1617 40.5762 60.0273 38.4867 60.0273 35.9095V33.5762H57.944C55.643 33.5762 53.7773 35.6657 53.7773 38.2428Z" fill="#FDA56E"/>
<path d="M57.944 19C55.643 19 53.7773 21.0895 53.7773 23.6667C53.7773 21.0895 51.9117 19 49.6107 19H47.5273V21.3333C47.5273 23.9105 49.393 26 51.694 26H55.8607C58.1617 26 60.0273 23.9105 60.0273 21.3333V19H57.944Z" fill="#AD460C"/>
</svg>
