<svg width="73" height="73" viewBox="0 0 73 73" fill="none" xmlns="http://www.w3.org/2000/svg">
<path d="M59.0223 72.7192H13.9826C6.51953 72.7192 0.470703 66.6704 0.470703 59.2073V14.1677C0.470703 6.70459 6.51953 0.655762 13.9826 0.655762H59.0223C66.4854 0.655762 72.5342 6.70459 72.5342 14.1677V59.2073C72.5342 66.6704 66.4854 72.7192 59.0223 72.7192Z" fill="#C2DAEB"/>
<line x1="16.3833" y1="55.6052" x2="56.6214" y2="55.6052" stroke="#264961" stroke-width="3" stroke-linecap="round" stroke-linejoin="round"/>
<path d="M35.2766 55.4652C34.2886 53.4067 33.4309 48.8454 34.3158 47.0019C34.3475 46.936 34.3487 46.8647 34.3193 46.7983C34.2899 46.7318 34.2313 46.6733 34.1517 46.6311C34.0721 46.5889 33.9755 46.565 33.8754 46.5628C33.7752 46.5606 33.6766 46.5802 33.5933 46.6188C31.5402 47.5695 30.8487 49.714 30.615 51.4499C29.9794 49.5371 29.9359 47.5524 30.4874 45.627C30.505 45.5658 30.4976 45.5023 30.4659 45.4439C30.4341 45.3854 30.3794 45.3343 30.3079 45.2964C30.2364 45.2585 30.1511 45.2353 30.0615 45.2295C29.972 45.2236 29.8819 45.2354 29.8015 45.2633C28.4822 45.7214 27.2933 47.862 26.538 49.9303C26.3438 47.3368 25.8417 44.86 24.591 43.9914C24.5238 43.9448 24.4382 43.913 24.345 43.9002C24.2518 43.8873 24.1553 43.894 24.0675 43.9192C23.9798 43.9445 23.9048 43.9872 23.852 44.0421C23.7992 44.0969 23.771 44.1614 23.771 44.2273C23.7527 46.4316 23.4161 48.629 22.7661 50.7866C22.6525 48.7379 22.2387 46.3614 20.7477 45.326C20.6806 45.2793 20.595 45.2476 20.5018 45.2347C20.4086 45.2218 20.312 45.2284 20.2242 45.2537C20.1364 45.2789 20.0614 45.3217 20.0086 45.3765C19.9558 45.4314 19.9276 45.4959 19.9276 45.5618C19.9276 46.8788 19.9276 48.7874 19.6508 50.4913C19.268 48.9157 18.5492 47.8021 17.8652 47.3277C17.798 47.281 17.7124 47.2493 17.6192 47.2364C17.526 47.2235 17.4294 47.2301 17.3416 47.2554C17.2538 47.2806 17.1788 47.3234 17.126 47.3783C17.0732 47.4331 17.045 47.4976 17.045 47.5636C17.045 49.3673 17.045 54.1574 16.1349 55.4215C16.0982 55.4724 16.0808 55.5289 16.0845 55.5858C16.0881 55.6426 16.1126 55.6978 16.1557 55.7462C16.1988 55.7946 16.259 55.8346 16.3305 55.8623C16.4021 55.8899 16.4827 55.9044 16.5646 55.9044H34.8206C34.8967 55.9043 34.9716 55.8916 35.0393 55.8675C35.107 55.8434 35.1655 55.8084 35.21 55.7656C35.2545 55.7227 35.2837 55.6732 35.2953 55.621C35.3069 55.5687 35.3005 55.5154 35.2766 55.4652Z" fill="#264961"/>
<path d="M56.8953 55.4652C55.9072 53.4067 55.0496 48.8454 55.9344 47.0019C55.9661 46.936 55.9674 46.8647 55.9379 46.7983C55.9085 46.7318 55.8499 46.6733 55.7703 46.6311C55.6907 46.5889 55.5941 46.565 55.494 46.5628C55.3939 46.5606 55.2953 46.5802 55.212 46.6188C53.1589 47.5695 52.4673 49.714 52.2337 51.4499C51.598 49.5371 51.5545 47.5524 52.106 45.627C52.1237 45.5658 52.1162 45.5023 52.0845 45.4439C52.0528 45.3854 51.9981 45.3343 51.9266 45.2964C51.8551 45.2585 51.7697 45.2353 51.6802 45.2295C51.5906 45.2236 51.5005 45.2354 51.4201 45.2633C50.1008 45.7214 48.912 47.862 48.1566 49.9303C47.9624 47.3368 47.4604 44.86 46.2096 43.9914C46.1424 43.9448 46.0568 43.913 45.9637 43.9002C45.8705 43.8873 45.7739 43.894 45.6862 43.9192C45.5984 43.9445 45.5234 43.9872 45.4707 44.0421C45.4179 44.0969 45.3897 44.1614 45.3897 44.2273C45.3714 46.4316 45.0347 48.629 44.3847 50.7866C44.2712 48.7379 43.8574 46.3614 42.3664 45.326C42.2992 45.2793 42.2136 45.2476 42.1204 45.2347C42.0272 45.2218 41.9306 45.2284 41.8429 45.2537C41.7551 45.2789 41.6801 45.3217 41.6273 45.3765C41.5745 45.4314 41.5463 45.4959 41.5463 45.5618C41.5463 46.8788 41.5463 48.7874 41.2694 50.4913C40.8866 48.9157 40.1679 47.8021 39.4838 47.3277C39.4166 47.281 39.331 47.2493 39.2378 47.2364C39.1446 47.2235 39.048 47.2301 38.9602 47.2554C38.8725 47.2806 38.7974 47.3234 38.7447 47.3783C38.6919 47.4331 38.6637 47.4976 38.6637 47.5636C38.6637 49.3673 38.6637 54.1574 37.7535 55.4215C37.7168 55.4724 37.6995 55.5289 37.7031 55.5858C37.7068 55.6426 37.7313 55.6978 37.7744 55.7462C37.8174 55.7946 37.8776 55.8346 37.9492 55.8623C38.0208 55.8899 38.1013 55.9044 38.1833 55.9044H56.4392C56.5153 55.9043 56.5903 55.8916 56.658 55.8675C56.7257 55.8434 56.7841 55.8084 56.8286 55.7656C56.8731 55.7227 56.9024 55.6732 56.914 55.621C56.9255 55.5687 56.9191 55.5154 56.8953 55.4652Z" fill="#264961"/>
<path d="M48.5181 32.7513C43.9838 32.0271 39.6906 35.405 39.7048 40.9142C42.7292 41.3034 48.8587 40.1709 48.5181 32.7513Z" fill="#5C849F" stroke="#5C849F" stroke-width="2"/>
<path d="M24.267 32.7513C28.8014 32.0271 33.0946 35.405 33.0803 40.9142C30.056 41.3034 23.9264 40.1709 24.267 32.7513Z" fill="#5C849F" stroke="#5C849F" stroke-width="2"/>
<path d="M36.54 33.1797L36.54 55.9042" stroke="#264961" stroke-width="2"/>
<path d="M36.4884 17.4705C31.6853 21.1401 28.5442 29.4008 36.4885 33.0058C44.4662 29.3685 41.2586 21.1239 36.4884 17.4705Z" fill="#264961" stroke="#264961" stroke-width="2"/>
</svg>
