<svg width="445" height="408" viewBox="0 0 445 408" fill="none" xmlns="http://www.w3.org/2000/svg">
<g filter="url(#filter0_d)">
<path d="M397.21 250.589L389.525 250.589L389.526 257.176L397.211 257.176L397.21 250.589Z" fill="#D1DFEA"/>
<path d="M62.4001 250.588L54.7158 250.588L54.7169 257.174L62.4011 257.174L62.4001 250.588Z" fill="#D1DFEA"/>
<rect width="197.668" height="197.668" transform="matrix(0.866346 0.499815 -0.866346 0.499815 225.963 158.379)" fill="#D1DFEA"/>
<rect width="197.668" height="197.668" transform="matrix(0.866346 0.499815 -0.866346 0.499815 225.963 151.79)" fill="url(#paint0_linear)"/>
<line y1="-0.5" x2="197.595" y2="-0.5" transform="matrix(0.866025 0.5 -0.866025 0.5 168.795 184.724)" stroke="#DCE3F2"/>
<line y1="-0.5" x2="197.595" y2="-0.5" transform="matrix(0.866025 0.5 -0.866025 0.5 111.754 217.656)" stroke="#DCE3F2"/>
<line y1="-0.5" x2="197.595" y2="-0.5" transform="matrix(0.866025 -0.5 0.866025 0.5 111.754 283.522)" stroke="#DCE3F2"/>
<line y1="-0.5" x2="197.595" y2="-0.5" transform="matrix(0.866025 -0.5 0.866025 0.5 168.795 316.454)" stroke="#DCE3F2"/>
</g>
<path d="M222.407 259.063C221.457 265.709 222.802 302.576 223.593 320.179C225.492 322.553 227.154 321.168 227.747 320.179C228.222 282.204 224.385 263.612 222.407 259.063Z" fill="#5DA676"/>
<path d="M239.02 277.457C224.78 279.356 222.406 293.676 223 300.598L224.78 308.905L227.747 302.378C224.424 289.087 233.878 280.226 239.02 277.457Z" fill="url(#paint1_linear)"/>
<path d="M227.155 307.717C225.256 292.527 215.288 289.916 210.541 290.509C221.459 295.256 223.397 303.959 223.002 307.717C225.177 314.046 229.054 322.907 227.155 307.717Z" fill="url(#paint2_linear)"/>
<path d="M223.595 314.245C222.646 293.833 236.452 291.697 242.583 293.477C230.241 292.528 227.156 310.685 227.749 318.398L223.595 314.245Z" fill="#5DA676"/>
<path d="M165.681 223.85C164.732 230.495 166.077 267.363 166.868 284.966C168.766 287.339 170.428 285.955 171.022 284.966C171.496 246.991 167.659 228.399 165.681 223.85Z" fill="#5DA676"/>
<path d="M182.295 242.243C168.054 244.142 165.681 258.462 166.274 265.384L168.054 273.692L171.021 267.165C167.698 253.873 177.152 245.012 182.295 242.243Z" fill="url(#paint3_linear)"/>
<path d="M170.43 272.503C168.531 257.313 158.562 254.702 153.815 255.296C164.733 260.042 166.672 268.745 166.276 272.503C168.452 278.832 172.328 287.693 170.43 272.503Z" fill="url(#paint4_linear)"/>
<path d="M166.87 279.031C165.92 258.62 179.726 256.484 185.858 258.264C173.516 257.314 170.43 275.471 171.023 283.185L166.87 279.031Z" fill="#5DA676"/>
<path d="M108.513 190.502C107.564 197.148 108.909 234.015 109.7 251.618C111.598 253.992 113.26 252.607 113.854 251.618C114.328 213.643 110.491 195.051 108.513 190.502Z" fill="#5DA676"/>
<path d="M125.127 208.896C110.886 210.795 108.513 225.115 109.106 232.037L110.886 240.344L113.853 233.817C110.53 220.526 119.984 211.665 125.127 208.896Z" fill="url(#paint5_linear)"/>
<path d="M113.262 239.156C111.363 223.966 101.394 221.355 96.6475 221.948C107.565 226.695 109.504 235.398 109.108 239.156C111.284 245.485 115.16 254.346 113.262 239.156Z" fill="url(#paint6_linear)"/>
<path d="M109.702 245.684C108.752 225.272 122.558 223.136 128.69 224.916C116.348 223.967 113.262 242.124 113.855 249.837L109.702 245.684Z" fill="#5DA676"/>
<path d="M165.681 158.346C164.732 164.992 166.077 201.86 166.868 219.463C168.766 221.836 170.428 220.451 171.022 219.463C171.496 181.487 167.659 162.896 165.681 158.346Z" fill="#5DA676"/>
<path d="M182.295 176.74C168.054 178.639 165.681 192.959 166.274 199.881L168.054 208.188L171.021 201.661C167.698 188.37 177.152 179.509 182.295 176.74Z" fill="url(#paint7_linear)"/>
<path d="M170.43 207C168.531 191.81 158.562 189.199 153.815 189.793C164.733 194.539 166.672 203.242 166.276 207C168.452 213.329 172.328 222.19 170.43 207Z" fill="url(#paint8_linear)"/>
<path d="M166.87 213.528C165.92 193.117 179.726 190.98 185.858 192.76C173.516 191.811 170.43 209.968 171.023 217.681L166.87 213.528Z" fill="#5DA676"/>
<path d="M222.845 125C221.896 131.646 223.241 168.513 224.032 186.116C225.93 188.49 227.592 187.105 228.186 186.116C228.66 148.141 224.823 129.549 222.845 125Z" fill="#5DA676"/>
<path d="M239.459 143.394C225.218 145.293 222.845 159.613 223.438 166.535L225.218 174.842L228.185 168.315C224.862 155.024 234.316 146.163 239.459 143.394Z" fill="url(#paint9_linear)"/>
<path d="M227.594 173.654C225.695 158.464 215.726 155.853 210.979 156.446C221.897 161.193 223.836 169.896 223.44 173.654C225.616 179.983 229.492 188.844 227.594 173.654Z" fill="url(#paint10_linear)"/>
<path d="M224.034 180.182C223.085 159.77 236.89 157.634 243.022 159.414C230.68 158.465 227.594 176.622 228.187 184.335L224.034 180.182Z" fill="#5DA676"/>
<path d="M222.845 190.502C221.896 197.148 223.241 234.015 224.032 251.618C225.93 253.992 227.592 252.607 228.186 251.618C228.66 213.643 224.823 195.051 222.845 190.502Z" fill="#5DA676"/>
<path d="M239.459 208.896C225.218 210.795 222.845 225.115 223.438 232.037L225.218 240.344L228.185 233.817C224.862 220.526 234.316 211.665 239.459 208.896Z" fill="url(#paint11_linear)"/>
<path d="M227.594 239.156C225.695 223.966 215.726 221.355 210.979 221.948C221.897 226.695 223.836 235.398 223.44 239.156C225.616 245.485 229.492 254.346 227.594 239.156Z" fill="url(#paint12_linear)"/>
<path d="M224.034 245.684C223.085 225.272 236.89 223.136 243.022 224.916C230.68 223.967 227.594 242.124 228.187 249.837L224.034 245.684Z" fill="#5DA676"/>
<path d="M282.396 155.964C281.446 162.61 282.791 199.477 283.583 217.08C285.481 219.453 287.143 218.069 287.736 217.08C288.211 179.105 284.374 160.513 282.396 155.964Z" fill="#5DA676"/>
<path d="M299.01 174.358C284.769 176.256 282.396 190.576 282.989 197.499L284.769 205.806L287.736 199.279C284.413 185.988 293.867 177.127 299.01 174.358Z" fill="url(#paint13_linear)"/>
<path d="M287.144 204.617C285.246 189.427 275.277 186.817 270.53 187.41C281.448 192.157 283.386 200.859 282.991 204.617C285.166 210.947 289.043 219.808 287.144 204.617Z" fill="url(#paint14_linear)"/>
<path d="M283.585 211.146C282.635 190.734 296.441 188.598 302.573 190.378C290.23 189.429 287.145 207.585 287.738 215.299L283.585 211.146Z" fill="#5DA676"/>
<path d="M283.585 221.468C282.636 228.113 283.981 264.981 284.772 282.584C286.671 284.957 288.332 283.573 288.926 282.584C289.401 244.609 285.563 226.017 283.585 221.468Z" fill="#5DA676"/>
<path d="M300.201 239.861C285.96 241.76 283.587 256.08 284.18 263.002L285.96 271.309L288.927 264.782C285.604 251.491 295.059 242.63 300.201 239.861Z" fill="url(#paint15_linear)"/>
<path d="M288.334 270.121C286.435 254.931 276.467 252.32 271.72 252.914C282.638 257.66 284.576 266.363 284.18 270.121C286.356 276.45 290.233 285.311 288.334 270.121Z" fill="url(#paint16_linear)"/>
<path d="M284.774 276.649C283.825 256.238 297.631 254.102 303.762 255.882C291.42 254.932 288.334 273.089 288.928 280.803L284.774 276.649Z" fill="#5DA676"/>
<path d="M335.99 190.502C335.04 197.148 336.385 234.015 337.176 251.618C339.075 253.992 340.737 252.607 341.33 251.618C341.805 213.643 337.968 195.051 335.99 190.502Z" fill="#5DA676"/>
<path d="M352.603 208.896C338.363 210.795 335.989 225.115 336.583 232.037L338.363 240.344L341.33 233.817C338.007 220.526 347.461 211.665 352.603 208.896Z" fill="url(#paint17_linear)"/>
<path d="M340.738 239.156C338.839 223.966 328.871 221.355 324.124 221.948C335.042 226.695 336.98 235.398 336.585 239.156C338.76 245.485 342.637 254.346 340.738 239.156Z" fill="url(#paint18_linear)"/>
<path d="M337.178 245.684C336.229 225.272 350.035 223.136 356.166 224.916C343.824 223.967 340.739 242.124 341.332 249.837L337.178 245.684Z" fill="#5DA676"/>
<path d="M11.3756 133.162L1 118.834L77.5817 111.423L88.4514 125.257L11.3756 133.162Z" fill="#FCD7A2" stroke="#FCD7A2" stroke-width="0.5"/>
<path d="M12.3639 130.198L1.98828 115.87L78.57 108.459L89.4396 122.293L12.3639 130.198Z" fill="#FCD7A2" stroke="#CBA267" stroke-width="0.5"/>
<path d="M8.90527 115.097L19.3275 129.391" stroke="#CBA267" stroke-width="0.5"/>
<path d="M29.6553 113.435L40.57 127.234" stroke="#CBA267" stroke-width="0.5"/>
<path d="M40.5254 112.447L51.4401 126.246" stroke="#CBA267" stroke-width="0.5"/>
<path d="M50.4082 111.46L61.817 125.257" stroke="#CBA267" stroke-width="0.5"/>
<path d="M61.2754 110.471L72.6842 124.268" stroke="#CBA267" stroke-width="0.5"/>
<path d="M71.1602 109.483L82.5689 123.28" stroke="#CBA267" stroke-width="0.5"/>
<path d="M18.7852 114.424L29.7015 128.717" stroke="#CBA267" stroke-width="0.5"/>
<path d="M6.43555 122.293L84.0054 115.376" stroke="#CBA267" stroke-width="0.5"/>
<ellipse cx="24.6654" cy="89.728" rx="10.5639" ry="7.21989" transform="rotate(-34.1291 24.6654 89.728)" fill="#DDEDF9"/>
<path d="M26.553 109.424L16.6759 96.5776C11.7358 91.6368 18.4833 84.8844 20.6243 83.7316L32.976 99.542L26.553 109.424Z" fill="#C0D8EB"/>
<path d="M32.9818 100.038L21.124 84.2276L32.9818 83.2394L45.3337 99.5439L32.9818 100.038Z" fill="#DDEDF9"/>
<ellipse cx="35.7873" cy="104.023" rx="10.9955" ry="7.27027" transform="rotate(-34.1291 35.7873 104.023)" fill="url(#paint19_linear)"/>
<path d="M51.7572 131.164L31.9941 103.002H48.2986L69.5439 130.67L51.7572 131.164Z" fill="#E6F5FF"/>
<path d="M31.9937 103.002L28.5352 112.39L47.8041 140.552L51.7567 131.164L31.9937 103.002Z" fill="#C0D8EB"/>
<ellipse cx="57.3069" cy="136.105" rx="18.8662" ry="12.8776" transform="rotate(-34.1291 57.3069 136.105)" fill="url(#paint20_linear)"/>
<ellipse cx="59.5111" cy="139.069" rx="18.8662" ry="12.8776" transform="rotate(-34.1291 59.5111 139.069)" fill="url(#paint21_linear)"/>
<path d="M59.3018 139.09L69.6773 153.418" stroke="#A6C2D5" stroke-width="2" stroke-linecap="round"/>
<circle cx="71.6539" cy="155.889" r="2.96445" fill="#A6C2D5"/>
<line x1="71.6418" y1="160.695" x2="95.3574" y2="245.676" stroke="#5DA676" stroke-dasharray="3 3"/>
<line x1="73.5969" y1="160.641" x2="108.182" y2="245.622" stroke="#FCD7A2" stroke-dasharray="3 3"/>
<line x1="77.44" y1="157.51" x2="140.618" y2="219.837" stroke="#F77D5C" stroke-dasharray="3 3"/>
<line x1="76.4886" y1="159.531" x2="133.474" y2="230.534" stroke="#9BD1AA" stroke-dasharray="3 3"/>
<line x1="75.5441" y1="160.581" x2="121.987" y2="241.609" stroke="#EA525F" stroke-dasharray="3 3"/>
<path d="M331.912 72.3803L307.506 87.1822L351.398 114.672L377.01 98.8123C377.01 98.8123 374.357 94.5832 371.173 92.9973C367.99 91.4114 336.156 72.9089 336.156 72.9089C334.351 71.8955 333.457 71.6631 331.912 72.3803Z" fill="url(#paint22_linear)"/>
<path d="M352.63 113.007L377.089 98.6474C377.808 99.6061 378.685 101.308 378.685 103.434C378.685 105.561 378.685 135.87 378.685 137.465C378.685 139.06 377.798 140.089 376.603 140.865L352.63 155.544L352.63 113.007Z" fill="url(#paint23_linear)"/>
<rect width="55.0527" height="45.7083" rx="7" transform="matrix(0.866025 0.5 -2.20305e-08 1 306.198 84.7448)" fill="url(#paint24_linear)"/>
<circle r="9.32812" transform="matrix(0.866025 0.5 -2.20305e-08 1 339.152 126.721)" fill="url(#paint25_linear)"/>
<circle r="5.98399" transform="matrix(0.866025 0.5 -2.20305e-08 1 341.438 125.852)" fill="#323A40"/>
<circle r="9.32812" transform="matrix(0.866025 0.5 -2.20305e-08 1 317.384 114.286)" fill="url(#paint26_linear)"/>
<circle r="5.98399" transform="matrix(0.866025 0.5 -2.20305e-08 1 319.673 113.415)" fill="#323A40"/>
<circle r="4.18879" transform="matrix(0.866025 0.5 -2.20305e-08 1 320.191 112.794)" fill="#435059"/>
<circle r="1.7952" transform="matrix(0.866025 0.5 -2.20305e-08 1 321.228 112.313)" fill="#C9ECD7"/>
<circle r="4.18879" transform="matrix(0.866025 0.5 -2.20305e-08 1 341.956 125.231)" fill="#435059"/>
<circle r="1.7952" transform="matrix(0.866025 0.5 -2.20305e-08 1 342.993 124.75)" fill="#C9ECD7"/>
<path d="M340.454 81.3749C336.334 78.2519 346.634 68.8834 354.875 73.5675C363.116 78.2516 345.089 86.0594 340.454 81.3749Z" fill="#ABD5B7" fill-opacity="0.2"/>
<path d="M337.389 22.5589L346.144 68.883C320.393 83.9774 346.144 92.8258 362.111 79.2929L444.001 84.4979C438.336 88.1414 426.49 95.9488 422.37 98.5513C417.428 101.672 407.949 103.756 403.313 103.756H328.118C284.341 118.33 293.611 101.674 302.882 92.3053C304.427 81.8954 308.547 59.5141 310.092 48.5837C311.55 38.2702 315.758 33.1423 318.848 31.9278L337.389 22.5589Z" fill="#ABD5B7" fill-opacity="0.2"/>
<path d="M340.454 81.3749C336.334 78.2519 346.634 68.8834 354.875 73.5675C363.116 78.2516 345.089 86.0594 340.454 81.3749Z" stroke="#74BD44" stroke-width="0.5"/>
<path d="M337.389 22.5589L346.144 68.883C320.393 83.9774 346.144 92.8258 362.111 79.2929L444.001 84.4979C438.336 88.1414 426.49 95.9488 422.37 98.5513C417.428 101.672 407.949 103.756 403.313 103.756H328.118C284.341 118.33 293.611 101.674 302.882 92.3053C304.427 81.8954 308.547 59.5141 310.092 48.5837C311.55 38.2702 315.758 33.1423 318.848 31.9278L337.389 22.5589Z" stroke="#74BD44" stroke-width="0.5"/>
<line x1="305.554" y1="133.767" x2="260.986" y2="190.772" stroke="#518579" stroke-dasharray="3 3"/>
<line x1="334.575" y1="152.424" x2="290.007" y2="209.43" stroke="#9BD1AA" stroke-dasharray="3 3"/>
<line x1="324.209" y1="145.168" x2="279.642" y2="202.173" stroke="#EA525F" stroke-dasharray="3 3"/>
<line x1="313.844" y1="139.987" x2="269.276" y2="196.992" stroke="#FCD7A2" stroke-dasharray="3 3"/>
<line x1="345.977" y1="157.606" x2="301.409" y2="214.611" stroke="#F77D5C" stroke-dasharray="3 3"/>
<path d="M172.242 85.2093L177.771 88.3874C177.658 88.3212 177.557 88.2344 177.475 88.1315L171.945 84.9131C172.016 85.0362 172.119 85.1384 172.242 85.2093Z" fill="#D6B700"/>
<path d="M177.475 88.1594L171.945 84.9409C172.02 85.0541 172.122 85.1467 172.242 85.2102L177.771 88.3883C177.658 88.3221 177.557 88.2353 177.475 88.1324V88.1594Z" fill="#D6B700"/>
<path d="M172.509 82.206L166.98 78.9875L171.943 84.9396L177.473 88.1581L172.509 82.206Z" fill="#F77D5C"/>
<path d="M176.03 76.9006L170.501 73.6956C170.239 73.575 169.95 73.5264 169.663 73.5548C169.376 73.5832 169.102 73.6876 168.869 73.8572L174.412 77.0622C174.642 76.8924 174.914 76.7878 175.199 76.7594C175.484 76.7309 175.771 76.7797 176.03 76.9006Z" fill="#F77D5C"/>
<path d="M176.03 76.9006L170.501 73.6956C170.239 73.575 169.95 73.5264 169.663 73.5548C169.376 73.5832 169.102 73.6876 168.869 73.8572L174.412 77.0622C174.642 76.8924 174.914 76.7878 175.199 76.7594C175.484 76.7309 175.771 76.7797 176.03 76.9006Z" fill="#F77D5C"/>
<path d="M174.415 77.0624L168.872 73.8574C168.379 74.1247 167.944 74.4862 167.591 74.9213C166.539 76.2679 166.242 78.1128 166.916 78.9611L172.459 82.1796C171.772 81.3447 172.082 79.5537 173.134 78.1397C173.481 77.6953 173.917 77.3283 174.415 77.0624Z" fill="#F77D5C"/>
<path d="M174.409 77.0626L168.866 73.8577C168.491 74.0761 168.158 74.3587 167.881 74.6926L173.411 77.8976C173.699 77.57 174.036 77.2884 174.409 77.0626Z" fill="#F77D5C"/>
<path d="M173.41 77.8983L167.881 74.6934L167.584 74.9223C167.332 75.2608 167.119 75.6267 166.95 76.0131L172.48 79.218C172.654 78.8314 172.871 78.4655 173.127 78.1273L173.356 77.8445L173.41 77.8983Z" fill="#F77D5C"/>
<path d="M172.536 79.2719L167.007 76.0669C166.755 76.5129 166.623 77.0161 166.623 77.528C166.623 78.0399 166.755 78.5431 167.007 78.9891L172.55 82.2075C172.298 81.7591 172.166 81.2537 172.166 80.7397C172.166 80.2257 172.298 79.7203 172.55 79.2719H172.536Z" fill="#F77D5C"/>
<path d="M174.413 77.0625C173.931 77.3463 173.513 77.7269 173.185 78.1802C172.133 79.5268 171.837 81.3717 172.511 82.2201L177.474 88.1721C177.727 88.423 178.064 88.5714 178.42 88.5888C178.777 88.6062 179.127 88.4914 179.403 88.2664C179.874 87.9735 180.286 87.5943 180.617 87.1487C181.682 85.8021 181.965 83.9572 181.291 83.1088L176.341 77.1567C176.087 76.9086 175.75 76.762 175.395 76.7447C175.04 76.7273 174.69 76.8403 174.413 77.0625Z" fill="#F4AA85"/>
<path d="M196.084 54.0884L190.514 50.8834C190.319 50.7621 190.096 50.6926 189.867 50.6814L195.396 53.8864C195.639 53.8905 195.877 53.9603 196.084 54.0884Z" fill="#D6B700"/>
<path d="M196.084 54.0884L190.514 50.8834C190.319 50.7621 190.096 50.6926 189.867 50.6814L195.396 53.8864C195.635 53.8741 195.872 53.9252 196.084 54.0345V54.0884Z" fill="#D6B700"/>
<path d="M195.397 53.9403L189.868 50.7354L181.56 51.1663L187.09 54.3847L195.397 53.9403Z" fill="#F77D5C"/>
<path d="M187.087 54.3845L181.557 51.166C181.222 51.1887 180.897 51.2952 180.613 51.4757L186.143 54.7211C186.426 54.536 186.75 54.4206 187.087 54.3845Z" fill="#F77D5C"/>
<path d="M187.086 54.385L181.556 51.1665C181.221 51.1892 180.896 51.2957 180.612 51.4762L186.142 54.7216C186.429 54.5507 186.752 54.4493 187.086 54.4253V54.385Z" fill="#F77D5C"/>
<path d="M179.009 56.8759L184.539 60.1079C183.878 59.7308 183.675 58.7612 184.08 57.4146C184.433 56.3046 185.163 55.3523 186.144 54.7213L180.614 51.5164C179.627 52.1433 178.892 53.0965 178.537 54.2096C178.132 55.462 178.375 56.4989 179.009 56.8759Z" fill="#F77D5C"/>
<path d="M186.14 54.7216L180.61 51.5166C180.234 51.7393 179.897 52.0212 179.612 52.3515L185.115 55.5296C185.4 55.1956 185.737 54.9093 186.113 54.6812L186.14 54.7216Z" fill="#F77D5C"/>
<path d="M185.115 55.5297L179.586 52.3113C179.228 52.7139 178.932 53.1678 178.709 53.6579L184.239 56.8763C184.462 56.3862 184.757 55.9323 185.115 55.5297Z" fill="#F77D5C"/>
<path d="M184.263 56.9032L178.734 53.6848C178.655 53.8552 178.587 54.0306 178.532 54.21C178.127 55.4624 178.343 56.4993 179.004 56.9032L184.533 60.1082C183.872 59.7312 183.67 58.7616 184.075 57.415C184.075 57.2399 184.196 57.0648 184.263 56.9032Z" fill="#F77D5C"/>
<path d="M186.144 54.7216C185.164 55.3525 184.434 56.3048 184.08 57.4148C183.554 59.0308 184.08 60.2966 185.2 60.2293L193.521 59.7849C193.857 59.7622 194.182 59.6557 194.465 59.4752C195.451 58.8465 196.186 57.8939 196.542 56.7819C197.055 55.1525 196.542 53.8867 195.396 53.954L187.088 54.3984C186.752 54.4305 186.429 54.5412 186.144 54.7216Z" fill="#F4AA85"/>
<path d="M127.869 110.782L128.139 110.943L130.836 112.546L131.119 112.708L133.331 114.054C132.589 113.623 132.441 112.344 133.034 110.957L127.491 107.739C126.979 109.085 127.127 110.351 127.869 110.782Z" fill="#F77D5C"/>
<path d="M133.102 110.903L127.559 107.684C126.979 109.031 127.127 110.378 127.869 110.782L133.398 113.973C132.657 113.542 132.508 112.263 133.102 110.876V110.903Z" fill="#F77D5C"/>
<path d="M141.549 96.7907L136.006 93.5723C135.885 93.5035 135.752 93.4578 135.615 93.4376C135.184 93.3982 134.752 93.5023 134.387 93.7339L139.917 96.9523C140.284 96.7139 140.722 96.6092 141.158 96.6561C141.296 96.6743 141.429 96.7201 141.549 96.7907Z" fill="#F77D5C"/>
<path d="M141.55 96.7907L136.007 93.5723C135.886 93.5035 135.753 93.4578 135.616 93.4376C135.185 93.3982 134.753 93.5023 134.388 93.7339L139.918 96.9523C140.285 96.7139 140.723 96.6092 141.159 96.6561C141.297 96.6743 141.43 96.7201 141.55 96.7907Z" fill="#F77D5C"/>
<path d="M137.999 99.255L132.469 96.05L127.56 107.685L133.103 110.903L137.999 99.255Z" fill="#F77D5C"/>
<path d="M139.915 96.952L134.385 93.7739C133.55 94.3285 132.901 95.1216 132.524 96.0497L138.054 99.2547C138.429 98.3179 139.077 97.5155 139.915 96.952Z" fill="#F77D5C"/>
<path d="M139.915 96.952L134.385 93.7739C134.015 93.9978 133.682 94.2797 133.401 94.6088L138.93 97.8138C139.208 97.4805 139.541 97.198 139.915 96.9789V96.952Z" fill="#F77D5C"/>
<path d="M138.929 97.8136L133.399 94.5952C133.034 94.9952 132.734 95.4495 132.509 95.9418L138.052 99.1603C138.275 98.6702 138.571 98.2163 138.929 97.8136Z" fill="#F77D5C"/>
<path d="M138.053 99.1605L132.523 95.9556V96.0498L138.053 99.2548V99.1605Z" fill="#F77D5C"/>
<path d="M139.915 96.9525C139.057 97.5079 138.389 98.3111 138 99.2552L133.104 110.904C132.416 112.506 132.726 113.96 133.792 114.122C134.221 114.174 134.656 114.074 135.019 113.839C135.884 113.286 136.553 112.476 136.934 111.523L141.843 99.8881C142.518 98.2722 142.208 96.8178 141.156 96.6562C140.72 96.6093 140.282 96.714 139.915 96.9525Z" fill="#F4AA85"/>
<path d="M150.051 105.463L155.567 108.681C155.347 108.515 155.174 108.295 155.063 108.043C154.952 107.791 154.907 107.514 154.933 107.24L149.404 104.022C149.375 104.298 149.42 104.576 149.534 104.829C149.647 105.082 149.826 105.301 150.051 105.463Z" fill="#F77D5C"/>
<path d="M154.93 107.241L149.4 104.022C149.37 104.305 149.416 104.591 149.535 104.849C149.654 105.107 149.84 105.329 150.075 105.49L155.591 108.708C155.362 108.543 155.18 108.32 155.064 108.063C154.948 107.805 154.902 107.522 154.93 107.241Z" fill="#F77D5C"/>
<path d="M154.907 96.7492L149.377 93.5308L149.404 103.994L154.934 107.213L154.907 96.7492Z" fill="#F77D5C"/>
<path d="M158.807 92.6561L153.277 89.4511C153.015 89.3319 152.726 89.284 152.439 89.3124C152.153 89.3408 151.879 89.4444 151.645 89.6127L157.175 92.8312C157.406 92.6581 157.679 92.5504 157.967 92.5196C158.254 92.4888 158.544 92.5359 158.807 92.6561Z" fill="#F77D5C"/>
<path d="M158.807 92.6561L153.277 89.4511C153.015 89.3319 152.726 89.284 152.439 89.3124C152.153 89.3408 151.879 89.4444 151.645 89.6127L157.175 92.8312C157.406 92.6581 157.679 92.5504 157.967 92.5196C158.254 92.4888 158.544 92.5359 158.807 92.6561Z" fill="#F77D5C"/>
<path d="M157.178 92.8312L151.648 89.6128C150.984 90.0378 150.432 90.6154 150.038 91.2972C149.644 91.9789 149.419 92.7451 149.382 93.5315L154.912 96.7499C154.952 95.9643 155.178 95.1994 155.572 94.5181C155.966 93.8369 156.516 93.2587 157.178 92.8312Z" fill="#D6B700"/>
<path d="M157.178 92.8315L151.648 89.613C151.267 89.834 150.929 90.1213 150.65 90.4614L156.18 93.6664C156.459 93.3303 156.797 93.0474 157.178 92.8315Z" fill="#F77D5C"/>
<path d="M156.181 93.6659L150.651 90.4609C150.293 90.8635 149.998 91.3175 149.774 91.8076L155.304 95.026C155.532 94.5388 155.827 94.0856 156.181 93.6794V93.6659Z" fill="#F77D5C"/>
<path d="M155.303 95.0395L149.773 91.821C149.53 92.3594 149.397 92.9409 149.382 93.5313L154.912 96.7497C154.927 96.1593 155.059 95.5778 155.303 95.0395Z" fill="#F77D5C"/>
<path d="M157.174 92.8311C156.513 93.2585 155.963 93.8367 155.569 94.518C155.175 95.1992 154.949 95.9641 154.909 96.7497V107.213C154.909 108.654 155.934 109.246 157.201 108.56C157.879 108.124 158.441 107.532 158.84 106.834C159.239 106.135 159.464 105.351 159.494 104.547V94.07C159.494 92.6695 158.442 92.0904 157.174 92.8311Z" fill="#F4AA85"/>
<path d="M199.295 25.9442L194.871 23.3721C194.763 23.3277 194.659 23.2736 194.561 23.2105L193.738 22.7257C193.478 22.609 193.191 22.5625 192.907 22.5909C192.623 22.6192 192.352 22.7214 192.12 22.8873L197.65 26.0923C197.886 25.9236 198.163 25.821 198.452 25.795C198.741 25.7689 199.032 25.8204 199.295 25.9442Z" fill="#F77D5C"/>
<path d="M199.295 25.9442L193.765 22.7257C193.505 22.609 193.218 22.5625 192.934 22.5909C192.65 22.6192 192.379 22.7214 192.147 22.8873L197.676 26.0923C197.91 25.9286 198.182 25.8287 198.466 25.8028C198.75 25.7768 199.036 25.8255 199.295 25.9442Z" fill="#F77D5C"/>
<path d="M197.677 26.0922L192.147 22.8872L191.823 23.1027L197.353 26.3076L197.677 26.0922Z" fill="#F77D5C"/>
<path d="M197.675 26.0919L192.145 22.887L191.821 23.1024L197.351 26.3074L197.675 26.0919Z" fill="#F77D5C"/>
<path d="M197.353 26.308L191.823 23.103L182.787 29.7958L188.33 33.0007L197.353 26.308Z" fill="#F77D5C"/>
<path d="M181.506 34.9654L187.035 38.1703C186.849 38.054 186.693 37.8938 186.583 37.7036C186.472 37.5135 186.41 37.2992 186.401 37.0796C186.376 36.3013 186.538 35.5285 186.874 34.8256C187.21 34.1227 187.709 33.5103 188.33 33.0397L182.787 29.8347C182.167 30.3061 181.668 30.9187 181.332 31.6213C180.997 32.324 180.834 33.0965 180.858 33.8746C180.868 34.0955 180.932 34.3106 181.045 34.5008C181.158 34.6911 181.316 34.8506 181.506 34.9654Z" fill="#F77D5C"/>
<path d="M188.328 32.9997L182.785 29.7947C182.541 29.9794 182.315 30.1868 182.111 30.4141L187.64 33.6326C187.846 33.3973 188.076 33.185 188.328 32.9997Z" fill="#F77D5C"/>
<path d="M187.643 33.6323L182.113 30.4812C181.755 30.8838 181.459 31.3377 181.236 31.8278L186.766 35.0463C186.987 34.5553 187.283 34.1011 187.643 33.6996V33.6323Z" fill="#F77D5C"/>
<path d="M186.762 35.0196L181.233 31.8281C180.925 32.4738 180.795 33.1895 180.855 33.9019C180.865 34.1228 180.929 34.3379 181.042 34.5281C181.155 34.7184 181.313 34.8779 181.503 34.9927L187.032 38.1977C186.845 38.0813 186.69 37.9211 186.579 37.731C186.469 37.5408 186.407 37.3266 186.398 37.1069C186.328 36.3998 186.454 35.6869 186.762 35.0466V35.0196Z" fill="#F77D5C"/>
<path d="M197.678 26.0924L197.354 26.3078L188.331 33.041C187.71 33.5116 187.211 34.124 186.875 34.8269C186.54 35.5297 186.378 36.3026 186.403 37.0808C186.564 38.2928 187.535 38.6699 188.655 38.0235L188.992 37.808L198.015 31.0749C198.633 30.602 199.129 29.9889 199.462 29.2863C199.795 28.5837 199.955 27.8119 199.93 27.035C199.755 25.8365 198.784 25.4594 197.678 26.0924Z" fill="#F4AA85"/>
<path d="M189.612 7.34766L184.083 4.14268C183.824 4.01989 183.538 3.96885 183.253 3.99492C182.968 4.02098 182.696 4.1232 182.464 4.29081L187.994 7.50925C188.226 7.34336 188.498 7.24114 188.781 7.21279C189.065 7.18443 189.352 7.23093 189.612 7.34766Z" fill="#F77D5C"/>
<path d="M189.612 7.34766L184.083 4.14268C183.824 4.01989 183.538 3.96885 183.253 3.99492C182.968 4.02098 182.696 4.1232 182.464 4.29081L187.994 7.50925C188.226 7.34336 188.498 7.24114 188.781 7.21279C189.065 7.18443 189.352 7.23093 189.612 7.34766Z" fill="#F77D5C"/>
<path d="M187.995 7.50946L182.425 4.29102C181.818 4.67014 181.31 5.1869 180.941 5.79924L186.471 9.00422C186.855 8.39375 187.377 7.88176 187.995 7.50946Z" fill="#F77D5C"/>
<path d="M187.99 7.5097L182.42 4.29126C182.051 4.51817 181.72 4.79969 181.436 5.12617L187.006 8.34461C187.282 8.01075 187.616 7.72813 187.99 7.5097Z" fill="#F77D5C"/>
<path d="M187.007 8.34466L181.477 5.12622C181.289 5.33327 181.121 5.55886 180.978 5.79953L186.467 9.00451C186.615 8.77114 186.782 8.55043 186.966 8.34466H187.007Z" fill="#F77D5C"/>
<path d="M186.511 9.0038L180.981 5.79883L174.103 16.6257L179.632 19.8442L186.511 9.0038Z" fill="#F77D5C"/>
<path d="M187.997 7.50914C187.378 7.88145 186.856 8.39343 186.473 9.0039L179.594 19.8443C178.637 21.3256 178.556 23.0358 179.365 23.6552C179.626 23.8131 179.929 23.8898 180.234 23.8754C180.539 23.861 180.833 23.7562 181.078 23.5744C181.691 23.1999 182.205 22.6823 182.575 22.0662L189.453 11.2932C190.451 9.74455 190.519 8.03433 189.723 7.41488C189.458 7.25946 189.153 7.18552 188.845 7.20228C188.538 7.21905 188.243 7.32578 187.997 7.50914Z" fill="#F4AA85"/>
<path d="M173.984 20.5189L179.513 23.7508L179.405 23.67C178.596 23.0506 178.677 21.3404 179.635 19.8591L174.105 16.6406C173.148 18.1354 173.053 19.8456 173.876 20.465L173.984 20.5189Z" fill="#F77D5C"/>
<path d="M179.638 19.8447L174.108 16.6262C173.957 16.8569 173.826 17.1002 173.717 17.3534L179.247 20.5584C179.358 20.3108 179.489 20.0722 179.638 19.8447Z" fill="#F77D5C"/>
<path d="M179.249 20.5585L173.719 17.3535C173.153 18.6328 173.193 19.939 173.881 20.4508H173.989L179.519 23.75L179.411 23.6692C178.723 23.1575 178.682 21.8647 179.249 20.572V20.5585Z" fill="#F77D5C"/>
<path d="M173.633 30.0786L168.103 26.8736C163.841 24.3958 157.947 24.7459 151.42 28.503L156.963 31.708C163.477 27.9509 169.371 27.6008 173.633 30.0786Z" fill="#F77D5C"/>
<path d="M173.633 30.0791L168.103 26.8741C163.841 24.3963 157.947 24.7464 151.42 28.5035L156.963 31.7085C163.477 27.9514 169.371 27.6013 173.633 30.0791Z" fill="#F77D5C"/>
<path d="M134.9 83.9162L140.443 87.1212C136.235 84.6838 133.619 79.4858 133.605 72.1197C133.605 57.3068 144.017 39.1677 156.965 31.7209L151.408 28.5024C138.474 35.9628 128.022 54.0884 128.049 68.9013C128.089 76.2673 130.706 81.4653 134.9 83.9162Z" fill="#F77D5C"/>
<path d="M156.97 31.7069L151.413 28.502C147.561 30.7989 144.109 33.705 141.19 37.1069L146.72 40.3119C149.647 36.9134 153.103 34.0079 156.956 31.7069H156.97Z" fill="#F77D5C"/>
<path d="M146.733 40.3122L141.204 37.1072C137.475 41.3666 134.415 46.1658 132.127 51.341L137.67 54.546C139.956 49.3729 143.012 44.5742 146.733 40.3122Z" fill="#F77D5C"/>
<path d="M137.668 54.5455L132.125 51.3406C129.6 56.841 128.223 62.7975 128.079 68.8467C128.079 76.2263 130.776 81.4108 134.917 83.8617L140.46 87.0666C136.252 84.6292 133.636 79.4312 133.622 72.0652C133.745 65.9918 135.123 60.0091 137.668 54.4917V54.5455Z" fill="#F77D5C"/>
<path d="M156.964 31.7083C144.016 39.1686 133.55 57.2942 133.604 72.1072C133.658 86.9201 144.178 92.9395 157.112 85.4792C170.046 78.0189 180.525 59.8932 180.471 45.0803C180.418 30.2674 169.911 24.248 156.964 31.7083Z" fill="#F4AA85"/>
<path d="M134.515 45.983L128.985 42.778L128.85 42.7107L134.38 45.9291H134.515V45.983Z" fill="#FFE000"/>
<path d="M131.006 43.3835L125.476 40.165L118.557 37.2832L124.101 40.5017L131.006 43.3835Z" fill="#F77D5C"/>
<path d="M124.101 40.5019L118.557 37.2835C118.31 37.2027 118.048 37.1801 117.79 37.2175C117.533 37.2549 117.288 37.3512 117.074 37.4989L122.604 40.7174C122.819 40.5665 123.066 40.4684 123.326 40.431C123.586 40.3936 123.852 40.4179 124.101 40.5019Z" fill="#F77D5C"/>
<path d="M124.101 40.5019L118.557 37.2835C118.31 37.2027 118.048 37.1801 117.79 37.2175C117.533 37.2549 117.288 37.3512 117.074 37.4989L122.604 40.7174C122.819 40.5665 123.066 40.4684 123.326 40.431C123.586 40.3936 123.852 40.4179 124.101 40.5019Z" fill="#F77D5C"/>
<path d="M115.454 42.8853L120.984 46.0903C120.148 45.6189 120.094 44.1107 120.876 42.616C121.268 41.8379 121.865 41.1813 122.603 40.7172L117.005 37.4988C116.271 37.9665 115.675 38.6221 115.279 39.3975C114.564 40.8923 114.632 42.4005 115.454 42.8853Z" fill="#F77D5C"/>
<path d="M122.604 40.7172L117.006 37.4988C116.63 37.7255 116.293 38.0121 116.008 38.3472L121.538 41.5521C121.823 41.2219 122.16 40.9399 122.536 40.7172H122.604Z" fill="#F77D5C"/>
<path d="M121.607 41.5529L116.078 38.3479C115.791 38.6656 115.546 39.0185 115.349 39.3983L115.201 39.7215L120.717 42.9399L120.879 42.6167C121.076 42.2328 121.321 41.8753 121.607 41.5529Z" fill="#F77D5C"/>
<path d="M120.716 42.9396L115.199 39.7212C114.579 41.0678 114.687 42.4144 115.456 42.8858L120.985 46.0907C120.217 45.6464 120.109 44.3132 120.716 42.9396Z" fill="#F77D5C"/>
<path d="M122.604 40.7171C121.866 41.1813 121.269 41.8378 120.878 42.6159C120.055 44.178 120.163 45.767 121.12 46.1575L128.039 49.0528C128.29 49.1318 128.555 49.1522 128.814 49.1125C129.074 49.0728 129.321 48.974 129.536 48.8238C130.27 48.3642 130.862 47.712 131.249 46.9386C132.072 45.363 131.964 43.774 131.006 43.3835L124.101 40.5017C123.852 40.4176 123.587 40.3933 123.327 40.4308C123.067 40.4682 122.819 40.5663 122.604 40.7171Z" fill="#F4AA85"/>
<path d="M158.82 18.0797L164.35 21.2981C164.035 21.0267 163.812 20.6653 163.711 20.2629C163.61 19.8606 163.635 19.4368 163.783 19.0493L158.254 15.8308C158.011 16.9216 158.254 17.7565 158.82 18.0797Z" fill="#F77D5C"/>
<path d="M163.782 19.049L158.253 15.8306C158.01 16.9213 158.253 17.7562 158.819 18.0794L164.349 21.2979C164.034 21.0265 163.811 20.665 163.71 20.2627C163.609 19.8603 163.634 19.4366 163.782 19.049Z" fill="#F77D5C"/>
<path d="M170.141 4.22305L164.597 1.00461C164.441 0.910093 164.268 0.848228 164.087 0.822765C163.906 0.797302 163.722 0.808773 163.546 0.856481C163.323 0.917359 163.11 1.00795 162.912 1.12581L168.441 4.33078C168.645 4.21679 168.862 4.13072 169.089 4.07492C169.264 4.02216 169.449 4.00808 169.631 4.03365C169.813 4.05923 169.986 4.12385 170.141 4.22305Z" fill="#F77D5C"/>
<path d="M170.141 4.22305L164.597 1.00461C164.441 0.910093 164.268 0.848228 164.087 0.822765C163.906 0.797302 163.722 0.808773 163.546 0.856481C163.323 0.917359 163.11 1.00795 162.912 1.12581L168.441 4.33078C168.645 4.21679 168.862 4.13072 169.089 4.07492C169.252 4.02599 169.423 4.01031 169.592 4.02882C169.761 4.04733 169.925 4.09964 170.073 4.18265L170.141 4.22305Z" fill="#F77D5C"/>
<path d="M166.322 7.50869L160.793 4.30371L158.257 15.8308L163.787 19.0493L166.322 7.50869Z" fill="#F77D5C"/>
<path d="M168.508 4.37075L162.978 1.16577C161.891 1.89969 161.128 3.02315 160.847 4.30342L166.377 7.50839C166.657 6.22813 167.42 5.10466 168.508 4.37075Z" fill="#F77D5C"/>
<path d="M168.506 4.37026L162.976 1.16528C162.601 1.38797 162.264 1.66992 161.978 2.00019L167.508 5.21864C167.793 4.88473 168.13 4.59835 168.506 4.37026Z" fill="#F77D5C"/>
<path d="M167.509 5.21869L161.979 2.00024C161.622 2.40382 161.327 2.85754 161.102 3.34687L166.632 6.56531C166.851 6.07262 167.146 5.61799 167.509 5.21869Z" fill="#F77D5C"/>
<path d="M166.631 6.6054L161.101 3.38696C160.966 3.68045 160.862 3.98739 160.791 4.30267L166.321 7.50765C166.394 7.1973 166.498 6.89504 166.631 6.6054Z" fill="#F77D5C"/>
<path d="M168.508 4.37092C167.4 5.09481 166.617 6.21963 166.323 7.50856L163.788 19.0492C163.437 20.6247 164.125 21.7424 165.339 21.3923C165.565 21.3365 165.783 21.2504 165.986 21.1364C167.088 20.4065 167.869 19.2843 168.171 17.9988L170.706 6.47166C171.057 4.88264 170.369 3.7784 169.155 4.11506C168.929 4.17086 168.711 4.25692 168.508 4.37092Z" fill="#F4AA85"/>
<path d="M142.293 29.1924L136.763 25.974C136.849 26.2952 137.051 26.5734 137.33 26.755L142.859 29.96C142.583 29.7817 142.382 29.5087 142.293 29.1924Z" fill="#F77D5C"/>
<path d="M139.704 20.6281L134.175 17.4097L136.764 25.9742L142.294 29.1927L139.704 20.6281Z" fill="#F77D5C"/>
<path d="M143.492 15.8474L137.963 12.629C137.703 12.5095 137.416 12.4615 137.131 12.4899C136.847 12.5183 136.575 12.6221 136.344 12.7906L141.874 15.9955C142.106 15.8296 142.377 15.7274 142.661 15.6991C142.945 15.6707 143.232 15.7172 143.492 15.8339V15.8474Z" fill="#F77D5C"/>
<path d="M141.876 16.0093L136.346 12.8043C136.112 12.9344 135.895 13.0927 135.699 13.2756C135.572 13.3868 135.455 13.5084 135.348 13.6392L140.878 16.8442C140.999 16.723 141.107 16.6018 141.242 16.4806C141.437 16.3022 141.649 16.1443 141.876 16.0093Z" fill="#F77D5C"/>
<path d="M140.877 16.8446L135.347 13.6396C134.989 14.0422 134.694 14.4961 134.471 14.9862L140 18.1912C140.223 17.7011 140.519 17.2472 140.877 16.8446Z" fill="#F77D5C"/>
<path d="M139.998 18.2309L134.401 15.0259C134.025 15.7607 133.915 16.6031 134.091 17.4095L139.634 20.6279C139.453 19.8187 139.558 18.9719 139.931 18.2309H139.998Z" fill="#F77D5C"/>
<path d="M141.642 15.9046C141.415 16.0396 141.203 16.1975 141.008 16.3759C140.424 16.8829 139.977 17.5286 139.708 18.2534C139.44 18.9782 139.358 19.7589 139.471 20.5235L142.06 29.0881C142.357 30.0576 143.274 30.2596 144.259 29.6941C144.483 29.5557 144.695 29.398 144.893 29.2227C145.477 28.7186 145.924 28.0754 146.193 27.3527C146.461 26.63 146.543 25.8512 146.43 25.0886L143.827 16.5644C143.544 15.541 142.627 15.339 141.642 15.9046Z" fill="#F4AA85"/>
<path d="M141.876 16.0093L136.346 12.8043C136.112 12.9344 135.895 13.0927 135.699 13.2756C135.12 13.7836 134.676 14.4273 134.408 15.1489C134.139 15.8705 134.055 16.6474 134.161 17.4098L139.705 20.6282C139.592 19.8636 139.673 19.0829 139.942 18.3581C140.211 17.6332 140.658 16.9876 141.242 16.4806C141.437 16.3022 141.649 16.1443 141.876 16.0093Z" fill="#F77D5C"/>
<path d="M143.492 15.8474L137.963 12.629C137.703 12.5095 137.416 12.4615 137.131 12.4899C136.847 12.5183 136.575 12.6221 136.344 12.7906L141.874 15.9955C142.107 15.8318 142.379 15.732 142.663 15.706C142.947 15.68 143.233 15.7288 143.492 15.8474Z" fill="#F77D5C"/>
<path d="M137.33 26.755L142.859 29.96C142.583 29.7817 142.382 29.5087 142.293 29.1924L136.763 25.974C136.849 26.2952 137.051 26.5734 137.33 26.755Z" fill="#F77D5C"/>
<path d="M127.128 69.0493L121.598 65.8309C121.389 65.7276 121.158 65.6738 120.924 65.6738C120.69 65.6738 120.459 65.7276 120.25 65.8309L125.779 69.0493C125.987 68.9385 126.218 68.8806 126.454 68.8806C126.689 68.8806 126.92 68.9385 127.128 69.0493Z" fill="#D6B700"/>
<path d="M127.128 69.0493L121.598 65.8309C121.389 65.7276 121.158 65.6738 120.924 65.6738C120.69 65.6738 120.459 65.7276 120.25 65.8309L125.779 69.0493C125.987 68.9385 126.218 68.8806 126.454 68.8806C126.689 68.8806 126.92 68.9385 127.128 69.0493Z" fill="#F77D5C"/>
<path d="M125.791 69.0497L120.261 65.8313L111.239 69.5615L116.768 72.7664L125.791 69.0497Z" fill="#F77D5C"/>
<path d="M116.77 72.7663L111.24 69.5344C111.121 69.5745 111.008 69.6288 110.903 69.696L116.432 72.901L116.77 72.7663Z" fill="#D6B700"/>
<path d="M116.77 72.7663L111.24 69.5344C111.121 69.5745 111.008 69.6288 110.903 69.696L116.432 72.901L116.77 72.7394V72.7663Z" fill="#F77D5C"/>
<path d="M109.309 75.1097L114.838 78.3146C114.558 78.1041 114.346 77.8149 114.231 77.4839C114.116 77.153 114.102 76.7952 114.191 76.4563C114.294 75.7438 114.546 75.0611 114.932 74.4531C115.318 73.845 115.828 73.3253 116.43 72.9281L110.941 69.7231C110.336 70.1171 109.824 70.6359 109.438 71.2446C109.051 71.8532 108.8 72.5375 108.702 73.2513C108.608 73.5863 108.616 73.9414 108.724 74.2721C108.832 74.6027 109.035 74.8941 109.309 75.1097Z" fill="#D6B700"/>
<path d="M116.429 72.9281L110.94 69.7231C110.566 69.9429 110.233 70.2254 109.956 70.5581L115.485 73.763C115.766 73.4339 116.099 73.152 116.47 72.9281H116.429Z" fill="#F77D5C"/>
<path d="M115.446 73.7633L109.917 70.5583C109.552 70.9557 109.256 71.4108 109.04 71.905L114.57 75.1234C114.791 74.6324 115.087 74.1783 115.446 73.7768V73.7633Z" fill="#F77D5C"/>
<path d="M114.566 75.1498L109.037 71.9314C108.838 72.3568 108.711 72.8117 108.659 73.278C108.57 73.617 108.584 73.9747 108.699 74.3057C108.814 74.6367 109.026 74.9258 109.306 75.1364L114.836 78.3413C114.555 78.1308 114.344 77.8416 114.229 77.5107C114.113 77.1797 114.099 76.8219 114.189 76.483C114.246 76.0177 114.373 75.5637 114.566 75.1364V75.1498Z" fill="#F77D5C"/>
<path d="M116.432 72.9283C115.83 73.3255 115.32 73.8452 114.934 74.4532C114.548 75.0613 114.296 75.744 114.193 76.4565C114.018 78.0051 114.881 78.8265 116.121 78.3148L125.171 74.5846L125.508 74.423C126.114 74.0276 126.628 73.5067 127.014 72.8956C127.4 72.2845 127.65 71.5976 127.747 70.8814C127.923 69.3463 127.046 68.5248 125.792 69.0365L116.769 72.7532L116.432 72.9283Z" fill="#F4AA85"/>
<path d="M129.717 87.9964L124.174 84.778C123.913 84.6612 123.627 84.6147 123.343 84.6431C123.059 84.6715 122.787 84.7737 122.555 84.9396L128.098 88.1445C128.33 87.9769 128.602 87.8747 128.887 87.8486C129.172 87.8226 129.459 87.8736 129.717 87.9964Z" fill="#D6B700"/>
<path d="M129.717 87.9964L124.174 84.778C123.913 84.6612 123.627 84.6147 123.343 84.6431C123.059 84.6715 122.787 84.7737 122.555 84.9396L128.098 88.1445C128.33 87.9769 128.602 87.8747 128.887 87.8486C129.172 87.8226 129.459 87.8736 129.717 87.9964Z" fill="#F77D5C"/>
<path d="M128.101 88.1452L122.557 84.9402C122.206 85.1479 121.892 85.4117 121.627 85.7212L127.13 88.9262C127.408 88.6146 127.736 88.3508 128.101 88.1452Z" fill="#D6B700"/>
<path d="M128.101 88.1452L122.557 84.9402C122.206 85.1479 121.892 85.4117 121.627 85.7212L127.13 88.9262C127.4 88.6169 127.719 88.3532 128.074 88.1452H128.101Z" fill="#F77D5C"/>
<path d="M127.154 88.9259L121.625 85.7209L113.33 94.8511L118.86 98.0561L127.154 88.9259Z" fill="#F77D5C"/>
<path d="M112.67 99.4568L118.199 102.675C118.005 102.559 117.846 102.391 117.741 102.19C117.542 101.464 117.541 100.698 117.738 99.9714C117.934 99.2446 118.322 98.5835 118.86 98.0563L113.331 94.8513C112.791 95.3748 112.403 96.0335 112.206 96.7585C112.009 97.4835 112.011 98.248 112.211 98.972C112.305 99.1808 112.466 99.3517 112.67 99.4568Z" fill="#F77D5C"/>
<path d="M118.86 98.0563L113.331 94.8513L118.847 98.0698L118.86 98.0563Z" fill="#F77D5C"/>
<path d="M118.804 98.1225L113.288 94.9041C112.921 95.3025 112.62 95.7572 112.397 96.2507L117.927 99.4557C118.152 98.9665 118.447 98.5129 118.804 98.109V98.1225Z" fill="#F77D5C"/>
<path d="M117.929 99.4962L112.399 96.2913C112.181 96.7023 112.052 97.1542 112.02 97.618C111.987 98.0818 112.052 98.5472 112.21 98.9845C112.304 99.1933 112.465 99.3642 112.669 99.4693L118.198 102.688C118.003 102.572 117.845 102.404 117.74 102.203C117.581 101.766 117.516 101.3 117.548 100.836C117.581 100.372 117.71 99.9205 117.929 99.5097V99.4962Z" fill="#F77D5C"/>
<path d="M128.097 88.1445C127.743 88.3525 127.424 88.6163 127.153 88.9255L118.859 98.0557C118.311 98.5772 117.913 99.2358 117.707 99.9628C117.501 100.69 117.493 101.459 117.685 102.19C118.076 102.917 118.899 103.011 119.762 102.513C120.119 102.302 120.442 102.039 120.72 101.732L129.001 92.6018C129.53 92.0884 129.913 91.4435 130.109 90.7335C130.306 90.0234 130.31 89.2739 130.12 88.5619C129.824 87.7405 128.96 87.6462 128.097 88.1445Z" fill="#F4AA85"/>
<path d="M179.466 100.605L171.789 95.8807L186.257 94.1091L179.466 100.605Z" fill="#CDDFF4"/>
<path d="M211.943 47.4575L220.801 52.7722L205.447 54.5438L211.943 47.4575Z" fill="#CDDFF4"/>
<path d="M173.476 72.9288C159.135 91.7869 174.008 101.01 182.155 96.978L216.362 81.0318C233.194 72.1407 221.552 55.2978 214.439 57.3031C217.889 43.5715 204.741 45.9293 201.957 51.9729C188.921 36.8208 168.415 60.2312 173.476 72.9288Z" fill="#CDDFF4"/>
<path d="M181.01 77.446C166.669 96.3041 181.542 105.528 189.689 101.495L223.896 85.549C240.728 76.6579 229.086 59.815 221.973 61.8202C225.423 48.0887 212.275 50.4465 209.491 56.4901C196.455 41.338 175.949 64.7484 181.01 77.446Z" fill="#E6F5FF"/>
<defs>
<filter id="filter0_d" x="14.7139" y="123.79" width="422.497" height="284.183" filterUnits="userSpaceOnUse" color-interpolation-filters="sRGB">
<feFlood flood-opacity="0" result="BackgroundImageFix"/>
<feColorMatrix in="SourceAlpha" type="matrix" values="0 0 0 0 0 0 0 0 0 0 0 0 0 0 0 0 0 0 127 0"/>
<feOffset dy="12"/>
<feGaussianBlur stdDeviation="20"/>
<feColorMatrix type="matrix" values="0 0 0 0 0.339427 0 0 0 0 0.423456 0 0 0 0 0.554167 0 0 0 0.1 0"/>
<feBlend mode="normal" in2="BackgroundImageFix" result="effect1_dropShadow"/>
<feBlend mode="normal" in="SourceGraphic" in2="effect1_dropShadow" result="shape"/>
</filter>
<linearGradient id="paint0_linear" x1="98.8338" y1="0" x2="98.8338" y2="197.668" gradientUnits="userSpaceOnUse">
<stop stop-color="#F1F0FF"/>
<stop offset="1" stop-color="white"/>
</linearGradient>
<linearGradient id="paint1_linear" x1="229.026" y1="281.88" x2="243.732" y2="298.189" gradientUnits="userSpaceOnUse">
<stop stop-color="#5DA676"/>
<stop offset="1" stop-color="#1E6D39"/>
</linearGradient>
<linearGradient id="paint2_linear" x1="217.036" y1="294.043" x2="228.331" y2="310.362" gradientUnits="userSpaceOnUse">
<stop stop-color="#5DA676"/>
<stop offset="1" stop-color="#1E6D39"/>
</linearGradient>
<linearGradient id="paint3_linear" x1="172.3" y1="246.666" x2="187.006" y2="262.975" gradientUnits="userSpaceOnUse">
<stop stop-color="#5DA676"/>
<stop offset="1" stop-color="#1E6D39"/>
</linearGradient>
<linearGradient id="paint4_linear" x1="160.31" y1="258.83" x2="171.606" y2="275.148" gradientUnits="userSpaceOnUse">
<stop stop-color="#5DA676"/>
<stop offset="1" stop-color="#1E6D39"/>
</linearGradient>
<linearGradient id="paint5_linear" x1="115.132" y1="213.319" x2="129.838" y2="229.628" gradientUnits="userSpaceOnUse">
<stop stop-color="#5DA676"/>
<stop offset="1" stop-color="#1E6D39"/>
</linearGradient>
<linearGradient id="paint6_linear" x1="103.142" y1="225.482" x2="114.438" y2="241.801" gradientUnits="userSpaceOnUse">
<stop stop-color="#5DA676"/>
<stop offset="1" stop-color="#1E6D39"/>
</linearGradient>
<linearGradient id="paint7_linear" x1="172.3" y1="181.163" x2="187.006" y2="197.472" gradientUnits="userSpaceOnUse">
<stop stop-color="#5DA676"/>
<stop offset="1" stop-color="#1E6D39"/>
</linearGradient>
<linearGradient id="paint8_linear" x1="160.31" y1="193.326" x2="171.606" y2="209.645" gradientUnits="userSpaceOnUse">
<stop stop-color="#5DA676"/>
<stop offset="1" stop-color="#1E6D39"/>
</linearGradient>
<linearGradient id="paint9_linear" x1="229.464" y1="147.817" x2="244.17" y2="164.126" gradientUnits="userSpaceOnUse">
<stop stop-color="#5DA676"/>
<stop offset="1" stop-color="#1E6D39"/>
</linearGradient>
<linearGradient id="paint10_linear" x1="217.474" y1="159.98" x2="228.77" y2="176.299" gradientUnits="userSpaceOnUse">
<stop stop-color="#5DA676"/>
<stop offset="1" stop-color="#1E6D39"/>
</linearGradient>
<linearGradient id="paint11_linear" x1="229.464" y1="213.319" x2="244.17" y2="229.628" gradientUnits="userSpaceOnUse">
<stop stop-color="#5DA676"/>
<stop offset="1" stop-color="#1E6D39"/>
</linearGradient>
<linearGradient id="paint12_linear" x1="217.474" y1="225.482" x2="228.77" y2="241.801" gradientUnits="userSpaceOnUse">
<stop stop-color="#5DA676"/>
<stop offset="1" stop-color="#1E6D39"/>
</linearGradient>
<linearGradient id="paint13_linear" x1="289.015" y1="178.78" x2="303.721" y2="195.09" gradientUnits="userSpaceOnUse">
<stop stop-color="#5DA676"/>
<stop offset="1" stop-color="#1E6D39"/>
</linearGradient>
<linearGradient id="paint14_linear" x1="277.025" y1="190.944" x2="288.321" y2="207.263" gradientUnits="userSpaceOnUse">
<stop stop-color="#5DA676"/>
<stop offset="1" stop-color="#1E6D39"/>
</linearGradient>
<linearGradient id="paint15_linear" x1="290.206" y1="244.284" x2="304.912" y2="260.593" gradientUnits="userSpaceOnUse">
<stop stop-color="#5DA676"/>
<stop offset="1" stop-color="#1E6D39"/>
</linearGradient>
<linearGradient id="paint16_linear" x1="278.214" y1="256.448" x2="289.51" y2="272.766" gradientUnits="userSpaceOnUse">
<stop stop-color="#5DA676"/>
<stop offset="1" stop-color="#1E6D39"/>
</linearGradient>
<linearGradient id="paint17_linear" x1="342.609" y1="213.319" x2="357.315" y2="229.628" gradientUnits="userSpaceOnUse">
<stop stop-color="#5DA676"/>
<stop offset="1" stop-color="#1E6D39"/>
</linearGradient>
<linearGradient id="paint18_linear" x1="330.619" y1="225.482" x2="341.914" y2="241.801" gradientUnits="userSpaceOnUse">
<stop stop-color="#5DA676"/>
<stop offset="1" stop-color="#1E6D39"/>
</linearGradient>
<linearGradient id="paint19_linear" x1="35.7873" y1="96.7526" x2="35.7873" y2="111.293" gradientUnits="userSpaceOnUse">
<stop stop-color="#E6F5FF"/>
<stop offset="1" stop-color="#CDDCE7"/>
</linearGradient>
<linearGradient id="paint20_linear" x1="77.9292" y1="132.774" x2="36.5489" y2="132.183" gradientUnits="userSpaceOnUse">
<stop stop-color="#A1CBDF"/>
<stop offset="1" stop-color="#EBFEFF"/>
</linearGradient>
<linearGradient id="paint21_linear" x1="59.5111" y1="126.191" x2="59.5111" y2="151.946" gradientUnits="userSpaceOnUse">
<stop stop-color="#C1DCEE"/>
<stop offset="1" stop-color="#EEFDFF"/>
</linearGradient>
<linearGradient id="paint22_linear" x1="341.992" y1="72.3795" x2="341.992" y2="114.671" gradientUnits="userSpaceOnUse">
<stop stop-color="#D6EED7"/>
<stop offset="1" stop-color="#89CA9C"/>
</linearGradient>
<linearGradient id="paint23_linear" x1="364.882" y1="104.351" x2="383.623" y2="136.81" gradientUnits="userSpaceOnUse">
<stop stop-color="#B6D8C0"/>
<stop offset="1" stop-color="#52BC71"/>
</linearGradient>
<linearGradient id="paint24_linear" x1="27.5264" y1="-1.47128e-06" x2="45.8097" y2="36.5666" gradientUnits="userSpaceOnUse">
<stop stop-color="#AAD5B6"/>
<stop offset="1" stop-color="#8EDEA6"/>
</linearGradient>
<linearGradient id="paint25_linear" x1="9.32812" y1="0" x2="9.32812" y2="18.6562" gradientUnits="userSpaceOnUse">
<stop stop-color="#B6D8C0"/>
<stop offset="1" stop-color="#64AE7A"/>
</linearGradient>
<linearGradient id="paint26_linear" x1="9.32812" y1="0" x2="9.32812" y2="18.6562" gradientUnits="userSpaceOnUse">
<stop stop-color="#B6D8C0"/>
<stop offset="1" stop-color="#64AE7A"/>
</linearGradient>
</defs>
</svg>
