<svg width="538" height="538" viewBox="0 0 538 538" fill="none" xmlns="http://www.w3.org/2000/svg">
<g filter="url(#filter0_d)">
<path d="M433.271 438.811L429.832 438.811L429.833 441.758L433.272 441.758L433.271 438.811Z" fill="#D1DFEA"/>
<path d="M283.435 438.811L279.996 438.811L279.997 441.758L283.436 441.758L283.435 438.811Z" fill="#D1DFEA"/>
<rect width="88.4591" height="88.4591" transform="matrix(0.866372 0.499769 -0.866372 0.499769 356.633 397.547)" fill="#D1DFEA"/>
<rect width="88.4591" height="88.4591" transform="matrix(0.866372 0.499769 -0.866372 0.499769 356.633 394.602)" fill="url(#paint0_linear)"/>
</g>
<g filter="url(#filter1_d)">
<path d="M497.447 174.777L494.008 174.777L494.008 177.725L497.448 177.725L497.447 174.777Z" fill="#D1DFEA"/>
<path d="M347.611 174.777L344.172 174.777L344.172 177.725L347.612 177.725L347.611 174.777Z" fill="#D1DFEA"/>
<rect width="88.4591" height="88.4591" transform="matrix(0.866372 0.499769 -0.866372 0.499769 420.809 133.512)" fill="#D1DFEA"/>
<rect width="88.4591" height="88.4591" transform="matrix(0.866372 0.499769 -0.866372 0.499769 420.809 130.566)" fill="url(#paint1_linear)"/>
</g>
<path d="M352.591 287.953L344.961 287.953L344.962 294.493L352.592 294.493L352.591 287.953Z" fill="#DCE3F2"/>
<path d="M20.1576 287.953L12.5273 287.953L12.5284 294.493L20.1587 294.493L20.1576 287.953Z" fill="#DCE3F2"/>
<rect width="196.255" height="196.255" transform="matrix(0.866372 0.499769 -0.866372 0.499769 182.551 189.832)" fill="#DCE3F2"/>
<rect width="196.254" height="196.254" transform="matrix(0.866372 0.499769 -0.866372 0.499769 182.551 196.455)" fill="url(#paint2_linear)"/>
<rect width="204.894" height="12.5589" transform="matrix(0.866372 0.499769 -0.866372 0.499769 10.8789 287.102)" fill="white"/>
<rect width="204.894" height="12.5589" transform="matrix(-0.866372 0.499769 0.866372 0.499769 353.023 288.527)" fill="white"/>
<path d="M422.872 0C418.185 0 417.515 118.07 418.185 172.752C422.471 177.574 425.774 174.761 426.89 172.752C427.783 112.267 426.89 0 422.872 0Z" fill="#5DA676"/>
<path d="M387.379 39.5059C414.701 40.5772 425.996 66.066 426.219 79.0112C423.987 94.1884 420.192 91.7333 420.192 91.7333C421.8 64.4143 402.781 45.5321 387.379 39.5059Z" fill="url(#paint3_linear)"/>
<path d="M455.681 49.5495C427.287 43.6572 418.849 76.1096 418.18 93.0723C421.499 122.637 423.432 113.498 426.885 94.412C426.35 64.4147 445.859 52.0048 455.681 49.5495Z" fill="url(#paint4_linear)"/>
<path d="M386.039 76.3372C413.361 72.5875 424.656 99.3261 426.889 113.164C424.433 120.53 419.254 130.841 418.183 113.164C417.111 95.4869 396.307 81.2473 386.039 76.3372Z" fill="url(#paint5_linear)"/>
<path d="M455.686 84.3682C419.256 83.8325 415.506 127.445 418.185 149.318C422.426 155.567 426.89 165.388 426.89 129.231C426.89 101.191 444.748 89.0554 455.686 84.3682Z" fill="url(#paint6_linear)"/>
<path d="M395.414 115.17C417.379 112.492 423.763 131.017 424.21 140.614C424.21 147.756 423.272 157.755 419.522 140.614C415.772 123.473 401.887 116.509 395.414 115.17Z" fill="url(#paint7_linear)"/>
<path d="M418.18 156.688C419.251 109.55 443.85 104.907 455.681 108.478C432.109 108.478 426.662 140.618 426.885 156.688H418.18Z" fill="#5DA676"/>
<path d="M69.8688 95.3193L91.8203 106.005L44.9905 138.445L19.7463 122.034C19.7463 122.034 22.3073 118.603 24.5025 117.454C26.6976 116.306 61.0883 96.0831 61.0883 96.0831C62.932 94.9964 68.2913 94.5502 69.8688 95.3193Z" fill="url(#paint8_linear)"/>
<path d="M43.0039 134.969L20.2409 121.572C19.5717 122.669 18.7564 124.58 18.7564 126.875C18.7564 129.17 18.7564 161.876 18.7564 163.598C18.7564 165.319 19.5818 165.319 20.6932 166.054L43.0039 179.838L43.0039 134.969Z" fill="url(#paint9_linear)"/>
<rect width="60.162" height="49.9458" rx="7" transform="matrix(-0.866052 0.499954 2.20332e-08 1 94.168 103.32)" fill="url(#paint10_linear)"/>
<ellipse rx="10.1938" ry="10.1929" transform="matrix(-0.866052 0.499954 2.20332e-08 1 58.156 149.19)" fill="url(#paint11_linear)"/>
<ellipse rx="6.53935" ry="6.53875" transform="matrix(-0.866052 0.499954 2.20332e-08 1 55.6569 148.238)" fill="#323A40"/>
<ellipse rx="10.1938" ry="10.1929" transform="matrix(-0.866052 0.499954 2.20332e-08 1 81.945 135.598)" fill="url(#paint12_linear)"/>
<ellipse rx="6.53935" ry="6.53875" transform="matrix(-0.866052 0.499954 2.20332e-08 1 79.446 134.646)" fill="#323A40"/>
<ellipse rx="4.57755" ry="4.57713" transform="matrix(-0.866052 0.499954 2.20332e-08 1 78.8755 133.967)" fill="#435059"/>
<ellipse rx="1.96181" ry="1.96163" transform="matrix(-0.866052 0.499954 2.20332e-08 1 77.7463 133.442)" fill="#C9ECD7"/>
<ellipse rx="4.57755" ry="4.57713" transform="matrix(-0.866052 0.499954 2.20332e-08 1 55.0903 147.559)" fill="#435059"/>
<ellipse rx="1.96181" ry="1.96163" transform="matrix(-0.866052 0.499954 2.20332e-08 1 53.9611 147.036)" fill="#C9ECD7"/>
<path d="M347.644 270C345.033 288.291 348.733 389.765 350.909 438.216C356.132 444.748 360.703 440.938 362.336 438.216C363.641 333.693 353.086 282.521 347.644 270Z" fill="#91C9A4"/>
<path d="M393.347 320.631C354.172 325.857 347.643 365.271 349.275 384.324L354.172 407.188L362.334 389.224C353.193 352.641 379.2 328.252 393.347 320.631Z" fill="url(#paint13_linear)"/>
<path d="M360.704 403.915C355.48 362.106 328.058 354.92 315 356.553C345.034 369.618 350.366 393.571 349.278 403.915C355.263 421.335 365.927 445.724 360.704 403.915Z" fill="url(#paint14_linear)"/>
<path d="M350.902 421.881C348.29 365.7 386.268 359.821 403.135 364.72C369.183 362.107 360.695 412.081 362.327 433.312L350.902 421.881Z" fill="#91C9A4"/>
<path d="M80.9609 179.977L127.365 208.654" stroke="#EA525F" stroke-linecap="round" stroke-dasharray="5.5 5.5"/>
<path d="M90.8359 173.057L137.24 201.735" stroke="#FCD7A2" stroke-linecap="round" stroke-dasharray="5.5 5.5"/>
<path d="M102 167L148.404 195.678" stroke="#8DD6A2" stroke-linecap="round" stroke-dasharray="5.5 5.5"/>
<path d="M70 186L116.404 214.678" stroke="#518579" stroke-linecap="round" stroke-dasharray="5.5 5.5"/>
<path d="M233.008 369.846L301.133 411.379" stroke="#EA525F" stroke-linecap="round" stroke-dasharray="5.5 5.5"/>
<path d="M242.883 362.922L311.995 404.455" stroke="#FCD7A2" stroke-linecap="round" stroke-dasharray="5.5 5.5"/>
<path d="M256 357L325.112 398.534" stroke="#8DD6A2" stroke-linecap="round" stroke-dasharray="5.5 5.5"/>
<path d="M220 378L289.112 419.534" stroke="#518579" stroke-linecap="round" stroke-dasharray="5.5 5.5"/>
<path d="M380.121 206.678L311.996 248.211" stroke="#EA525F" stroke-linecap="round" stroke-dasharray="5.5 5.5"/>
<path d="M392.125 214L324 255.534" stroke="#8DD6A2" stroke-linecap="round" stroke-dasharray="5.5 5.5"/>
<path d="M358.125 194L290 235.534" stroke="#518579" stroke-linecap="round" stroke-dasharray="5.5 5.5"/>
<path d="M370.246 199.756L301.134 241.289" stroke="#FCD7A2" stroke-linecap="round" stroke-dasharray="5.5 5.5"/>
<path d="M122.932 264.558L122.715 264.459L122.932 264.558Z" fill="#6170A4"/>
<path d="M123.107 264.638L122.934 264.559L123.107 264.638Z" fill="#6170A4"/>
<path d="M120.695 269.564C119.291 269.135 117.923 268.595 116.605 267.947C117.925 268.592 119.292 269.132 120.695 269.564Z" fill="white"/>
<path d="M135.128 243.624C135.468 243.767 135.765 243.997 135.991 244.289C136.217 244.582 136.363 244.928 136.415 245.294C136.461 246.632 134.639 247.788 132.331 247.868C128.48 247.92 124.705 248.95 121.359 250.862C115.159 254.752 115.402 260.595 121.735 263.977C126.806 266.333 132.516 266.928 137.961 265.668C139.403 265.322 140.919 265.482 142.257 266.12C142.682 266.331 143.044 266.651 143.305 267.048C144.042 268.255 142.998 269.61 140.972 270.14L140.737 270.148C136.491 271.088 132.122 271.348 127.795 270.917C125.499 270.701 123.23 270.263 121.02 269.607L120.881 269.612L120.729 269.563C119.319 269.128 117.945 268.584 116.618 267.937L116.302 267.776L116.161 267.706L115.986 267.605C106.307 262.452 105.958 253.536 115.184 247.72L115.289 247.652C120.432 244.703 126.238 243.108 132.164 243.019L132.496 243.008C133.408 243.008 134.309 243.219 135.128 243.624Z" fill="url(#paint15_linear)"/>
<path d="M150.254 266.434C147.385 268.18 144.246 269.437 140.966 270.152C142.991 269.621 144.036 268.267 143.299 267.06C143.038 266.663 142.676 266.342 142.25 266.131C140.912 265.493 139.396 265.333 137.955 265.679C133.241 266.763 128.317 266.491 123.75 264.894C130.048 267.26 138.79 266.636 144.183 263.214C150.237 259.404 150.004 253.56 143.671 250.189C137.578 246.937 128.04 247.138 121.93 250.531C125.141 248.849 128.701 247.941 132.324 247.879C134.633 247.8 136.466 246.665 136.409 245.306C136.359 244.939 136.215 244.591 135.991 244.296C135.768 244.002 135.471 243.77 135.131 243.624C134.306 243.216 133.398 243.006 132.478 243.008C138.342 242.744 144.178 243.958 149.452 246.538C159.132 251.713 159.492 260.628 150.254 266.434Z" fill="white"/>
<path d="M167.793 237.998C168.038 238.139 168.292 238.288 168.545 238.42C170.869 239.6 173.392 240.337 175.984 240.595C173.398 240.341 170.882 239.609 168.562 238.436C168.332 238.262 168.038 238.147 167.793 237.998Z" fill="white"/>
<path d="M196.917 237.451C198.546 238.324 198.655 239.814 197.149 240.82L197.052 240.881C196.717 241.092 196.376 241.295 196.029 241.489C194.844 242.156 193.609 242.731 192.336 243.209L192.213 243.255L191.396 243.566L191.255 243.57L191.116 243.617L190.992 243.621L190.852 243.667L190.712 243.672L190.588 243.676C185.242 245.295 179.624 245.813 174.073 245.2C170.269 244.823 166.563 243.765 163.131 242.077L162.819 241.913C157.689 239.178 155.019 235.254 155.344 231.219C155.426 230.242 155.673 229.285 156.075 228.39C156.106 228.317 156.143 228.246 156.184 228.179C156.889 226.993 159.042 226.263 161.155 226.53C161.8 226.603 162.427 226.792 163.005 227.089C164.06 227.65 164.554 228.529 164.17 229.422C163.843 230.149 163.672 230.938 163.67 231.737C163.682 234.01 165.141 236.2 167.815 237.85C168.06 237.999 168.322 238.139 168.584 238.288C170.903 239.46 173.42 240.192 176.005 240.446C181.21 241.013 186.827 240.073 190.819 237.645L191.046 237.504C191.953 237.037 192.956 236.788 193.976 236.779C194.995 236.77 196.003 237 196.917 237.451Z" fill="url(#paint16_linear)"/>
<path d="M202.175 226.057C205.574 231.184 203.31 236.887 197.15 240.816C198.639 239.811 198.547 238.321 196.918 237.448C195.987 237.013 194.966 236.805 193.94 236.841C192.913 236.876 191.91 237.154 191.01 237.651L190.783 237.792C195.035 235.214 196.643 231.384 194.363 227.945C193.368 226.545 192.043 225.413 190.505 224.651C186.21 222.36 179.79 221.611 173.883 223.043C167.681 224.543 163.808 228.02 163.661 231.692C163.689 230.97 163.856 230.26 164.152 229.601C164.536 228.708 164.042 227.829 162.987 227.268C162.409 226.971 161.782 226.782 161.137 226.71C159.024 226.443 156.87 227.172 156.166 228.358C158.141 224.142 163.406 220.418 170.914 218.607C179.951 216.42 189.732 217.568 196.288 221.05C198.628 222.214 200.649 223.933 202.175 226.057Z" fill="white"/>
<path d="M155.327 231.367C155.179 233.373 155.731 235.369 156.888 237.013C158.407 239.151 160.43 240.879 162.776 242.045L163.114 242.224L162.802 242.061C157.671 239.326 154.985 235.403 155.327 231.367Z" fill="white"/>
<path d="M174.056 245.348C178.753 245.884 183.509 245.596 188.108 244.498C188.774 244.342 189.422 244.162 190.045 243.975C184.858 245.487 179.424 245.953 174.056 245.348Z" fill="white"/>
<path d="M73.4688 292.305C73.7138 292.446 73.9675 292.594 74.2206 292.727C76.5448 293.906 79.0673 294.644 81.6601 294.901C79.0741 294.647 76.5574 293.915 74.2377 292.743C74.008 292.568 73.7141 292.454 73.4688 292.305Z" fill="white"/>
<path d="M102.593 291.758C104.222 292.631 104.331 294.12 102.825 295.127L102.728 295.188C102.393 295.399 102.052 295.601 101.705 295.796C100.519 296.463 99.2847 297.038 98.0117 297.516L97.889 297.562L97.0713 297.872L96.9307 297.877L96.7915 297.923L96.6673 297.928L96.5281 297.974L96.3874 297.979L96.2634 297.983C90.9176 299.602 85.3001 300.12 79.749 299.507C75.9445 299.129 72.2384 298.071 68.8069 296.383L68.4948 296.22C63.3644 293.485 60.6947 289.561 61.0198 285.526C61.1018 284.548 61.349 283.591 61.7509 282.697C61.782 282.624 61.8184 282.553 61.8596 282.485C62.5643 281.3 64.7178 280.57 66.8309 280.837C67.4763 280.909 68.1031 281.098 68.6808 281.396C69.7355 281.956 70.2296 282.835 69.8461 283.728C69.5183 284.456 69.3478 285.245 69.3459 286.044C69.3578 288.316 70.8164 290.506 73.4907 292.156C73.7361 292.305 73.9977 292.446 74.2596 292.594C76.5791 293.767 79.0954 294.499 81.6812 294.753C86.8861 295.32 92.503 294.379 96.4949 291.952L96.7221 291.811C97.6285 291.343 98.6317 291.095 99.6513 291.085C100.671 291.076 101.678 291.307 102.593 291.758Z" fill="url(#paint17_linear)"/>
<path d="M107.847 280.364C111.246 285.49 108.982 291.194 102.821 295.123C104.311 294.117 104.218 292.627 102.59 291.754C101.659 291.32 100.638 291.112 99.6116 291.148C98.5851 291.183 97.5815 291.461 96.6824 291.958L96.4552 292.099C100.707 289.521 102.315 285.691 100.035 282.251C99.04 280.852 97.7148 279.72 96.1773 278.958C91.8823 276.667 85.4617 275.918 79.5552 277.349C73.3528 278.849 69.4798 282.327 69.3327 285.999C69.3606 285.277 69.5274 284.567 69.8241 283.908C70.2075 283.015 69.7134 282.136 68.6587 281.575C68.0811 281.278 67.4542 281.089 66.8089 281.017C64.6957 280.749 62.5423 281.479 61.8375 282.665C63.8131 278.448 69.0775 274.724 76.5863 272.914C85.6228 270.727 95.4036 271.874 101.96 275.357C104.3 276.521 106.321 278.239 107.847 280.364Z" fill="white"/>
<path d="M61.0026 285.674C60.8548 287.68 61.4064 289.675 62.5635 291.32C64.0826 293.457 66.1054 295.186 68.4521 296.352L68.7897 296.531L68.4775 296.367C63.3471 293.632 60.661 289.709 61.0026 285.674Z" fill="white"/>
<path d="M79.7313 299.654C84.4293 300.19 89.1845 299.903 93.7839 298.804C94.4495 298.649 95.0977 298.469 95.7208 298.281C90.534 299.793 85.0994 300.26 79.7313 299.654Z" fill="white"/>
<path d="M201.065 271.22C210.219 260.451 190.544 265.592 179.562 269.509L268.536 320.961C295.524 301.338 281.754 299.931 271.495 301.681C262.026 304.419 246.677 306.632 261.039 293.581C275.402 280.529 259.658 283.883 249.992 287.192C226.449 295.254 210.835 291.014 232.433 277.039C274.888 249.567 247.23 259.051 228.093 267.227C215.27 273.046 191.911 281.99 201.065 271.22Z" fill="url(#paint18_linear)"/>
<path d="M234.031 238.364C234.031 238.168 233.757 238.01 233.419 238.01L227.909 238.01C227.571 238.01 227.297 238.168 227.297 238.364C227.297 238.559 227.571 238.718 227.909 238.718L232.806 238.718L232.806 241.55C232.806 241.745 233.081 241.904 233.419 241.904C233.757 241.904 234.031 241.745 234.031 241.55L234.031 238.364ZM180.191 269.645L233.851 238.614L232.986 238.114L179.325 269.144L180.191 269.645Z" fill="#9BA9B3"/>
<path d="M271.297 322.683C271.635 322.683 271.909 322.525 271.909 322.329L271.909 319.143C271.909 318.948 271.635 318.789 271.297 318.789C270.959 318.789 270.685 318.948 270.685 319.143L270.685 321.975L265.788 321.975C265.45 321.975 265.176 322.134 265.176 322.329C265.176 322.525 265.45 322.683 265.788 322.683L271.297 322.683ZM179.325 269.645L270.864 322.579L271.73 322.079L180.191 269.144L179.325 269.645Z" fill="#9BA9B3"/>
<path d="M205.014 254.792L212.51 263.691L245.259 260.268L260.253 264.375L255.912 290.615L305.628 284.226L276.824 310.465" stroke="#B6D8C0"/>
<circle r="1.82333" transform="matrix(0.865679 0.500599 -0.865679 0.500599 205.008 254.79)" fill="#B6D8C0"/>
<circle r="1.82333" transform="matrix(0.865679 0.500599 -0.865679 0.500599 212.5 263.689)" fill="#B6D8C0"/>
<circle r="1.82333" transform="matrix(0.865679 0.500599 -0.865679 0.500599 245.254 260.267)" fill="#EA525F"/>
<circle r="1.82333" transform="matrix(0.865679 0.500599 -0.865679 0.500599 276.816 310.464)" fill="#B6D8C0"/>
<circle r="1.82333" transform="matrix(0.865679 0.500599 -0.865679 0.500599 305.621 284.226)" fill="#B6D8C0"/>
<circle r="1.82333" transform="matrix(0.865679 0.500599 -0.865679 0.500599 255.906 290.613)" fill="#EA525F"/>
<circle r="1.82333" transform="matrix(0.865679 0.500599 -0.865679 0.500599 260.246 264.374)" fill="#B6D8C0"/>
<rect width="18.4057" height="69.4995" transform="matrix(0.865679 0.500599 -0.865679 0.500599 162.621 279.969)" fill="#B6D8C0"/>
<rect width="18.4022" height="43.0528" transform="matrix(0.865679 0.500599 -0.865679 0.500599 155.543 302.463)" fill="#FCD7A2"/>
<rect width="17.0382" height="28.2918" transform="matrix(0.865679 0.500599 -0.865679 0.500599 158.531 319.135)" fill="#EA525F"/>
<line x1="1" y1="-1" x2="23.8063" y2="-1" transform="matrix(0.865679 0.500599 -0.865679 0.500599 198.762 324.43)" stroke="#9BA9B2" stroke-width="2" stroke-linecap="round"/>
<line x1="1" y1="-1" x2="23.8063" y2="-1" transform="matrix(0.865679 0.500599 -0.865679 0.500599 158.234 347.861)" stroke="#9BA9B2" stroke-width="2" stroke-linecap="round"/>
<line x1="1" y1="-1" x2="19.6719" y2="-1" transform="matrix(0.865679 0.500599 -0.865679 0.500599 193.688 327.361)" stroke="#9BA9B2" stroke-width="2" stroke-linecap="round"/>
<line x1="1" y1="-1" x2="19.6719" y2="-1" transform="matrix(0.865679 0.500599 -0.865679 0.500599 178.5 336.146)" stroke="#9BA9B2" stroke-width="2" stroke-linecap="round"/>
<line x1="1" y1="-1" x2="40.3458" y2="-1" transform="matrix(0.865679 0.500599 -0.865679 0.500599 188.371 330.432)" stroke="#9BA9B2" stroke-width="2" stroke-linecap="round"/>
<line x1="1" y1="-1" x2="30.0078" y2="-1" transform="matrix(0.865679 0.500599 -0.865679 0.500599 183.562 333.221)" stroke="#9BA9B2" stroke-width="2" stroke-linecap="round"/>
<line x1="1" y1="-1" x2="30.0078" y2="-1" transform="matrix(0.865679 0.500599 -0.865679 0.500599 173.438 339.078)" stroke="#9BA9B2" stroke-width="2" stroke-linecap="round"/>
<line x1="1" y1="-1" x2="36.2094" y2="-1" transform="matrix(0.865679 0.500599 -0.865679 0.500599 168.367 342.006)" stroke="#9BA9B2" stroke-width="2" stroke-linecap="round"/>
<line x1="1" y1="-1" x2="19.6719" y2="-1" transform="matrix(0.865679 0.500599 -0.865679 0.500599 214.145 315.604)" stroke="#9BA9B2" stroke-width="2" stroke-linecap="round"/>
<line x1="1" y1="-1" x2="30.0078" y2="-1" transform="matrix(0.865679 0.500599 -0.865679 0.500599 209.078 318.535)" stroke="#9BA9B2" stroke-width="2" stroke-linecap="round"/>
<line x1="1" y1="-1" x2="36.2094" y2="-1" transform="matrix(0.865679 0.500599 -0.865679 0.500599 204.012 321.463)" stroke="#9BA9B2" stroke-width="2" stroke-linecap="round"/>
<line x1="1" y1="-1" x2="34.1422" y2="-1" transform="matrix(0.865679 0.500599 -0.865679 0.500599 163.301 344.936)" stroke="#9BA9B2" stroke-width="2" stroke-linecap="round"/>
<defs>
<filter id="filter0_d" x="239.996" y="366.602" width="233.277" height="171.364" filterUnits="userSpaceOnUse" color-interpolation-filters="sRGB">
<feFlood flood-opacity="0" result="BackgroundImageFix"/>
<feColorMatrix in="SourceAlpha" type="matrix" values="0 0 0 0 0 0 0 0 0 0 0 0 0 0 0 0 0 0 127 0"/>
<feOffset dy="12"/>
<feGaussianBlur stdDeviation="20"/>
<feColorMatrix type="matrix" values="0 0 0 0 0.339427 0 0 0 0 0.423456 0 0 0 0 0.554167 0 0 0 0.1 0"/>
<feBlend mode="normal" in2="BackgroundImageFix" result="effect1_dropShadow"/>
<feBlend mode="normal" in="SourceGraphic" in2="effect1_dropShadow" result="shape"/>
</filter>
<filter id="filter1_d" x="304.172" y="102.566" width="233.277" height="171.364" filterUnits="userSpaceOnUse" color-interpolation-filters="sRGB">
<feFlood flood-opacity="0" result="BackgroundImageFix"/>
<feColorMatrix in="SourceAlpha" type="matrix" values="0 0 0 0 0 0 0 0 0 0 0 0 0 0 0 0 0 0 127 0"/>
<feOffset dy="12"/>
<feGaussianBlur stdDeviation="20"/>
<feColorMatrix type="matrix" values="0 0 0 0 0.339427 0 0 0 0 0.423456 0 0 0 0 0.554167 0 0 0 0.1 0"/>
<feBlend mode="normal" in2="BackgroundImageFix" result="effect1_dropShadow"/>
<feBlend mode="normal" in="SourceGraphic" in2="effect1_dropShadow" result="shape"/>
</filter>
<linearGradient id="paint0_linear" x1="44.2296" y1="0" x2="44.2296" y2="88.4591" gradientUnits="userSpaceOnUse">
<stop stop-color="#F1F0FF"/>
<stop offset="1" stop-color="white"/>
</linearGradient>
<linearGradient id="paint1_linear" x1="44.2296" y1="0" x2="44.2296" y2="88.4591" gradientUnits="userSpaceOnUse">
<stop stop-color="#F1F0FF"/>
<stop offset="1" stop-color="white"/>
</linearGradient>
<linearGradient id="paint2_linear" x1="-0.339536" y1="0.193778" x2="186.635" y2="-0.495474" gradientUnits="userSpaceOnUse">
<stop stop-color="#EDF1F8"/>
<stop offset="1" stop-color="#E5EAF2"/>
</linearGradient>
<linearGradient id="paint3_linear" x1="402.112" y1="46.8713" x2="424.207" y2="82.3616" gradientUnits="userSpaceOnUse">
<stop stop-color="#5DA676"/>
<stop offset="1" stop-color="#1E6D39"/>
</linearGradient>
<linearGradient id="paint4_linear" x1="432.404" y1="57.7398" x2="461.238" y2="94.7636" gradientUnits="userSpaceOnUse">
<stop stop-color="#5DA676"/>
<stop offset="1" stop-color="#1E6D39"/>
</linearGradient>
<linearGradient id="paint5_linear" x1="401.534" y1="82.5823" x2="419.809" y2="117.026" gradientUnits="userSpaceOnUse">
<stop stop-color="#5DA676"/>
<stop offset="1" stop-color="#1E6D39"/>
</linearGradient>
<linearGradient id="paint6_linear" x1="431.984" y1="94.3563" x2="465.01" y2="132.797" gradientUnits="userSpaceOnUse">
<stop stop-color="#5DA676"/>
<stop offset="1" stop-color="#1E6D39"/>
</linearGradient>
<linearGradient id="paint7_linear" x1="406.337" y1="119.854" x2="420.486" y2="144.945" gradientUnits="userSpaceOnUse">
<stop stop-color="#5DA676"/>
<stop offset="1" stop-color="#1E6D39"/>
</linearGradient>
<linearGradient id="paint8_linear" x1="56.2371" y1="92.3226" x2="56.2371" y2="137.674" gradientUnits="userSpaceOnUse">
<stop stop-color="#D6EED7"/>
<stop offset="1" stop-color="#89CA9C"/>
</linearGradient>
<linearGradient id="paint9_linear" x1="31.6012" y1="126.68" x2="11.3794" y2="161.709" gradientUnits="userSpaceOnUse">
<stop stop-color="#B6D8C0"/>
<stop offset="1" stop-color="#52BC71"/>
</linearGradient>
<linearGradient id="paint10_linear" x1="30.081" y1="-1.60768e-06" x2="50.0582" y2="39.9581" gradientUnits="userSpaceOnUse">
<stop stop-color="#AAD5B6"/>
<stop offset="1" stop-color="#8EDEA6"/>
</linearGradient>
<linearGradient id="paint11_linear" x1="10.1938" y1="0" x2="10.1938" y2="20.3858" gradientUnits="userSpaceOnUse">
<stop stop-color="#B6D8C0"/>
<stop offset="1" stop-color="#64AE7A"/>
</linearGradient>
<linearGradient id="paint12_linear" x1="10.1938" y1="0" x2="10.1938" y2="20.3858" gradientUnits="userSpaceOnUse">
<stop stop-color="#B6D8C0"/>
<stop offset="1" stop-color="#64AE7A"/>
</linearGradient>
<linearGradient id="paint13_linear" x1="365.853" y1="332.804" x2="406.332" y2="377.671" gradientUnits="userSpaceOnUse">
<stop stop-color="#5DA676"/>
<stop offset="1" stop-color="#43975F"/>
</linearGradient>
<linearGradient id="paint14_linear" x1="332.866" y1="366.28" x2="363.962" y2="411.18" gradientUnits="userSpaceOnUse">
<stop stop-color="#5DA676"/>
<stop offset="1" stop-color="#43975F"/>
</linearGradient>
<linearGradient id="paint15_linear" x1="97.409" y1="220.265" x2="171.527" y2="315.982" gradientUnits="userSpaceOnUse">
<stop offset="0.35" stop-color="#DE566A"/>
<stop offset="0.55" stop-color="#EA7767"/>
<stop offset="0.82" stop-color="#FFE4BD"/>
</linearGradient>
<linearGradient id="paint16_linear" x1="155.455" y1="236.608" x2="198.072" y2="235.143" gradientUnits="userSpaceOnUse">
<stop stop-color="#FD9E6A"/>
<stop offset="1" stop-color="#FCD7A2"/>
</linearGradient>
<linearGradient id="paint17_linear" x1="63.516" y1="285.405" x2="102.026" y2="292.799" gradientUnits="userSpaceOnUse">
<stop stop-color="#8DD6A2"/>
<stop offset="1" stop-color="#BAEFCA"/>
</linearGradient>
<linearGradient id="paint18_linear" x1="270.597" y1="268.318" x2="247.267" y2="308.661" gradientUnits="userSpaceOnUse">
<stop stop-color="#BDE4F6"/>
<stop offset="1" stop-color="#D0D4EE"/>
</linearGradient>
</defs>
</svg>
