<svg width="501" height="547" viewBox="0 0 501 547" fill="none" xmlns="http://www.w3.org/2000/svg">
<g filter="url(#filter0_d)">
<path d="M418.405 380.795L410.096 380.795L410.098 387.916L418.406 387.916L418.405 380.795Z" fill="#D1DFEA"/>
<path d="M56.3847 380.793L48.076 380.793L48.0771 387.915L56.3858 387.915L56.3847 380.793Z" fill="#D1DFEA"/>
<rect width="213.731" height="213.731" transform="matrix(0.866346 0.499815 -0.866346 0.499815 233.242 281.091)" fill="#D1DFEA"/>
<rect width="213.731" height="213.731" transform="matrix(0.866346 0.499815 -0.866346 0.499815 233.243 273.967)" fill="url(#paint0_linear)"/>
<line y1="-0.5" x2="213.652" y2="-0.5" transform="matrix(0.866025 0.5 -0.866025 0.5 171.428 309.577)" stroke="#DCE3F2"/>
<line y1="-0.5" x2="213.652" y2="-0.5" transform="matrix(0.866025 0.5 -0.866025 0.5 109.75 345.185)" stroke="#DCE3F2"/>
<line y1="-0.5" x2="213.652" y2="-0.5" transform="matrix(0.866025 -0.5 0.866025 0.5 109.75 416.404)" stroke="#DCE3F2"/>
<line y1="-0.5" x2="213.652" y2="-0.5" transform="matrix(0.866025 -0.5 0.866025 0.5 171.428 452.012)" stroke="#DCE3F2"/>
</g>
<rect x="-1.19209e-07" y="2" width="73.7772" height="73.7772" transform="matrix(0.866025 0.5 -0.866025 0.5 233.654 342)" stroke="#EA525F" stroke-width="4"/>
<path d="M229.399 389.958C228.373 397.143 229.827 437.007 230.682 456.04C232.735 458.606 234.532 457.109 235.174 456.04C235.687 414.979 231.538 394.876 229.399 389.958Z" fill="#5DA676"/>
<path d="M247.359 409.846C231.962 411.899 229.395 427.383 230.037 434.868L231.962 443.85L235.17 436.793C231.577 422.421 241.799 412.84 247.359 409.846Z" fill="url(#paint1_linear)"/>
<path d="M234.53 442.565C232.477 426.14 221.698 423.317 216.566 423.959C228.371 429.091 230.466 438.501 230.039 442.565C232.391 449.408 236.583 458.989 234.53 442.565Z" fill="url(#paint2_linear)"/>
<path d="M230.682 449.624C229.656 427.553 244.584 425.243 251.213 427.168C237.868 426.142 234.532 445.774 235.173 454.114L230.682 449.624Z" fill="#5DA676"/>
<path d="M168.067 351.883C167.041 359.068 168.495 398.932 169.35 417.965C171.403 420.532 173.2 419.035 173.842 417.965C174.355 376.904 170.206 356.802 168.067 351.883Z" fill="#5DA676"/>
<path d="M186.027 371.772C170.63 373.825 168.063 389.308 168.705 396.793L170.63 405.775L173.837 398.718C170.245 384.347 180.467 374.766 186.027 371.772Z" fill="url(#paint3_linear)"/>
<path d="M173.198 404.49C171.145 388.066 160.366 385.243 155.234 385.884C167.039 391.017 169.134 400.427 168.707 404.49C171.059 411.334 175.251 420.914 173.198 404.49Z" fill="url(#paint4_linear)"/>
<path d="M169.35 411.549C168.324 389.479 183.252 387.169 189.881 389.094C176.536 388.067 173.2 407.699 173.841 416.04L169.35 411.549Z" fill="#5DA676"/>
<path d="M106.255 315.825C105.228 323.01 106.682 362.874 107.538 381.907C109.591 384.474 111.387 382.977 112.029 381.907C112.542 340.846 108.393 320.743 106.255 315.825Z" fill="#5DA676"/>
<path d="M124.215 335.714C108.817 337.767 106.251 353.25 106.892 360.735L108.817 369.717L112.025 362.66C108.432 348.288 118.655 338.708 124.215 335.714Z" fill="url(#paint5_linear)"/>
<path d="M111.385 368.432C109.332 352.008 98.5537 349.185 93.4211 349.826C105.226 354.958 107.322 364.368 106.894 368.432C109.247 375.275 113.438 384.856 111.385 368.432Z" fill="url(#paint6_linear)"/>
<path d="M107.538 375.491C106.511 353.42 121.439 351.111 128.069 353.035C114.724 352.009 111.387 371.641 112.029 379.982L107.538 375.491Z" fill="#5DA676"/>
<path d="M168.067 281.056C167.041 288.242 168.495 328.105 169.35 347.139C171.403 349.705 173.2 348.208 173.842 347.139C174.355 306.078 170.206 285.975 168.067 281.056Z" fill="#5DA676"/>
<path d="M186.027 300.945C170.63 302.998 168.063 318.481 168.705 325.967L170.63 334.949L173.837 327.891C170.245 313.52 180.467 303.939 186.027 300.945Z" fill="url(#paint7_linear)"/>
<path d="M173.198 333.663C171.145 317.239 160.366 314.416 155.234 315.058C167.039 320.19 169.134 329.6 168.707 333.663C171.059 340.507 175.251 350.088 173.198 333.663Z" fill="url(#paint8_linear)"/>
<path d="M169.35 340.722C168.324 318.652 183.252 316.342 189.881 318.267C176.536 317.241 173.2 336.873 173.841 345.213L169.35 340.722Z" fill="#5DA676"/>
<path d="M229.876 245C228.849 252.186 230.303 292.049 231.159 311.083C233.212 313.649 235.008 312.152 235.65 311.083C236.163 270.022 232.014 249.919 229.876 245Z" fill="#5DA676"/>
<path d="M247.836 264.889C232.438 266.942 229.872 282.425 230.513 289.91L232.438 298.892L235.646 291.835C232.053 277.464 242.276 267.883 247.836 264.889Z" fill="url(#paint9_linear)"/>
<path d="M235.006 297.607C232.953 281.183 222.175 278.36 217.042 279.001C228.847 284.134 230.943 293.544 230.515 297.607C232.868 304.451 237.059 314.032 235.006 297.607Z" fill="url(#paint10_linear)"/>
<path d="M231.159 304.666C230.132 282.596 245.06 280.286 251.69 282.211C238.345 281.184 235.008 300.816 235.65 309.157L231.159 304.666Z" fill="#5DA676"/>
<path d="M229.876 315.825C228.849 323.01 230.303 362.874 231.159 381.907C233.212 384.474 235.008 382.977 235.65 381.907C236.163 340.846 232.014 320.743 229.876 315.825Z" fill="#5DA676"/>
<path d="M247.836 335.714C232.438 337.767 229.872 353.25 230.513 360.735L232.438 369.717L235.646 362.66C232.053 348.288 242.276 338.708 247.836 335.714Z" fill="url(#paint11_linear)"/>
<path d="M235.006 368.432C232.953 352.008 222.175 349.185 217.042 349.826C228.847 354.958 230.943 364.368 230.515 368.432C232.868 375.275 237.059 384.856 235.006 368.432Z" fill="url(#paint12_linear)"/>
<path d="M231.159 375.491C230.132 353.42 245.06 351.111 251.69 353.035C238.345 352.009 235.008 371.641 235.65 379.982L231.159 375.491Z" fill="#5DA676"/>
<path d="M294.266 278.48C293.24 285.666 294.694 325.53 295.549 344.563C297.602 347.129 299.399 345.632 300.041 344.563C300.554 303.502 296.405 283.399 294.266 278.48Z" fill="#5DA676"/>
<path d="M312.227 298.369C296.829 300.422 294.262 315.906 294.904 323.391L296.829 332.373L300.037 325.316C296.444 310.944 306.666 301.363 312.227 298.369Z" fill="url(#paint13_linear)"/>
<path d="M299.397 331.088C297.344 314.663 286.565 311.84 281.433 312.482C293.238 317.614 295.334 327.024 294.906 331.088C297.258 337.931 301.45 347.512 299.397 331.088Z" fill="url(#paint14_linear)"/>
<path d="M295.55 338.147C294.523 316.076 309.451 313.766 316.08 315.691C302.735 314.665 299.399 334.297 300.041 342.637L295.55 338.147Z" fill="#5DA676"/>
<path d="M295.548 349.307C294.521 356.493 295.975 396.356 296.831 415.39C298.884 417.956 300.68 416.459 301.322 415.39C301.835 374.329 297.686 354.226 295.548 349.307Z" fill="#5DA676"/>
<path d="M313.508 369.196C298.11 371.249 295.544 386.732 296.185 394.218L298.11 403.2L301.318 396.142C297.725 381.771 307.948 372.19 313.508 369.196Z" fill="url(#paint15_linear)"/>
<path d="M300.678 401.914C298.625 385.49 287.847 382.667 282.714 383.309C294.519 388.441 296.615 397.851 296.187 401.914C298.54 408.758 302.731 418.339 300.678 401.914Z" fill="url(#paint16_linear)"/>
<path d="M296.831 408.973C295.804 386.903 310.732 384.593 317.362 386.518C304.017 385.492 300.68 405.123 301.322 413.464L296.831 408.973Z" fill="#5DA676"/>
<path d="M352.216 315.825C351.189 323.01 352.643 362.874 353.499 381.907C355.552 384.474 357.348 382.977 357.99 381.907C358.503 340.846 354.354 320.743 352.216 315.825Z" fill="#5DA676"/>
<path d="M370.176 335.714C354.778 337.767 352.212 353.25 352.853 360.735L354.778 369.717L357.986 362.66C354.393 348.288 364.616 338.708 370.176 335.714Z" fill="url(#paint17_linear)"/>
<path d="M357.346 368.432C355.293 352.008 344.515 349.185 339.382 349.826C351.187 354.958 353.283 364.368 352.855 368.432C355.208 375.275 359.399 384.856 357.346 368.432Z" fill="url(#paint18_linear)"/>
<path d="M353.499 375.491C352.472 353.42 367.4 351.111 374.03 353.035C360.685 352.009 357.348 371.641 357.99 379.982L353.499 375.491Z" fill="#5DA676"/>
<path d="M21.0039 79.7551L11.2532 73.7547L29.6296 71.5045L21.0039 79.7551Z" fill="#CDDFF4"/>
<path d="M62.2571 12.25L73.5079 19.0004L54.0065 21.2506L62.2571 12.25Z" fill="#CDDFF4"/>
<path d="M13.3968 44.602C-4.81898 68.5545 14.0724 80.2697 24.4201 75.148L67.8676 54.894C89.2469 43.601 74.4601 22.2081 65.4252 24.755C69.807 7.31398 53.1075 10.3088 49.5709 17.9849C33.0143 -1.26044 6.96866 28.4742 13.3968 44.602Z" fill="#CDDFF4"/>
<path d="M22.9663 50.3396C4.7506 74.2921 23.642 86.0073 33.9897 80.8855L77.4371 60.6316C98.8164 49.3385 84.0297 27.9456 74.9948 30.4926C79.3766 13.0515 62.6771 16.0463 59.1405 23.7225C42.5838 4.47711 16.5382 34.2118 22.9663 50.3396Z" fill="#E6F5FF"/>
<path d="M125.827 107.2L132.851 111.236C132.706 111.152 132.578 111.042 132.474 110.911L125.451 106.823C125.541 106.98 125.671 107.109 125.827 107.2Z" fill="#D6B700"/>
<path d="M132.474 110.946L125.451 106.858C125.546 107.002 125.675 107.12 125.828 107.2L132.851 111.237C132.707 111.153 132.579 111.043 132.474 110.912V110.946Z" fill="#D6B700"/>
<path d="M126.171 103.385L119.147 99.2975L125.451 106.858L132.475 110.945L126.171 103.385Z" fill="#F77D5C"/>
<path d="M130.642 96.6464L123.619 92.5757C123.286 92.4224 122.919 92.3607 122.554 92.3967C122.19 92.4328 121.842 92.5654 121.546 92.7809L128.586 96.8517C128.879 96.6361 129.224 96.5032 129.586 96.4671C129.948 96.4309 130.313 96.4929 130.642 96.6464Z" fill="#F77D5C"/>
<path d="M130.642 96.6464L123.619 92.5757C123.286 92.4224 122.919 92.3607 122.554 92.3967C122.19 92.4328 121.842 92.5654 121.546 92.7809L128.586 96.8517C128.879 96.6361 129.224 96.5032 129.586 96.4671C129.948 96.4309 130.313 96.4929 130.642 96.6464Z" fill="#F77D5C"/>
<path d="M128.588 96.8518L121.547 92.781C120.921 93.1205 120.368 93.5796 119.92 94.1322C118.584 95.8426 118.207 98.1859 119.063 99.2635L126.104 103.351C125.23 102.291 125.624 100.016 126.961 98.2201C127.401 97.6557 127.956 97.1896 128.588 96.8518Z" fill="#F77D5C"/>
<path d="M128.588 96.8518L121.547 92.781C121.071 93.0584 120.648 93.4174 120.297 93.8415L127.32 97.9122C127.686 97.4962 128.114 97.1386 128.588 96.8518Z" fill="#F77D5C"/>
<path d="M127.32 97.9127L120.297 93.8419L119.92 94.1327C119.6 94.5627 119.33 95.0275 119.115 95.5181L126.138 99.5889C126.359 99.0978 126.635 98.6331 126.96 98.2035L127.252 97.8443L127.32 97.9127Z" fill="#F77D5C"/>
<path d="M126.206 99.6573L119.183 95.5865C118.863 96.153 118.695 96.7922 118.695 97.4424C118.695 98.0925 118.863 98.7317 119.183 99.2981L126.223 103.386C125.904 102.816 125.736 102.175 125.736 101.522C125.736 100.869 125.904 100.227 126.223 99.6573H126.206Z" fill="#F77D5C"/>
<path d="M128.587 96.8517C127.974 97.2121 127.444 97.6955 127.028 98.2713C125.692 99.9817 125.315 102.325 126.171 103.403L132.475 110.963C132.797 111.281 133.225 111.47 133.677 111.492C134.129 111.514 134.574 111.368 134.925 111.082C135.524 110.71 136.047 110.229 136.467 109.663C137.82 107.952 138.18 105.609 137.323 104.531L131.036 96.9714C130.713 96.6562 130.286 96.4701 129.834 96.448C129.383 96.426 128.939 96.5695 128.587 96.8517Z" fill="#F4AA85"/>
<path d="M156.114 67.672L149.039 63.6012C148.791 63.4471 148.508 63.3588 148.217 63.3446L155.24 67.4154C155.549 67.4206 155.851 67.5093 156.114 67.672Z" fill="#D6B700"/>
<path d="M156.114 67.672L149.039 63.6012C148.791 63.4471 148.508 63.3588 148.217 63.3446L155.24 67.4154C155.543 67.3998 155.844 67.4647 156.114 67.6035V67.672Z" fill="#D6B700"/>
<path d="M155.242 67.484L148.218 63.4132L137.666 63.9605L144.689 68.0484L155.242 67.484Z" fill="#F77D5C"/>
<path d="M144.689 68.0482L137.666 63.9603C137.24 63.9892 136.827 64.1244 136.467 64.3537L143.49 68.4758C143.851 68.2407 144.261 68.0942 144.689 68.0482Z" fill="#F77D5C"/>
<path d="M144.689 68.0482L137.666 63.9603C137.24 63.9892 136.827 64.1244 136.467 64.3537L143.49 68.4758C143.855 68.2588 144.266 68.1299 144.689 68.0995V68.0482Z" fill="#F77D5C"/>
<path d="M134.428 71.2128L141.452 75.3178C140.612 74.8389 140.355 73.6074 140.869 71.897C141.318 70.4872 142.245 69.2776 143.49 68.4762L136.467 64.4054C135.213 65.2017 134.279 66.4124 133.829 67.8262C133.315 69.4169 133.623 70.7339 134.428 71.2128Z" fill="#F77D5C"/>
<path d="M143.49 68.4762L136.467 64.4054C135.99 64.6882 135.562 65.0464 135.199 65.4659L142.188 69.5024C142.551 69.0783 142.979 68.7146 143.456 68.4249L143.49 68.4762Z" fill="#F77D5C"/>
<path d="M142.188 69.5024L135.165 65.4146C134.71 65.9259 134.335 66.5025 134.052 67.125L141.075 71.2128C141.358 70.5903 141.734 70.0138 142.188 69.5024Z" fill="#F77D5C"/>
<path d="M141.108 71.2471L134.085 67.1592C133.984 67.3755 133.899 67.5984 133.828 67.8262C133.314 69.4169 133.588 70.7339 134.427 71.2471L141.451 75.3178C140.612 74.8389 140.355 73.6074 140.868 71.897C140.868 71.6747 141.023 71.4523 141.108 71.2471Z" fill="#F77D5C"/>
<path d="M143.49 68.4759C142.245 69.2773 141.318 70.4869 140.869 71.8967C140.201 73.9492 140.869 75.557 142.291 75.4715L152.86 74.907C153.287 74.8782 153.699 74.7429 154.059 74.5136C155.311 73.7152 156.244 72.5052 156.697 71.0928C157.348 69.0232 156.697 67.4154 155.241 67.5009L144.689 68.0654C144.263 68.1061 143.852 68.2468 143.49 68.4759Z" fill="#F4AA85"/>
<path d="M69.4711 139.68L69.8137 139.885L73.2398 141.921L73.5995 142.126L76.4089 143.836C75.4667 143.289 75.2783 141.664 76.032 139.902L68.9914 135.815C68.3405 137.525 68.5289 139.133 69.4711 139.68Z" fill="#F77D5C"/>
<path d="M76.1165 139.834L69.0759 135.747C68.3393 137.457 68.5277 139.167 69.4699 139.681L76.4933 143.734C75.5512 143.187 75.3627 141.562 76.1165 139.8V139.834Z" fill="#F77D5C"/>
<path d="M86.8411 121.91L79.8005 117.822C79.647 117.734 79.4785 117.676 79.3037 117.651C78.7567 117.601 78.2085 117.733 77.7448 118.027L84.7683 122.115C85.2346 121.812 85.7912 121.679 86.3443 121.739C86.5197 121.762 86.6886 121.82 86.8411 121.91Z" fill="#F77D5C"/>
<path d="M86.8411 121.91L79.8005 117.822C79.647 117.734 79.4785 117.676 79.3037 117.651C78.7567 117.601 78.2085 117.733 77.7448 118.027L84.7683 122.115C85.2346 121.812 85.7912 121.679 86.3443 121.739C86.5197 121.762 86.6886 121.82 86.8411 121.91Z" fill="#F77D5C"/>
<path d="M82.334 125.04L75.3106 120.969L69.0751 135.747L76.1157 139.835L82.334 125.04Z" fill="#F77D5C"/>
<path d="M84.7664 122.115L77.743 118.078C76.6819 118.782 75.8581 119.79 75.379 120.969L82.4024 125.039C82.8784 123.85 83.7022 122.83 84.7664 122.115Z" fill="#F77D5C"/>
<path d="M84.7664 122.115L77.743 118.078C77.2719 118.362 76.8497 118.72 76.4925 119.138L83.5159 123.209C83.8679 122.786 84.2911 122.427 84.7664 122.149V122.115Z" fill="#F77D5C"/>
<path d="M83.5165 123.209L76.493 119.121C76.0295 119.63 75.6481 120.207 75.3624 120.832L82.403 124.92C82.6865 124.297 83.0618 123.721 83.5165 123.209Z" fill="#F77D5C"/>
<path d="M82.4025 124.92L75.379 120.849V120.969L82.4025 125.04V124.92Z" fill="#F77D5C"/>
<path d="M84.7677 122.115C83.678 122.82 82.8295 123.841 82.3352 125.04L76.1169 139.835C75.2432 141.87 75.6372 143.718 76.9905 143.923C77.5362 143.989 78.0879 143.862 78.5494 143.564C79.6478 142.86 80.4984 141.832 80.9819 140.622L87.2174 125.844C88.0739 123.791 87.6799 121.944 86.3437 121.739C85.7907 121.679 85.234 121.812 84.7677 122.115Z" fill="#F4AA85"/>
<path d="M97.6481 132.924L104.654 137.012C104.375 136.801 104.155 136.522 104.014 136.201C103.873 135.881 103.816 135.53 103.849 135.182L96.8258 131.094C96.7895 131.444 96.8464 131.798 96.9907 132.119C97.1351 132.441 97.3619 132.718 97.6481 132.924Z" fill="#F77D5C"/>
<path d="M103.849 135.182L96.8256 131.094C96.7867 131.453 96.8457 131.816 96.9965 132.144C97.1473 132.472 97.3842 132.754 97.6822 132.958L104.688 137.046C104.398 136.836 104.167 136.553 104.02 136.226C103.873 135.899 103.814 135.539 103.849 135.182Z" fill="#F77D5C"/>
<path d="M103.814 121.858L96.791 117.77L96.8253 131.06L103.849 135.148L103.814 121.858Z" fill="#F77D5C"/>
<path d="M108.766 116.658L101.743 112.588C101.41 112.436 101.043 112.375 100.679 112.411C100.315 112.447 99.9667 112.579 99.6701 112.793L106.694 116.881C106.987 116.661 107.334 116.524 107.699 116.485C108.064 116.446 108.433 116.506 108.766 116.658Z" fill="#F77D5C"/>
<path d="M108.766 116.658L101.743 112.588C101.41 112.436 101.043 112.375 100.679 112.411C100.315 112.447 99.9667 112.579 99.6701 112.793L106.694 116.881C106.987 116.661 107.334 116.524 107.699 116.485C108.064 116.446 108.433 116.506 108.766 116.658Z" fill="#F77D5C"/>
<path d="M106.695 116.881L99.6713 112.793C98.8284 113.333 98.1272 114.067 97.6265 114.933C97.1258 115.799 96.8401 116.772 96.7934 117.771L103.817 121.859C103.868 120.861 104.155 119.889 104.655 119.024C105.156 118.159 105.855 117.424 106.695 116.881Z" fill="#D6B700"/>
<path d="M106.695 116.881L99.6713 112.793C99.1876 113.074 98.7583 113.439 98.4037 113.871L105.427 117.942C105.782 117.515 106.212 117.155 106.695 116.881Z" fill="#F77D5C"/>
<path d="M105.427 117.941L98.4035 113.871C97.9488 114.382 97.5735 114.959 97.29 115.581L104.313 119.669C104.604 119.05 104.978 118.474 105.427 117.958V117.941Z" fill="#F77D5C"/>
<path d="M104.313 119.686L97.2895 115.598C96.9806 116.282 96.8117 117.02 96.7928 117.77L103.816 121.858C103.835 121.108 104.004 120.37 104.313 119.686Z" fill="#F77D5C"/>
<path d="M106.694 116.881C105.854 117.424 105.155 118.158 104.654 119.023C104.154 119.889 103.867 120.86 103.816 121.858V135.148C103.816 136.978 105.118 137.731 106.728 136.858C107.588 136.306 108.303 135.554 108.81 134.666C109.317 133.779 109.601 132.782 109.64 131.761V118.454C109.64 116.676 108.304 115.94 106.694 116.881Z" fill="#F4AA85"/>
<path d="M160.191 31.9242L154.573 28.6574C154.435 28.601 154.303 28.5323 154.179 28.4521L153.134 27.8364C152.803 27.6881 152.439 27.629 152.078 27.6651C151.718 27.7011 151.373 27.8309 151.078 28.0416L158.102 32.1124C158.402 31.8982 158.753 31.7678 159.121 31.7348C159.488 31.7017 159.858 31.7671 160.191 31.9242Z" fill="#F77D5C"/>
<path d="M160.191 31.9242L153.168 27.8364C152.837 27.6881 152.473 27.629 152.113 27.6651C151.752 27.7011 151.407 27.8309 151.112 28.0416L158.136 32.1124C158.432 31.9044 158.778 31.7776 159.138 31.7446C159.499 31.7116 159.862 31.7736 160.191 31.9242Z" fill="#F77D5C"/>
<path d="M158.135 32.1122L151.112 28.0414L150.701 28.315L157.724 32.3858L158.135 32.1122Z" fill="#F77D5C"/>
<path d="M158.135 32.1122L151.112 28.0414L150.701 28.315L157.724 32.3858L158.135 32.1122Z" fill="#F77D5C"/>
<path d="M157.725 32.3861L150.702 28.3153L139.224 36.8161L146.265 40.8868L157.725 32.3861Z" fill="#F77D5C"/>
<path d="M137.597 43.3828L144.62 47.4535C144.383 47.3058 144.186 47.1022 144.045 46.8607C143.905 46.6192 143.826 46.3471 143.815 46.0681C143.783 45.0796 143.989 44.098 144.415 43.2052C144.842 42.3125 145.476 41.5347 146.265 40.9369L139.224 36.8661C138.436 37.4648 137.803 38.2428 137.377 39.1354C136.951 40.0279 136.744 41.0091 136.775 41.9973C136.787 42.2779 136.869 42.5511 137.012 42.7927C137.156 43.0343 137.356 43.237 137.597 43.3828Z" fill="#F77D5C"/>
<path d="M146.265 40.8862L139.224 36.8154C138.914 37.0501 138.628 37.3135 138.368 37.6022L145.391 41.6901C145.652 41.3912 145.945 41.1217 146.265 40.8862Z" fill="#F77D5C"/>
<path d="M145.392 41.69L138.368 37.6876C137.914 38.199 137.538 38.7755 137.255 39.398L144.278 43.4859C144.56 42.8623 144.935 42.2854 145.392 41.7755V41.69Z" fill="#F77D5C"/>
<path d="M144.278 43.4519L137.254 39.3982C136.864 40.2184 136.698 41.1273 136.774 42.0322C136.787 42.3128 136.869 42.586 137.012 42.8276C137.155 43.0692 137.356 43.2719 137.597 43.4177L144.62 47.4884C144.383 47.3407 144.185 47.1371 144.045 46.8956C143.905 46.6541 143.826 46.382 143.815 46.103C143.725 45.2048 143.885 44.2993 144.278 43.4861V43.4519Z" fill="#F77D5C"/>
<path d="M158.136 32.1126L157.725 32.3863L146.265 40.9383C145.476 41.5361 144.842 42.3139 144.416 43.2067C143.989 44.0994 143.784 45.0811 143.815 46.0696C144.021 47.6089 145.254 48.0878 146.676 47.2669L147.104 46.9932L158.565 38.4411C159.35 37.8406 159.98 37.0617 160.403 36.1693C160.826 35.2769 161.03 34.2967 160.997 33.3099C160.774 31.7876 159.541 31.3087 158.136 32.1126Z" fill="#F4AA85"/>
<path d="M147.893 8.30376L140.87 4.23297C140.542 4.07702 140.178 4.01218 139.816 4.04529C139.454 4.0784 139.108 4.20823 138.814 4.42112L145.838 8.50901C146.132 8.2983 146.477 8.16847 146.838 8.13245C147.199 8.09644 147.563 8.1555 147.893 8.30376Z" fill="#F77D5C"/>
<path d="M147.893 8.30376L140.87 4.23297C140.542 4.07702 140.178 4.01218 139.816 4.04529C139.454 4.0784 139.108 4.20823 138.814 4.42112L145.838 8.50901C146.132 8.2983 146.477 8.16847 146.838 8.13245C147.199 8.09644 147.563 8.1555 147.893 8.30376Z" fill="#F77D5C"/>
<path d="M145.837 8.50891L138.763 4.42102C137.992 4.90256 137.347 5.55892 136.878 6.33668L143.902 10.4075C144.389 9.63208 145.052 8.98179 145.837 8.50891Z" fill="#F77D5C"/>
<path d="M145.837 8.50891L138.763 4.42102C138.294 4.70923 137.873 5.06679 137.512 5.48148L144.587 9.56936C144.938 9.14531 145.362 8.78635 145.837 8.50891Z" fill="#F77D5C"/>
<path d="M144.586 9.56958L137.563 5.48169C137.323 5.74467 137.111 6.0312 136.929 6.3369L143.901 10.4077C144.089 10.1113 144.301 9.83093 144.535 9.56958H144.586Z" fill="#F77D5C"/>
<path d="M143.954 10.4076L136.93 6.33679L128.194 20.0885L135.217 24.1764L143.954 10.4076Z" fill="#F77D5C"/>
<path d="M145.838 8.50905C145.053 8.98194 144.39 9.63223 143.902 10.4076L135.166 24.1764C133.949 26.0579 133.847 28.2301 134.874 29.0169C135.206 29.2175 135.59 29.3148 135.978 29.2965C136.365 29.2783 136.739 29.1452 137.05 28.9143C137.83 28.4385 138.482 27.7812 138.951 26.9986L147.688 13.3153C148.956 11.3483 149.041 9.17611 148.031 8.38932C147.694 8.19192 147.306 8.098 146.916 8.11929C146.526 8.14059 146.151 8.27615 145.838 8.50905Z" fill="#F4AA85"/>
<path d="M128.039 25.0326L135.063 29.1375L134.926 29.0349C133.898 28.2481 134 26.0759 135.217 24.1945L128.193 20.1066C126.977 22.0051 126.857 24.1774 127.902 24.9641L128.039 25.0326Z" fill="#F77D5C"/>
<path d="M135.217 24.1765L128.194 20.0886C128.002 20.3817 127.836 20.6907 127.697 21.0122L134.72 25.083C134.862 24.7685 135.029 24.4655 135.217 24.1765Z" fill="#F77D5C"/>
<path d="M134.721 25.0831L127.698 21.0123C126.978 22.6372 127.03 24.2963 127.903 24.9463H128.04L135.064 29.1368L134.927 29.0342C134.053 28.3842 134.002 26.7422 134.721 25.1002V25.0831Z" fill="#F77D5C"/>
<path d="M127.593 37.1755L120.57 33.1047C115.156 29.9576 107.671 30.4023 99.3794 35.1743L106.42 39.2451C114.694 34.4731 122.18 34.0283 127.593 37.1755Z" fill="#F77D5C"/>
<path d="M127.593 37.1755L120.57 33.1047C115.156 29.9576 107.671 30.4023 99.3794 35.1743L106.42 39.2451C114.694 34.4731 122.18 34.0283 127.593 37.1755Z" fill="#F77D5C"/>
<path d="M78.3955 105.558L85.4361 109.628C80.0914 106.532 76.7681 99.9303 76.751 90.5743C76.751 71.7598 89.9756 48.7205 106.421 39.262L99.3631 35.1741C82.935 44.6498 69.659 67.6719 69.6933 86.4865C69.7447 95.8424 73.0679 102.445 78.3955 105.558Z" fill="#F77D5C"/>
<path d="M106.421 39.2449L99.3631 35.1741C94.4709 38.0915 90.0855 41.7827 86.3782 46.1036L93.4017 50.1744C97.1199 45.8579 101.51 42.1674 106.404 39.2449H106.421Z" fill="#F77D5C"/>
<path d="M93.4197 50.1748L86.3962 46.104C81.6605 51.5141 77.7734 57.6097 74.8675 64.1831L81.9081 68.2538C84.812 61.6833 88.693 55.5882 93.4197 50.1748Z" fill="#F77D5C"/>
<path d="M81.9072 68.2535L74.8666 64.1827C71.6589 71.1691 69.9103 78.7347 69.7275 86.4181C69.7275 95.7912 73.1536 102.376 78.4126 105.489L85.4532 109.56C80.1085 106.464 76.7852 99.862 76.7681 90.506C76.9247 82.7919 78.6742 75.1931 81.9072 68.1851V68.2535Z" fill="#F77D5C"/>
<path d="M106.42 39.2452C89.9747 48.7209 76.6816 71.7431 76.7501 90.5576C76.8186 109.372 90.1803 117.018 106.608 107.542C123.036 98.0663 136.347 75.0441 136.278 56.2296C136.21 37.4151 122.865 29.7695 106.42 39.2452Z" fill="#F4AA85"/>
<path d="M77.9156 57.3759L70.8921 53.3051L70.7208 53.2196L77.7443 57.3075H77.9156V57.3759Z" fill="#FFE000"/>
<path d="M73.4496 54.0758L66.4261 49.9879L57.6383 46.3276L64.6788 50.4155L73.4496 54.0758Z" fill="#F77D5C"/>
<path d="M64.6791 50.4155L57.6386 46.3276C57.3246 46.225 56.9911 46.1963 56.6642 46.2438C56.3373 46.2913 56.0259 46.4136 55.7542 46.6013L62.7777 50.6892C63.0508 50.4976 63.3653 50.373 63.6956 50.3255C64.026 50.2779 64.3629 50.3088 64.6791 50.4155Z" fill="#F77D5C"/>
<path d="M64.6791 50.4155L57.6386 46.3276C57.3246 46.225 56.9911 46.1963 56.6642 46.2438C56.3373 46.2913 56.0259 46.4136 55.7542 46.6013L62.7777 50.6892C63.0508 50.4976 63.3653 50.373 63.6956 50.3255C64.026 50.2779 64.3629 50.3088 64.6791 50.4155Z" fill="#F77D5C"/>
<path d="M53.6974 53.4426L60.7209 57.5134C59.6588 56.9147 59.5903 54.9991 60.5839 53.1005C61.0811 52.1122 61.8393 51.2783 62.7766 50.6888L55.6674 46.601C54.7341 47.195 53.977 48.0278 53.4748 49.0126C52.5668 50.9112 52.6525 52.8269 53.6974 53.4426Z" fill="#F77D5C"/>
<path d="M62.7766 50.6888L55.6674 46.601C55.189 46.889 54.7609 47.2529 54.3998 47.6785L61.4232 51.7493C61.7857 51.3298 62.2138 50.9717 62.6909 50.6888H62.7766Z" fill="#F77D5C"/>
<path d="M61.5098 51.7493L54.4864 47.6785C54.1223 48.0819 53.8114 48.5303 53.5613 49.0126L53.3729 49.4231L60.3792 53.511L60.5848 53.1005C60.8347 52.6129 61.1455 52.1588 61.5098 51.7493Z" fill="#F77D5C"/>
<path d="M60.3803 53.511L53.374 49.4231C52.586 51.1335 52.723 52.8439 53.6994 53.4426L60.7229 57.5133C59.7465 56.9489 59.6094 55.2556 60.3803 53.511Z" fill="#F77D5C"/>
<path d="M62.7771 50.689C61.8399 51.2785 61.0817 52.1124 60.5844 53.1007C59.5395 55.0848 59.6765 57.1031 60.8928 57.5991L69.6806 61.2765C69.9987 61.3768 70.3356 61.4027 70.6653 61.3523C70.995 61.3019 71.3087 61.1765 71.5821 60.9857C72.5135 60.4018 73.2662 59.5734 73.7577 58.5911C74.8026 56.5899 74.6656 54.5717 73.4493 54.0756L64.6786 50.4153C64.3624 50.3086 64.0254 50.2777 63.6951 50.3253C63.3647 50.3728 63.0502 50.4974 62.7771 50.689Z" fill="#F4AA85"/>
<path d="M108.783 21.9354L115.807 26.0233C115.407 25.6786 115.124 25.2195 114.995 24.7084C114.867 24.1974 114.899 23.6591 115.087 23.1669L108.064 19.079C107.755 20.4644 108.064 21.5249 108.783 21.9354Z" fill="#F77D5C"/>
<path d="M115.087 23.1669L108.064 19.079C107.755 20.4644 108.064 21.5249 108.783 21.9354L115.807 26.0233C115.407 25.6786 115.124 25.2195 114.995 24.7084C114.867 24.1974 114.899 23.6591 115.087 23.1669Z" fill="#F77D5C"/>
<path d="M123.156 4.33562L116.115 0.247728C115.917 0.127678 115.696 0.0491003 115.467 0.016759C115.237 -0.0155822 115.003 -0.00101311 114.779 0.059583C114.497 0.136908 114.226 0.251975 113.974 0.401666L120.998 4.47245C121.256 4.32766 121.532 4.21834 121.82 4.14747C122.043 4.08045 122.278 4.06257 122.509 4.09505C122.739 4.12754 122.96 4.20961 123.156 4.33562Z" fill="#F77D5C"/>
<path d="M123.156 4.33562L116.115 0.247728C115.917 0.127678 115.696 0.0491003 115.467 0.016759C115.237 -0.0155822 115.003 -0.00101311 114.779 0.059583C114.497 0.136908 114.226 0.251975 113.974 0.401666L120.998 4.47245C121.256 4.32766 121.532 4.21834 121.82 4.14747C122.027 4.08532 122.244 4.0654 122.459 4.08891C122.674 4.11242 122.882 4.17887 123.07 4.2843L123.156 4.33562Z" fill="#F77D5C"/>
<path d="M118.308 8.50877L111.285 4.43799L108.064 19.0791L115.088 23.167L118.308 8.50877Z" fill="#F77D5C"/>
<path d="M121.085 4.52342L114.061 0.452637C112.68 1.38482 111.711 2.81178 111.355 4.4379L118.378 8.50868C118.734 6.88256 119.704 5.4556 121.085 4.52342Z" fill="#F77D5C"/>
<path d="M121.085 4.52342L114.061 0.452637C113.584 0.735475 113.156 1.0936 112.794 1.51309L119.817 5.60098C120.18 5.17687 120.608 4.81312 121.085 4.52342Z" fill="#F77D5C"/>
<path d="M119.818 5.60119L112.794 1.51331C112.341 2.02591 111.966 2.6022 111.681 3.22372L118.704 7.31161C118.982 6.68581 119.358 6.10837 119.818 5.60119Z" fill="#F77D5C"/>
<path d="M118.704 7.36242L111.68 3.27454C111.508 3.64731 111.376 4.03716 111.286 4.43762L118.31 8.5084C118.402 8.11421 118.534 7.7303 118.704 7.36242Z" fill="#F77D5C"/>
<path d="M121.084 4.52355C119.677 5.443 118.682 6.87168 118.309 8.50881L115.088 23.167C114.643 25.1682 115.517 26.5879 117.058 26.1432C117.346 26.0723 117.622 25.963 117.881 25.8182C119.28 24.891 120.273 23.4657 120.656 21.8329L123.876 7.19179C124.322 5.17351 123.448 3.77097 121.906 4.19857C121.619 4.26944 121.342 4.37876 121.084 4.52355Z" fill="#F4AA85"/>
<path d="M87.7857 36.0504L80.7623 31.9625C80.8712 32.3705 81.1275 32.7239 81.4817 32.9546L88.5052 37.0253C88.1543 36.7989 87.8984 36.4521 87.7857 36.0504Z" fill="#F77D5C"/>
<path d="M84.4973 25.1726L77.4739 21.0847L80.7629 31.9629L87.7864 36.0508L84.4973 25.1726Z" fill="#F77D5C"/>
<path d="M89.3109 19.1004L82.2874 15.0125C81.9575 14.8608 81.593 14.7998 81.2316 14.8359C80.8702 14.872 80.525 15.0038 80.2317 15.2178L87.2552 19.2886C87.55 19.0779 87.8949 18.948 88.2556 18.912C88.6163 18.876 88.9802 18.9351 89.3109 19.0833V19.1004Z" fill="#F77D5C"/>
<path d="M87.2567 19.3058L80.2332 15.235C79.9356 15.4002 79.6595 15.6013 79.4109 15.8336C79.2498 15.9748 79.1008 16.1293 78.9656 16.2954L85.989 20.3662C86.1432 20.2123 86.2802 20.0583 86.4515 19.9044C86.6987 19.6779 86.9685 19.4773 87.2567 19.3058Z" fill="#F77D5C"/>
<path d="M85.9877 20.3666L78.9642 16.2958C78.5095 16.8071 78.1342 17.3837 77.8507 18.0062L84.8742 22.077C85.1577 21.4545 85.533 20.8779 85.9877 20.3666Z" fill="#F77D5C"/>
<path d="M84.8754 22.1278L77.7663 18.057C77.2883 18.9903 77.1491 20.0602 77.3723 21.0844L84.4129 25.1723C84.1832 24.1444 84.3163 23.0689 84.7898 22.1278H84.8754Z" fill="#F77D5C"/>
<path d="M86.9602 19.1728C86.672 19.3443 86.4022 19.5449 86.155 19.7715C85.4129 20.4154 84.8451 21.2355 84.5038 22.1561C84.1626 23.0768 84.0588 24.0683 84.2022 25.0395L87.4912 35.9178C87.8681 37.1493 89.0329 37.4058 90.2835 36.6874C90.5688 36.5118 90.8382 36.3114 91.0886 36.0888C91.8305 35.4485 92.3985 34.6315 92.7399 33.7135C93.0813 32.7956 93.185 31.8065 93.0414 30.8378L89.7353 20.0109C89.3755 18.711 88.2107 18.4544 86.9602 19.1728Z" fill="#F4AA85"/>
<path d="M87.2567 19.3058L80.2332 15.235C79.9356 15.4002 79.6595 15.6013 79.4109 15.8336C78.6752 16.4788 78.1116 17.2965 77.7708 18.213C77.4299 19.1296 77.3224 20.1163 77.4581 21.0846L84.4987 25.1725C84.3553 24.2013 84.459 23.2097 84.8003 22.2891C85.1416 21.3684 85.7094 20.5484 86.4515 19.9044C86.6987 19.6779 86.9685 19.4773 87.2567 19.3058Z" fill="#F77D5C"/>
<path d="M89.3109 19.1004L82.2874 15.0125C81.9575 14.8608 81.593 14.7998 81.2316 14.8359C80.8702 14.872 80.525 15.0038 80.2317 15.2178L87.2552 19.2886C87.5515 19.0806 87.8972 18.9538 88.2579 18.9208C88.6186 18.8878 88.9816 18.9497 89.3109 19.1004Z" fill="#F77D5C"/>
<path d="M81.4817 32.9546L88.5052 37.0253C88.1543 36.7989 87.8984 36.4521 87.7857 36.0504L80.7623 31.9625C80.8712 32.3705 81.1275 32.7239 81.4817 32.9546Z" fill="#F77D5C"/>
<path d="M68.5269 86.6747L61.5034 82.5868C61.237 82.4556 60.9439 82.3873 60.6469 82.3873C60.3498 82.3873 60.0568 82.4556 59.7904 82.5868L66.8138 86.6747C67.0773 86.534 67.3715 86.4603 67.6703 86.4603C67.9692 86.4603 68.2634 86.534 68.5269 86.6747Z" fill="#D6B700"/>
<path d="M68.5269 86.6747L61.5034 82.5868C61.237 82.4556 60.9439 82.3873 60.6469 82.3873C60.3498 82.3873 60.0568 82.4556 59.7904 82.5868L66.8138 86.6747C67.0773 86.534 67.3715 86.4603 67.6703 86.4603C67.9692 86.4603 68.2634 86.534 68.5269 86.6747Z" fill="#F77D5C"/>
<path d="M66.8304 86.6749L59.8069 82.587L48.3467 87.3249L55.3702 91.3957L66.8304 86.6749Z" fill="#F77D5C"/>
<path d="M55.3704 91.3954L48.3469 87.2904C48.1964 87.3413 48.0526 87.4102 47.9187 87.4957L54.9421 91.5664L55.3704 91.3954Z" fill="#D6B700"/>
<path d="M55.3704 91.3954L48.3469 87.2904C48.1964 87.3413 48.0526 87.4102 47.9187 87.4957L54.9421 91.5664L55.3704 91.3612V91.3954Z" fill="#F77D5C"/>
<path d="M45.898 94.3718L52.9215 98.4426C52.5651 98.1752 52.2966 97.8079 52.1502 97.3875C52.0037 96.9671 51.986 96.5127 52.0992 96.0822C52.2299 95.1773 52.5508 94.3102 53.0409 93.5378C53.531 92.7655 54.1792 92.1054 54.9429 91.6009L47.9708 87.5302C47.2034 88.0305 46.5524 88.6895 46.0618 89.4626C45.5712 90.2357 45.2525 91.1048 45.1272 92.0114C45.0083 92.4369 45.0181 92.888 45.1553 93.308C45.2924 93.7279 45.5508 94.098 45.898 94.3718Z" fill="#D6B700"/>
<path d="M54.9426 91.6009L47.9705 87.5302C47.4957 87.8093 47.0727 88.168 46.72 88.5906L53.7434 92.6614C54.1007 92.2433 54.5229 91.8853 54.994 91.6009H54.9426Z" fill="#F77D5C"/>
<path d="M53.6926 92.6616L46.6692 88.5908C46.2059 89.0956 45.8296 89.6735 45.5557 90.3012L52.5792 94.3891C52.8605 93.7655 53.2361 93.1886 53.6926 92.6787V92.6616Z" fill="#F77D5C"/>
<path d="M52.5767 94.423L45.5532 90.3351C45.3014 90.8754 45.1394 91.4531 45.0736 92.0455C44.9604 92.476 44.9781 92.9304 45.1245 93.3508C45.271 93.7712 45.5395 94.1385 45.8959 94.4059L52.9193 98.4766C52.563 98.2092 52.2944 97.8419 52.148 97.4215C52.0016 97.0012 51.9838 96.5468 52.0971 96.1163C52.1698 95.5253 52.3316 94.9487 52.5767 94.4059V94.423Z" fill="#F77D5C"/>
<path d="M54.942 91.6009C54.1783 92.1054 53.5302 92.7655 53.0401 93.5378C52.55 94.3101 52.2291 95.1772 52.0984 96.0822C51.8757 98.0491 52.972 99.0925 54.548 98.4425L66.0425 93.7047L66.4708 93.4995C67.2402 92.9972 67.8924 92.3356 68.3831 91.5594C68.8738 90.7832 69.1914 89.9107 69.3144 89.0011C69.5371 87.0512 68.4236 86.0078 66.8305 86.6578L55.3703 91.3785L54.942 91.6009Z" fill="#F4AA85"/>
<path d="M71.816 110.74L64.7755 106.652C64.4448 106.504 64.0809 106.445 63.7202 106.481C63.3595 106.517 63.0146 106.647 62.7198 106.858L69.7604 110.928C70.0545 110.715 70.4006 110.586 70.7624 110.552C71.1241 110.519 71.4881 110.584 71.816 110.74Z" fill="#D6B700"/>
<path d="M71.816 110.74L64.7755 106.652C64.4448 106.504 64.0809 106.445 63.7202 106.481C63.3595 106.517 63.0146 106.647 62.7198 106.858L69.7604 110.928C70.0545 110.715 70.4006 110.586 70.7624 110.552C71.1241 110.519 71.4881 110.584 71.816 110.74Z" fill="#F77D5C"/>
<path d="M69.7618 110.929L62.7212 106.858C62.2754 107.122 61.8761 107.457 61.5392 107.85L68.5284 111.921C68.8825 111.525 69.2991 111.19 69.7618 110.929Z" fill="#D6B700"/>
<path d="M69.7618 110.929L62.7212 106.858C62.2754 107.122 61.8761 107.457 61.5392 107.85L68.5284 111.921C68.8722 111.528 69.2771 111.193 69.7275 110.929H69.7618Z" fill="#F77D5C"/>
<path d="M68.5626 111.92L61.5392 107.849L51.004 119.446L58.0274 123.517L68.5626 111.92Z" fill="#F77D5C"/>
<path d="M50.1647 125.296L57.1882 129.384C56.9408 129.236 56.7392 129.023 56.6058 128.768C56.3531 127.846 56.3517 126.873 56.6016 125.949C56.8516 125.026 57.3439 124.187 58.0276 123.517L51.0041 119.446C50.3188 120.111 49.8252 120.948 49.5751 121.869C49.3249 122.789 49.3274 123.76 49.5823 124.68C49.701 124.945 49.9064 125.162 50.1647 125.296Z" fill="#F77D5C"/>
<path d="M58.0276 123.517L51.0041 119.446L58.0105 123.534L58.0276 123.517Z" fill="#F77D5C"/>
<path d="M57.9595 123.602L50.9532 119.514C50.4871 120.02 50.1054 120.598 49.8226 121.224L56.846 125.295C57.1317 124.674 57.5068 124.098 57.9595 123.585V123.602Z" fill="#F77D5C"/>
<path d="M56.8453 125.347L49.8218 121.276C49.5456 121.798 49.3815 122.372 49.3402 122.961C49.2989 123.55 49.3813 124.141 49.582 124.697C49.7007 124.962 49.906 125.179 50.1644 125.313L57.1879 129.4C56.9404 129.253 56.7388 129.04 56.6054 128.785C56.4037 128.229 56.3208 127.638 56.3621 127.049C56.4034 126.46 56.568 125.886 56.8453 125.364V125.347Z" fill="#F77D5C"/>
<path d="M69.7609 110.929C69.3105 111.193 68.9056 111.528 68.5618 111.921L58.0266 123.517C57.3309 124.18 56.8257 125.016 56.5636 125.94C56.3015 126.863 56.2921 127.84 56.5363 128.768C57.0331 129.692 58.078 129.811 59.1744 129.179C59.6272 128.911 60.0372 128.576 60.3906 128.187L70.9087 116.59C71.5807 115.938 72.0666 115.119 72.3165 114.217C72.5664 113.315 72.5712 112.363 72.3305 111.459C71.9536 110.415 70.8573 110.296 69.7609 110.929Z" fill="#F4AA85"/>
<path d="M135.004 126.755L125.253 120.755L143.63 118.505L135.004 126.755Z" fill="#CDDFF4"/>
<path d="M176.257 59.25L187.508 66.0004L168.006 68.2506L176.257 59.25Z" fill="#CDDFF4"/>
<path d="M127.397 91.602C109.181 115.555 128.072 127.27 138.42 122.148L181.868 101.894C203.247 90.601 188.46 69.2081 179.425 71.755C183.807 54.314 167.108 57.3088 163.571 64.9849C147.014 45.7396 120.969 75.4742 127.397 91.602Z" fill="#CDDFF4"/>
<path d="M136.966 97.3396C118.751 121.292 137.642 133.007 147.99 127.886L191.437 107.632C212.816 96.3385 198.03 74.9456 188.995 77.4926C193.377 60.0515 176.677 63.0463 173.141 70.7225C156.584 51.4771 130.538 81.2118 136.966 97.3396Z" fill="#E6F5FF"/>
<line x1="114.461" y1="114.806" x2="223.461" y2="373.806" stroke="#F77D5C" stroke-dasharray="3 3"/>
<path d="M378.771 100.87L352.382 116.875L399.84 146.598L427.533 129.45C427.533 129.45 424.665 124.877 421.223 123.162C417.781 121.448 383.36 101.442 383.36 101.442C381.408 100.346 380.441 100.095 378.771 100.87Z" fill="url(#paint19_linear)"/>
<path d="M401.171 144.798L427.618 129.272C428.395 130.308 429.343 132.148 429.343 134.448C429.343 136.748 429.343 169.519 429.343 171.244C429.343 172.969 428.384 174.081 427.092 174.92L401.171 190.792L401.171 144.798Z" fill="url(#paint20_linear)"/>
<rect width="59.5265" height="49.4227" rx="7" transform="matrix(0.866025 0.5 -2.20305e-08 1 350.964 114.24)" fill="url(#paint21_linear)"/>
<circle r="10.0862" transform="matrix(0.866025 0.5 -2.20305e-08 1 386.593 159.626)" fill="url(#paint22_linear)"/>
<circle r="6.47027" transform="matrix(0.866025 0.5 -2.20305e-08 1 389.067 158.686)" fill="#323A40"/>
<circle r="10.0862" transform="matrix(0.866025 0.5 -2.20305e-08 1 363.059 146.181)" fill="url(#paint23_linear)"/>
<circle r="6.47027" transform="matrix(0.866025 0.5 -2.20305e-08 1 365.531 145.239)" fill="#323A40"/>
<circle r="4.52919" transform="matrix(0.866025 0.5 -2.20305e-08 1 366.093 144.568)" fill="#435059"/>
<circle r="1.94108" transform="matrix(0.866025 0.5 -2.20305e-08 1 367.211 144.048)" fill="#C9ECD7"/>
<circle r="4.52919" transform="matrix(0.866025 0.5 -2.20305e-08 1 389.625 158.015)" fill="#435059"/>
<circle r="1.94108" transform="matrix(0.866025 0.5 -2.20305e-08 1 390.75 157.496)" fill="#C9ECD7"/>
<path d="M388.005 110.596C383.55 107.219 394.687 97.089 403.598 102.154C412.508 107.219 393.017 115.661 388.005 110.596Z" fill="#ABD5B7" fill-opacity="0.2"/>
<path d="M384.691 47L394.158 97.0886C366.314 113.41 394.158 122.977 411.422 108.345L499.967 113.972C493.841 117.912 481.033 126.354 476.578 129.168C471.235 132.543 460.985 134.796 455.973 134.796H374.667C327.332 150.554 337.355 132.545 347.38 122.414C349.05 111.158 353.505 86.9583 355.176 75.1397C356.753 63.9881 361.302 58.4435 364.643 57.1303L384.691 47Z" fill="#ABD5B7" fill-opacity="0.2"/>
<path d="M388.005 110.596C383.55 107.219 394.687 97.089 403.598 102.154C412.508 107.219 393.017 115.661 388.005 110.596Z" stroke="#74BD44" stroke-width="0.5"/>
<path d="M384.691 47L394.158 97.0886C366.314 113.41 394.158 122.977 411.422 108.345L499.967 113.972C493.841 117.912 481.033 126.354 476.578 129.168C471.235 132.543 460.985 134.796 455.973 134.796H374.667C327.332 150.554 337.355 132.545 347.38 122.414C349.05 111.158 353.505 86.9583 355.176 75.1397C356.753 63.9881 361.302 58.4435 364.643 57.1303L384.691 47Z" stroke="#74BD44" stroke-width="0.5"/>
<line x1="353.151" y1="175.291" x2="223.406" y2="356.191" stroke="#5DA676" stroke-dasharray="3 3"/>
<line x1="359.828" y1="181.647" x2="233.236" y2="364.256" stroke="#FCD7A2" stroke-dasharray="3 3"/>
<line x1="390.002" y1="198.249" x2="268.829" y2="387.49" stroke="#F77D5C" stroke-dasharray="3 3"/>
<line x1="379.225" y1="193.679" x2="255.993" y2="380.015" stroke="#9BD1AA" stroke-dasharray="3 3"/>
<path d="M369.612 187.409L244.196 372.622" stroke="#EA525F" stroke-dasharray="3 3"/>
<defs>
<filter id="filter0_d" x="8.07599" y="245.967" width="450.332" height="300.776" filterUnits="userSpaceOnUse" color-interpolation-filters="sRGB">
<feFlood flood-opacity="0" result="BackgroundImageFix"/>
<feColorMatrix in="SourceAlpha" type="matrix" values="0 0 0 0 0 0 0 0 0 0 0 0 0 0 0 0 0 0 127 0"/>
<feOffset dy="12"/>
<feGaussianBlur stdDeviation="20"/>
<feColorMatrix type="matrix" values="0 0 0 0 0.339427 0 0 0 0 0.423456 0 0 0 0 0.554167 0 0 0 0.1 0"/>
<feBlend mode="normal" in2="BackgroundImageFix" result="effect1_dropShadow"/>
<feBlend mode="normal" in="SourceGraphic" in2="effect1_dropShadow" result="shape"/>
</filter>
<linearGradient id="paint0_linear" x1="106.865" y1="0" x2="106.865" y2="213.731" gradientUnits="userSpaceOnUse">
<stop stop-color="#F1F0FF"/>
<stop offset="1" stop-color="white"/>
</linearGradient>
<linearGradient id="paint1_linear" x1="236.553" y1="414.628" x2="252.454" y2="432.263" gradientUnits="userSpaceOnUse">
<stop stop-color="#5DA676"/>
<stop offset="1" stop-color="#1E6D39"/>
</linearGradient>
<linearGradient id="paint2_linear" x1="223.588" y1="427.78" x2="235.802" y2="445.425" gradientUnits="userSpaceOnUse">
<stop stop-color="#5DA676"/>
<stop offset="1" stop-color="#1E6D39"/>
</linearGradient>
<linearGradient id="paint3_linear" x1="175.221" y1="376.554" x2="191.122" y2="394.188" gradientUnits="userSpaceOnUse">
<stop stop-color="#5DA676"/>
<stop offset="1" stop-color="#1E6D39"/>
</linearGradient>
<linearGradient id="paint4_linear" x1="162.256" y1="389.705" x2="174.47" y2="407.35" gradientUnits="userSpaceOnUse">
<stop stop-color="#5DA676"/>
<stop offset="1" stop-color="#1E6D39"/>
</linearGradient>
<linearGradient id="paint5_linear" x1="113.408" y1="340.495" x2="129.309" y2="358.13" gradientUnits="userSpaceOnUse">
<stop stop-color="#5DA676"/>
<stop offset="1" stop-color="#1E6D39"/>
</linearGradient>
<linearGradient id="paint6_linear" x1="100.444" y1="353.647" x2="112.657" y2="371.292" gradientUnits="userSpaceOnUse">
<stop stop-color="#5DA676"/>
<stop offset="1" stop-color="#1E6D39"/>
</linearGradient>
<linearGradient id="paint7_linear" x1="175.221" y1="305.727" x2="191.122" y2="323.362" gradientUnits="userSpaceOnUse">
<stop stop-color="#5DA676"/>
<stop offset="1" stop-color="#1E6D39"/>
</linearGradient>
<linearGradient id="paint8_linear" x1="162.256" y1="318.879" x2="174.47" y2="336.523" gradientUnits="userSpaceOnUse">
<stop stop-color="#5DA676"/>
<stop offset="1" stop-color="#1E6D39"/>
</linearGradient>
<linearGradient id="paint9_linear" x1="237.029" y1="269.671" x2="252.93" y2="287.306" gradientUnits="userSpaceOnUse">
<stop stop-color="#5DA676"/>
<stop offset="1" stop-color="#1E6D39"/>
</linearGradient>
<linearGradient id="paint10_linear" x1="224.065" y1="282.823" x2="236.278" y2="300.467" gradientUnits="userSpaceOnUse">
<stop stop-color="#5DA676"/>
<stop offset="1" stop-color="#1E6D39"/>
</linearGradient>
<linearGradient id="paint11_linear" x1="237.029" y1="340.495" x2="252.93" y2="358.13" gradientUnits="userSpaceOnUse">
<stop stop-color="#5DA676"/>
<stop offset="1" stop-color="#1E6D39"/>
</linearGradient>
<linearGradient id="paint12_linear" x1="224.065" y1="353.647" x2="236.278" y2="371.292" gradientUnits="userSpaceOnUse">
<stop stop-color="#5DA676"/>
<stop offset="1" stop-color="#1E6D39"/>
</linearGradient>
<linearGradient id="paint13_linear" x1="301.42" y1="303.151" x2="317.321" y2="320.786" gradientUnits="userSpaceOnUse">
<stop stop-color="#5DA676"/>
<stop offset="1" stop-color="#1E6D39"/>
</linearGradient>
<linearGradient id="paint14_linear" x1="288.455" y1="316.303" x2="300.669" y2="333.948" gradientUnits="userSpaceOnUse">
<stop stop-color="#5DA676"/>
<stop offset="1" stop-color="#1E6D39"/>
</linearGradient>
<linearGradient id="paint15_linear" x1="302.701" y1="373.978" x2="318.602" y2="391.613" gradientUnits="userSpaceOnUse">
<stop stop-color="#5DA676"/>
<stop offset="1" stop-color="#1E6D39"/>
</linearGradient>
<linearGradient id="paint16_linear" x1="289.736" y1="387.13" x2="301.95" y2="404.774" gradientUnits="userSpaceOnUse">
<stop stop-color="#5DA676"/>
<stop offset="1" stop-color="#1E6D39"/>
</linearGradient>
<linearGradient id="paint17_linear" x1="359.369" y1="340.495" x2="375.27" y2="358.13" gradientUnits="userSpaceOnUse">
<stop stop-color="#5DA676"/>
<stop offset="1" stop-color="#1E6D39"/>
</linearGradient>
<linearGradient id="paint18_linear" x1="346.404" y1="353.647" x2="358.618" y2="371.292" gradientUnits="userSpaceOnUse">
<stop stop-color="#5DA676"/>
<stop offset="1" stop-color="#1E6D39"/>
</linearGradient>
<linearGradient id="paint19_linear" x1="389.671" y1="100.869" x2="389.671" y2="146.597" gradientUnits="userSpaceOnUse">
<stop stop-color="#D6EED7"/>
<stop offset="1" stop-color="#89CA9C"/>
</linearGradient>
<linearGradient id="paint20_linear" x1="414.419" y1="135.439" x2="434.682" y2="170.536" gradientUnits="userSpaceOnUse">
<stop stop-color="#B6D8C0"/>
<stop offset="1" stop-color="#52BC71"/>
</linearGradient>
<linearGradient id="paint21_linear" x1="29.7633" y1="-1.59084e-06" x2="49.5323" y2="39.5382" gradientUnits="userSpaceOnUse">
<stop stop-color="#AAD5B6"/>
<stop offset="1" stop-color="#8EDEA6"/>
</linearGradient>
<linearGradient id="paint22_linear" x1="10.0862" y1="0" x2="10.0862" y2="20.1723" gradientUnits="userSpaceOnUse">
<stop stop-color="#B6D8C0"/>
<stop offset="1" stop-color="#64AE7A"/>
</linearGradient>
<linearGradient id="paint23_linear" x1="10.0862" y1="0" x2="10.0862" y2="20.1723" gradientUnits="userSpaceOnUse">
<stop stop-color="#B6D8C0"/>
<stop offset="1" stop-color="#64AE7A"/>
</linearGradient>
</defs>
</svg>
