<svg width="494" height="450" viewBox="0 0 494 450" fill="none" xmlns="http://www.w3.org/2000/svg">
<circle cx="241" cy="246" r="124.5" stroke="#2DAA6E" stroke-dasharray="5 5"/>
<rect width="40.4892" height="40.4892" transform="matrix(0.866397 0.499355 -0.866398 0.499355 443.246 254.843)" fill="url(#paint0_linear)"/>
<path d="M443.246 300.666L443.246 295.078L478.326 274.96L478.326 280.176L443.246 300.666Z" fill="url(#paint1_linear)"/>
<path d="M443.994 300.666L443.994 295.078L408.914 274.96L408.914 280.176L443.994 300.666Z" fill="url(#paint2_linear)"/>
<path d="M432.051 258.569L432.051 277.157L443.247 283.902L443.247 265.64L432.051 258.569Z" fill="url(#paint3_linear)"/>
<path d="M443.246 283.902L443.246 265.313L454.442 258.568L454.442 276.831L443.246 283.902Z" fill="url(#paint4_linear)"/>
<path d="M493.998 211.628L488.773 214.876L488.773 292.843L493.998 288.782L493.998 211.628Z" fill="url(#paint5_linear)"/>
<path d="M493.998 211.627L488.773 214.98L390.998 158.353L396.223 155L493.998 211.627Z" fill="url(#paint6_linear)"/>
<rect x="3.46559" y="5.99742" width="105.32" height="70.1301" transform="matrix(0.866397 0.499355 2.15326e-08 1 391.463 156.251)" fill="white" stroke="url(#paint7_linear)" stroke-width="8"/>
<path d="M414.84 190.313C403.48 184.64 407.749 193.666 407.749 201.116C401.405 200.001 404.39 207.077 404.39 219.744C404.39 229.432 409.988 232.781 412.973 233.901C415.959 235.02 418.571 236.138 428.274 241.724C437.282 246.91 438.599 244.456 438.723 241.724C439.097 236.26 437.977 222.356 437.977 208.569C437.977 192.145 426.782 196.276 414.84 190.313Z" fill="#8DD6A2"/>
<path d="M414.093 199.999C414.392 201.489 415.213 204.097 417.452 201.116C419.787 198.006 413.72 198.136 414.093 199.999Z" fill="#EA525F"/>
<path d="M422.303 197.764C422.801 199.875 424.095 203.948 425.289 203.352C426.782 202.607 423.423 196.274 422.303 197.764Z" fill="#EA525F"/>
<path d="M435.738 211.921C432.454 213.411 431.882 206.084 432.006 202.235C434.395 198.956 434.494 205.091 434.245 208.568C435.93 210.356 435.943 211.548 435.738 211.921Z" fill="#EA525F"/>
<path d="M430.14 213.411C427.752 211.325 426.906 209.313 426.782 208.568C427.901 205.96 433.872 212.666 432.379 213.411C431.185 214.007 431.135 215.15 431.26 215.646C440.59 221.235 434.245 232.411 432.753 233.529C431.558 234.423 430.514 231.418 430.14 229.803C425.662 228.313 423.05 218.627 429.021 221.607C433.798 223.991 433.997 222.601 433.499 221.607C431.011 219.372 426.483 214.901 428.274 214.901C430.066 214.901 430.265 213.908 430.14 213.411Z" fill="#EA525F"/>
<path d="M422.677 218.627C421.059 219.993 419.019 223.544 423.796 226.823C425.04 225.208 426.558 221.309 422.677 218.627Z" fill="#EA525F"/>
<path d="M410.735 229.058C411.033 227.27 411.605 226.823 411.854 226.823C412.75 233.678 414.218 233.653 414.84 232.784C414.964 232.411 414.466 229.803 411.481 222.352C408.495 214.901 407.749 218.999 407.749 221.98C403.644 223.097 410.361 231.293 410.735 229.058Z" fill="#EA525F"/>
<path d="M407.889 205.96C408.001 197.317 413.067 202.359 415.586 205.96C421.856 202.086 419.94 206.084 418.198 208.568C418.572 216.02 407.749 216.764 407.889 205.96Z" fill="#EA525F"/>
<path d="M451.784 233.416L449.171 232.298L449.171 218.514C449.171 214.788 451.784 215.534 451.784 219.632L451.784 233.416Z" fill="#8DD6A2"/>
<path d="M449.173 234.534L451.785 235.652L451.785 249.436C451.785 253.162 449.173 252.415 449.173 248.318L449.173 234.534Z" fill="#EA525F"/>
<path d="M469.323 225.704L460.367 221.234L460.367 223.842L469.323 228.312L469.323 225.704Z" fill="#D1DEE8"/>
<path d="M465.591 229.432L460.367 226.824L460.367 229.432L465.591 232.04L465.591 229.432Z" fill="#D1DEE8"/>
<path d="M109.425 367.191L133.032 381.509L90.5762 408.099L65.8024 392.759C65.8024 392.759 68.3684 388.668 71.4476 387.134C74.5269 385.6 105.319 367.703 105.319 367.703C107.066 366.722 107.931 366.498 109.425 367.191Z" fill="url(#paint8_linear)"/>
<path d="M89.3874 406.489L65.728 392.599C65.0325 393.527 64.185 395.172 64.185 397.23C64.185 399.287 64.185 428.604 64.185 430.147C64.185 431.69 65.043 432.685 66.1982 433.436L89.3874 447.634L89.3874 406.489Z" fill="url(#paint9_linear)"/>
<rect width="53.2517" height="44.213" rx="7" transform="matrix(-0.866025 0.5 2.20305e-08 1 134.299 379.152)" fill="url(#paint10_linear)"/>
<circle r="9.02295" transform="matrix(-0.866025 0.5 2.20305e-08 1 102.423 419.754)" fill="url(#paint11_linear)"/>
<circle r="5.78823" transform="matrix(-0.866025 0.5 2.20305e-08 1 100.213 418.914)" fill="#323A40"/>
<circle r="9.02295" transform="matrix(-0.866025 0.5 2.20305e-08 1 123.48 407.726)" fill="url(#paint12_linear)"/>
<circle r="5.78823" transform="matrix(-0.866025 0.5 2.20305e-08 1 121.266 406.884)" fill="#323A40"/>
<circle r="4.05176" transform="matrix(-0.866025 0.5 2.20305e-08 1 120.764 406.282)" fill="#435059"/>
<circle r="1.73647" transform="matrix(-0.866025 0.5 2.20305e-08 1 119.767 405.817)" fill="#C9ECD7"/>
<circle r="4.05176" transform="matrix(-0.866025 0.5 2.20305e-08 1 99.7126 418.312)" fill="#435059"/>
<circle r="1.73647" transform="matrix(-0.866025 0.5 2.20305e-08 1 98.7074 417.848)" fill="#C9ECD7"/>
<path d="M101.16 375.892C105.145 372.871 95.1819 363.809 87.2105 368.34C79.2392 372.871 96.6758 380.423 101.16 375.892Z" fill="#ABD5B7" fill-opacity="0.2"/>
<path d="M104.124 319L95.6552 363.809C120.564 378.409 95.6551 386.968 80.2112 373.878L0.999985 378.913C6.48001 382.437 17.9382 389.989 21.9237 392.506C26.7033 395.525 35.8729 397.541 40.3565 397.541H113.092C155.437 411.638 146.47 395.527 137.502 386.465C136.008 376.395 132.023 354.746 130.528 344.173C129.118 334.197 125.048 329.237 122.059 328.062L104.124 319Z" fill="#ABD5B7" fill-opacity="0.2"/>
<path d="M101.16 375.892C105.145 372.871 95.1819 363.809 87.2105 368.34C79.2392 372.871 96.6758 380.423 101.16 375.892Z" stroke="#74BD44" stroke-width="0.5"/>
<path d="M104.124 319L95.6552 363.809C120.564 378.409 95.6551 386.968 80.2112 373.878L0.999985 378.913C6.48001 382.437 17.9382 389.989 21.9237 392.506C26.7033 395.525 35.8729 397.541 40.3565 397.541H113.092C155.437 411.638 146.47 395.527 137.502 386.465C136.008 376.395 132.023 354.746 130.528 344.173C129.118 334.197 125.048 329.237 122.059 328.062L104.124 319Z" stroke="#74BD44" stroke-width="0.5"/>
<path d="M202.61 85.216L215.847 64.0446L107.296 60.9514L93.3161 81.4744L202.61 85.216Z" fill="#FCD7A2" stroke="#FCD7A2" stroke-width="0.5"/>
<path d="M200.936 81.1347L214.173 59.9633L105.622 56.8701L91.6421 77.3931L200.936 81.1347Z" fill="#FCD7A2" stroke="#CBA267" stroke-width="0.5"/>
<path d="M204.357 59.5352L191.052 80.6633" stroke="#CBA267" stroke-width="0.5"/>
<path d="M174.981 59.1875L160.934 79.6649" stroke="#CBA267" stroke-width="0.5"/>
<path d="M159.571 58.8384L145.524 79.3158" stroke="#CBA267" stroke-width="0.5"/>
<path d="M145.567 58.396L130.825 78.9185" stroke="#CBA267" stroke-width="0.5"/>
<path d="M130.167 58.0469L115.425 78.5694" stroke="#CBA267" stroke-width="0.5"/>
<path d="M116.159 57.6011L101.416 78.1236" stroke="#CBA267" stroke-width="0.5"/>
<path d="M190.379 59.5376L176.377 80.7109" stroke="#CBA267" stroke-width="0.5"/>
<path d="M208.525 69.4328L98.6303 67.1301" stroke="#CBA267" stroke-width="0.5"/>
<ellipse rx="13.6148" ry="9.30504" transform="matrix(-0.859623 -0.510929 -0.510929 0.859623 174.185 28.1877)" fill="#DDEDF9"/>
<path d="M173.263 53.6717L184.987 36.3892C190.965 29.6548 181.767 21.4839 178.925 20.1645L164.244 41.4502L173.263 53.6717Z" fill="#C0D8EB"/>
<path d="M164.273 42.0861L178.319 20.8382L162.988 20.4742L148.344 42.3955L164.273 42.0861Z" fill="#DDEDF9"/>
<ellipse rx="14.171" ry="9.36998" transform="matrix(-0.859623 -0.510929 -0.510929 0.859623 160.974 47.4273)" fill="url(#paint13_linear)"/>
<path d="M142.501 83.5695L165.772 45.8257L144.796 47.0732L119.58 84.2948L142.501 83.5695Z" fill="#E6F5FF"/>
<path d="M165.773 45.8264L170.941 57.639L148.305 95.3451L142.502 83.5702L165.773 45.8264Z" fill="#C0D8EB"/>
<ellipse rx="24.3149" ry="16.5967" transform="matrix(-0.859623 -0.510929 -0.510929 0.859623 135.74 90.3498)" fill="url(#paint14_linear)"/>
<ellipse rx="24.3149" ry="16.5967" transform="matrix(-0.859623 -0.510929 -0.510929 0.859623 133.132 94.3305)" fill="url(#paint15_linear)"/>
<path d="M133.401 94.3416L121.149 113.569" stroke="#A6C2D5" stroke-width="2" stroke-linecap="round"/>
<circle r="3.82061" transform="matrix(-0.998236 0.0593663 0.0593663 0.998236 118.794 116.898)" fill="#A6C2D5"/>
<circle cx="160.594" cy="341.878" r="7.28058" fill="#47AC7C"/>
<circle cx="160.594" cy="341.877" r="14.9712" stroke="#47AC7C"/>
<circle cx="187.895" cy="133.471" r="7.28058" fill="#47AC7C"/>
<circle cx="187.895" cy="133.471" r="14.9712" stroke="#47AC7C"/>
<circle cx="366.27" cy="246.32" r="7.28058" fill="#47AC7C"/>
<circle cx="366.27" cy="246.32" r="14.9712" stroke="#47AC7C"/>
<defs>
<linearGradient id="paint0_linear" x1="20.2446" y1="0" x2="20.2446" y2="40.4892" gradientUnits="userSpaceOnUse">
<stop stop-color="#BDE4F6"/>
<stop offset="1" stop-color="#D0D4EE"/>
</linearGradient>
<linearGradient id="paint1_linear" x1="460.786" y1="274.96" x2="460.786" y2="300.666" gradientUnits="userSpaceOnUse">
<stop stop-color="#DDECF7"/>
<stop offset="1" stop-color="#D2D6EF"/>
</linearGradient>
<linearGradient id="paint2_linear" x1="426.454" y1="274.96" x2="426.454" y2="300.666" gradientUnits="userSpaceOnUse">
<stop stop-color="#EFFAFF"/>
<stop offset="1" stop-color="#D2D4EE"/>
</linearGradient>
<linearGradient id="paint3_linear" x1="446.668" y1="281.071" x2="446.668" y2="258.569" gradientUnits="userSpaceOnUse">
<stop stop-color="#EFFAFF"/>
<stop offset="1" stop-color="#D2D4EE"/>
</linearGradient>
<linearGradient id="paint4_linear" x1="457.863" y1="261.4" x2="457.863" y2="283.901" gradientUnits="userSpaceOnUse">
<stop stop-color="#EFFAFF"/>
<stop offset="1" stop-color="#D2D4EE"/>
</linearGradient>
<linearGradient id="paint5_linear" x1="491.385" y1="211.628" x2="491.385" y2="292.843" gradientUnits="userSpaceOnUse">
<stop stop-color="#BBE4F7"/>
<stop offset="1" stop-color="#D2D3EE"/>
</linearGradient>
<linearGradient id="paint6_linear" x1="442.498" y1="155" x2="442.498" y2="214.98" gradientUnits="userSpaceOnUse">
<stop stop-color="#BFE2F2"/>
<stop offset="1" stop-color="#BCBDE2"/>
</linearGradient>
<linearGradient id="paint7_linear" x1="56.6599" y1="0" x2="56.6599" y2="78.1301" gradientUnits="userSpaceOnUse">
<stop stop-color="#D2D2ED"/>
<stop offset="1" stop-color="#EFFBFF"/>
</linearGradient>
<linearGradient id="paint8_linear" x1="99.6739" y1="367.191" x2="99.6739" y2="408.098" gradientUnits="userSpaceOnUse">
<stop stop-color="#D6EED7"/>
<stop offset="1" stop-color="#89CA9C"/>
</linearGradient>
<linearGradient id="paint9_linear" x1="77.5356" y1="398.116" x2="59.4083" y2="429.514" gradientUnits="userSpaceOnUse">
<stop stop-color="#B6D8C0"/>
<stop offset="1" stop-color="#52BC71"/>
</linearGradient>
<linearGradient id="paint10_linear" x1="26.6258" y1="-1.42315e-06" x2="44.311" y2="35.3704" gradientUnits="userSpaceOnUse">
<stop stop-color="#AAD5B6"/>
<stop offset="1" stop-color="#8EDEA6"/>
</linearGradient>
<linearGradient id="paint11_linear" x1="9.02295" y1="0" x2="9.02295" y2="18.0459" gradientUnits="userSpaceOnUse">
<stop stop-color="#B6D8C0"/>
<stop offset="1" stop-color="#64AE7A"/>
</linearGradient>
<linearGradient id="paint12_linear" x1="9.02295" y1="0" x2="9.02295" y2="18.0459" gradientUnits="userSpaceOnUse">
<stop stop-color="#B6D8C0"/>
<stop offset="1" stop-color="#64AE7A"/>
</linearGradient>
<linearGradient id="paint13_linear" x1="14.171" y1="0" x2="14.171" y2="18.74" gradientUnits="userSpaceOnUse">
<stop stop-color="#E6F5FF"/>
<stop offset="1" stop-color="#CDDCE7"/>
</linearGradient>
<linearGradient id="paint14_linear" x1="50.893" y1="12.3038" x2="-2.43823" y2="11.5419" gradientUnits="userSpaceOnUse">
<stop stop-color="#A1CBDF"/>
<stop offset="1" stop-color="#EBFEFF"/>
</linearGradient>
<linearGradient id="paint15_linear" x1="24.3149" y1="0" x2="24.3149" y2="33.1934" gradientUnits="userSpaceOnUse">
<stop stop-color="#C1DCEE"/>
<stop offset="1" stop-color="#EEFDFF"/>
</linearGradient>
</defs>
</svg>
