<svg width="621" height="598" viewBox="0 0 621 598" fill="none" xmlns="http://www.w3.org/2000/svg">
<g filter="url(#filter0_d)">
<path d="M563.767 405.749L553.583 405.749L553.584 414.478L563.768 414.478L563.767 405.749Z" fill="#D1DFEA"/>
<path d="M120.047 405.747L109.863 405.747L109.865 414.476L120.048 414.476L120.047 405.747Z" fill="#D1DFEA"/>
<rect width="261.964" height="261.964" transform="matrix(0.866346 0.499815 -0.866346 0.499815 336.812 283.543)" fill="#D1DFEA"/>
<rect width="261.964" height="261.964" transform="matrix(0.866346 0.499815 -0.866346 0.499815 336.812 274.813)" fill="url(#paint0_linear)"/>
<line y1="-0.5" x2="261.867" y2="-0.5" transform="matrix(0.866025 0.5 -0.866025 0.5 261.047 318.46)" stroke="#DCE3F2"/>
<line y1="-0.5" x2="261.867" y2="-0.5" transform="matrix(0.866025 0.5 -0.866025 0.5 185.452 362.106)" stroke="#DCE3F2"/>
<line y1="-0.5" x2="261.867" y2="-0.5" transform="matrix(0.866025 -0.5 0.866025 0.5 185.452 449.395)" stroke="#DCE3F2"/>
<line y1="-0.5" x2="261.867" y2="-0.5" transform="matrix(0.866025 -0.5 0.866025 0.5 261.047 493.04)" stroke="#DCE3F2"/>
</g>
<path d="M332.096 416.979C330.838 425.786 332.621 474.645 333.669 497.974C336.185 501.12 338.387 499.285 339.174 497.974C339.803 447.647 334.718 423.007 332.096 416.979Z" fill="#5DA676"/>
<path d="M354.118 441.357C335.245 443.873 332.1 462.851 332.886 472.025L335.245 483.034L339.177 474.384C334.773 456.77 347.303 445.027 354.118 441.357Z" fill="url(#paint1_linear)"/>
<path d="M338.389 481.46C335.873 461.329 322.662 457.869 316.371 458.655C330.84 464.946 333.409 476.479 332.884 481.46C335.768 489.848 340.905 501.591 338.389 481.46Z" fill="url(#paint2_linear)"/>
<path d="M333.67 490.11C332.412 463.059 350.709 460.228 358.834 462.587C342.478 461.329 338.388 485.391 339.175 495.614L333.67 490.11Z" fill="#5DA676"/>
<path d="M256.917 370.312C255.659 379.119 257.441 427.979 258.489 451.308C261.006 454.453 263.208 452.618 263.994 451.308C264.624 400.98 259.538 376.341 256.917 370.312Z" fill="#5DA676"/>
<path d="M278.938 394.69C260.065 397.207 256.92 416.184 257.706 425.359L260.066 436.368L263.997 427.718C259.594 410.103 272.123 398.36 278.938 394.69Z" fill="url(#paint3_linear)"/>
<path d="M263.209 434.793C260.693 414.662 247.482 411.202 241.191 411.988C255.66 418.279 258.229 429.813 257.705 434.793C260.588 443.181 265.726 454.924 263.209 434.793Z" fill="url(#paint4_linear)"/>
<path d="M258.491 443.443C257.232 416.392 275.529 413.561 283.655 415.92C267.298 414.662 263.209 438.724 263.995 448.947L258.491 443.443Z" fill="#5DA676"/>
<path d="M181.154 326.115C179.896 334.922 181.679 383.782 182.727 407.111C185.243 410.256 187.445 408.421 188.232 407.111C188.861 356.783 183.776 332.144 181.154 326.115Z" fill="#5DA676"/>
<path d="M203.176 350.493C184.303 353.01 181.158 371.987 181.944 381.162L184.303 392.171L188.235 383.521C183.831 365.906 196.361 354.163 203.176 350.493Z" fill="url(#paint5_linear)"/>
<path d="M187.447 390.596C184.93 370.465 171.72 367.005 165.429 367.791C179.898 374.082 182.467 385.616 181.942 390.596C184.826 398.984 189.963 410.727 187.447 390.596Z" fill="url(#paint6_linear)"/>
<path d="M182.728 399.246C181.47 372.195 199.767 369.364 207.892 371.723C191.536 370.465 187.446 394.528 188.233 404.75L182.728 399.246Z" fill="#5DA676"/>
<path d="M256.917 283.503C255.659 292.31 257.441 341.169 258.489 364.498C261.006 367.644 263.208 365.809 263.994 364.498C264.624 314.171 259.538 289.531 256.917 283.503Z" fill="#5DA676"/>
<path d="M278.938 307.881C260.065 310.397 256.92 329.375 257.706 338.549L260.066 349.558L263.997 340.908C259.594 323.294 272.123 311.551 278.938 307.881Z" fill="url(#paint7_linear)"/>
<path d="M263.209 347.984C260.693 327.853 247.482 324.393 241.191 325.179C255.66 331.47 258.229 343.003 257.705 347.984C260.588 356.372 265.726 368.115 263.209 347.984Z" fill="url(#paint8_linear)"/>
<path d="M258.491 356.634C257.232 329.583 275.529 326.752 283.655 329.111C267.298 327.853 263.209 351.915 263.995 362.138L258.491 356.634Z" fill="#5DA676"/>
<path d="M332.686 239.306C331.428 248.113 333.21 296.972 334.259 320.301C336.775 323.447 338.977 321.612 339.763 320.301C340.393 269.974 335.307 245.334 332.686 239.306Z" fill="#5DA676"/>
<path d="M354.707 263.684C335.835 266.2 332.689 285.178 333.475 294.352L335.835 305.361L339.766 296.711C335.363 279.097 347.892 267.354 354.707 263.684Z" fill="url(#paint9_linear)"/>
<path d="M338.978 303.787C336.462 283.656 323.251 280.196 316.96 280.982C331.429 287.273 333.998 298.806 333.474 303.787C336.357 312.175 341.495 323.918 338.978 303.787Z" fill="url(#paint10_linear)"/>
<path d="M334.26 312.437C333.001 285.386 351.298 282.555 359.424 284.914C343.067 283.656 338.978 307.718 339.764 317.941L334.26 312.437Z" fill="#5DA676"/>
<path d="M332.686 326.115C331.428 334.922 333.21 383.782 334.259 407.111C336.775 410.256 338.977 408.421 339.763 407.111C340.393 356.783 335.307 332.144 332.686 326.115Z" fill="#5DA676"/>
<path d="M354.707 350.493C335.835 353.01 332.689 371.987 333.475 381.161L335.835 392.171L339.766 383.521C335.363 365.906 347.892 354.163 354.707 350.493Z" fill="url(#paint11_linear)"/>
<path d="M338.978 390.596C336.462 370.465 323.251 367.005 316.96 367.791C331.429 374.082 333.998 385.616 333.474 390.596C336.357 398.984 341.495 410.727 338.978 390.596Z" fill="url(#paint12_linear)"/>
<path d="M334.26 399.246C333.001 372.195 351.298 369.364 359.424 371.723C343.067 370.465 338.978 394.527 339.764 404.75L334.26 399.246Z" fill="#5DA676"/>
<path d="M411.6 280.344C410.342 289.151 412.125 338.011 413.173 361.339C415.689 364.485 417.891 362.65 418.678 361.339C419.307 311.012 414.222 286.373 411.6 280.344Z" fill="#5DA676"/>
<path d="M433.622 304.722C414.749 307.238 411.604 326.216 412.39 335.39L414.749 346.399L418.681 337.749C414.277 320.135 426.807 308.392 433.622 304.722Z" fill="url(#paint13_linear)"/>
<path d="M417.893 344.825C415.377 324.694 402.166 321.234 395.875 322.02C410.344 328.311 412.913 339.844 412.388 344.825C415.272 353.213 420.409 364.956 417.893 344.825Z" fill="url(#paint14_linear)"/>
<path d="M413.174 353.475C411.916 326.424 430.213 323.593 438.338 325.952C421.982 324.694 417.892 348.756 418.679 358.979L413.174 353.475Z" fill="#5DA676"/>
<path d="M413.178 367.153C411.92 375.96 413.703 424.82 414.751 448.148C417.267 451.294 419.469 449.459 420.256 448.148C420.885 397.821 415.8 373.182 413.178 367.153Z" fill="#5DA676"/>
<path d="M435.2 391.531C416.327 394.047 413.182 413.025 413.968 422.199L416.327 433.208L420.259 424.558C415.855 406.944 428.385 395.201 435.2 391.531Z" fill="url(#paint15_linear)"/>
<path d="M419.471 431.634C416.955 411.503 403.744 408.043 397.453 408.829C411.922 415.12 414.491 426.653 413.966 431.634C416.85 440.022 421.987 451.765 419.471 431.634Z" fill="url(#paint16_linear)"/>
<path d="M414.752 440.284C413.494 413.233 431.791 410.402 439.916 412.761C423.56 411.503 419.47 435.565 420.257 445.788L414.752 440.284Z" fill="#5DA676"/>
<path d="M482.627 326.115C481.369 334.922 483.152 383.782 484.2 407.111C486.716 410.256 488.919 408.421 489.705 407.111C490.334 356.783 485.249 332.144 482.627 326.115Z" fill="#5DA676"/>
<path d="M504.649 350.493C485.776 353.01 482.631 371.987 483.417 381.162L485.776 392.171L489.708 383.521C485.304 365.906 497.834 354.163 504.649 350.493Z" fill="url(#paint17_linear)"/>
<path d="M488.92 390.596C486.404 370.465 473.193 367.005 466.902 367.792C481.371 374.082 483.94 385.616 483.415 390.596C486.299 398.984 491.436 410.727 488.92 390.596Z" fill="url(#paint18_linear)"/>
<path d="M484.201 399.246C482.943 372.195 501.24 369.364 509.365 371.723C493.009 370.465 488.919 394.528 489.706 404.75L484.201 399.246Z" fill="#5DA676"/>
<path d="M464.965 171.345C465.882 174.298 467.343 177.031 469.262 179.388C471.182 181.745 473.523 183.68 476.152 185.082C478.781 186.484 481.647 187.326 484.585 187.559C487.523 187.793 490.477 187.414 493.278 186.443" stroke="#518579" stroke-dasharray="3 3"/>
<path d="M443.64 178.734C445.475 184.64 448.396 190.107 452.235 194.821C456.074 199.535 460.756 203.404 466.014 206.208C471.273 209.012 477.004 210.696 482.881 211.163C488.758 211.63 494.665 210.872 500.266 208.931" stroke="#FCD7A2" stroke-dasharray="3 3"/>
<path d="M422.319 186.123C425.072 194.983 429.453 203.182 435.212 210.253C440.97 217.324 447.994 223.129 455.881 227.335C463.768 231.541 472.365 234.066 481.18 234.767C489.996 235.468 498.857 234.33 507.258 231.419" stroke="#EA525F" stroke-dasharray="3 3"/>
<path d="M400.99 193.513C404.661 205.325 410.502 216.258 418.18 225.686C425.859 235.114 435.223 242.853 445.74 248.461C456.256 254.069 467.718 257.436 479.472 258.371C491.226 259.305 503.041 257.788 514.242 253.907" stroke="#9BD1AA" stroke-dasharray="3 3"/>
<path d="M379.67 200.902C384.258 215.668 391.56 229.333 401.157 241.118C410.755 252.903 422.461 262.577 435.606 269.587C448.752 276.597 463.08 280.807 477.772 281.975C492.464 283.143 507.233 281.247 521.235 276.395" stroke="#F77D5C" stroke-dasharray="3 3"/>
<path d="M594.756 133.737L616.794 112.915L490.191 76.0304L467.478 95.8634L594.756 133.737Z" fill="#FCD7A2" stroke="#FCD7A2" stroke-width="0.5"/>
<path d="M594.036 128.429L616.075 107.606L489.472 70.7218L466.759 90.5548L594.036 128.429Z" fill="#FCD7A2" stroke="#CBA267" stroke-width="0.5"/>
<path d="M604.671 104.098L582.565 124.848" stroke="#CBA267" stroke-width="0.5"/>
<path d="M570.26 94.6904L547.483 114.449" stroke="#CBA267" stroke-width="0.5"/>
<path d="M552.273 89.5608L529.495 109.32" stroke="#CBA267" stroke-width="0.5"/>
<path d="M535.944 84.7503L512.335 104.349" stroke="#CBA267" stroke-width="0.5"/>
<path d="M517.956 79.6232L494.347 99.2219" stroke="#CBA267" stroke-width="0.5"/>
<path d="M501.628 74.8083L478.019 94.4071" stroke="#CBA267" stroke-width="0.5"/>
<path d="M588.245 99.8176L565.308 120.408" stroke="#CBA267" stroke-width="0.5"/>
<path d="M606.541 117.006L478.117 80.6384" stroke="#CBA267" stroke-width="0.5"/>
<ellipse rx="18.1054" ry="12.3741" transform="matrix(-0.829183 -0.558977 -0.558977 0.829183 569.013 49.4543)" fill="#DDEDF9"/>
<path d="M565.858 83.2193L582.73 61.1601C591.176 52.6709 579.582 41.1272 575.908 39.1606L554.807 66.3112L565.858 83.2193Z" fill="#C0D8EB"/>
<path d="M554.798 67.1584L575.053 40.01L554.725 38.3675L533.626 66.3649L554.798 67.1584Z" fill="#DDEDF9"/>
<ellipse rx="18.8451" ry="12.4605" transform="matrix(-0.829183 -0.558977 -0.558977 0.829183 550.015 73.9988)" fill="url(#paint19_linear)"/>
<path d="M522.755 120.589L556.505 72.2365L528.561 72.3068L492.268 119.819L522.755 120.589Z" fill="#E6F5FF"/>
<path d="M556.511 72.2368L562.479 88.3109L529.575 136.661L522.761 120.589L556.511 72.2368Z" fill="#C0D8EB"/>
<ellipse rx="32.3348" ry="22.0709" transform="matrix(-0.829183 -0.558977 -0.558977 0.829183 513.266 129.08)" fill="url(#paint20_linear)"/>
<ellipse rx="32.3348" ry="22.0709" transform="matrix(-0.829183 -0.558977 -0.558977 0.829183 509.504 134.167)" fill="url(#paint21_linear)"/>
<path d="M509.863 134.203L492.142 158.804" stroke="#A6C2D5" stroke-width="2" stroke-linecap="round"/>
<circle r="5.08077" transform="matrix(-0.999997 0.00251465 0.00251465 0.999997 488.76 163.046)" fill="#A6C2D5"/>
<path d="M135.909 61.0622L165.284 78.8781L112.455 111.965L81.6284 92.8763C81.6284 92.8763 84.8214 87.7861 88.6529 85.8772C92.4845 83.9684 130.8 61.6985 130.8 61.6985C132.973 60.4788 134.05 60.199 135.909 61.0622Z" fill="url(#paint22_linear)"/>
<path d="M110.979 109.961L81.5394 92.6778C80.674 93.8318 79.6194 95.8797 79.6194 98.4397C79.6194 101 79.6194 137.48 79.6194 139.4C79.6194 141.32 80.687 142.558 82.1244 143.492L110.979 161.16L110.979 109.961Z" fill="url(#paint23_linear)"/>
<rect width="66.2624" height="55.0153" rx="7" transform="matrix(-0.866025 0.5 2.20305e-08 1 166.866 75.9446)" fill="url(#paint24_linear)"/>
<circle r="11.2275" transform="matrix(-0.866025 0.5 2.20305e-08 1 127.206 126.467)" fill="url(#paint25_linear)"/>
<circle r="7.20244" transform="matrix(-0.866025 0.5 2.20305e-08 1 124.452 125.421)" fill="#323A40"/>
<circle r="11.2275" transform="matrix(-0.866025 0.5 2.20305e-08 1 153.405 111.5)" fill="url(#paint26_linear)"/>
<circle r="7.20244" transform="matrix(-0.866025 0.5 2.20305e-08 1 150.648 110.452)" fill="#323A40"/>
<circle r="5.04171" transform="matrix(-0.866025 0.5 2.20305e-08 1 150.024 109.705)" fill="#435059"/>
<circle r="2.16073" transform="matrix(-0.866025 0.5 2.20305e-08 1 148.784 109.127)" fill="#C9ECD7"/>
<circle r="5.04171" transform="matrix(-0.866025 0.5 2.20305e-08 1 123.831 124.674)" fill="#435059"/>
<circle r="2.16073" transform="matrix(-0.866025 0.5 2.20305e-08 1 122.573 124.095)" fill="#C9ECD7"/>
<path d="M125.631 71.8884C130.59 68.1295 118.193 56.8533 108.274 62.4912C98.3549 68.1291 120.052 77.5267 125.631 71.8884Z" fill="#ABD5B7" fill-opacity="0.2"/>
<path d="M129.32 1.09631L118.782 56.8529C149.777 75.0207 118.782 85.6709 99.5645 69.3824L0.999969 75.6472C7.81891 80.0326 22.0766 89.4297 27.0359 92.5621C32.9832 96.3187 44.3932 98.8269 49.9723 98.8269H140.478C193.17 116.368 182.012 96.321 170.853 85.0444C168.994 72.5148 164.035 45.5763 162.175 32.4202C160.42 20.0067 155.356 13.8347 151.637 12.3729L129.32 1.09631Z" fill="#ABD5B7" fill-opacity="0.2"/>
<path d="M125.631 71.8884C130.59 68.1295 118.193 56.8533 108.274 62.4912C98.3549 68.1291 120.052 77.5267 125.631 71.8884Z" stroke="#74BD44" stroke-width="0.5"/>
<path d="M129.32 1.09631L118.782 56.8529C149.777 75.0207 118.782 85.6709 99.5645 69.3824L0.999969 75.6472C7.81891 80.0326 22.0766 89.4297 27.0359 92.5621C32.9832 96.3187 44.3932 98.8269 49.9723 98.8269H140.478C193.17 116.368 182.012 96.321 170.853 85.0444C168.994 72.5148 164.035 45.5763 162.175 32.4202C160.42 20.0067 155.356 13.8347 151.637 12.3729L129.32 1.09631Z" stroke="#74BD44" stroke-width="0.5"/>
<line y1="-0.5" x2="247.808" y2="-0.5" transform="matrix(0.582816 0.812604 0.812604 -0.582816 171.562 148.033)" stroke="#5DA676" stroke-dasharray="3 3"/>
<line y1="-0.5" x2="247.341" y2="-0.5" transform="matrix(0.569728 0.821833 0.821833 -0.569728 164.137 155.115)" stroke="#FCD7A2" stroke-dasharray="3 3"/>
<line y1="-0.5" x2="250.139" y2="-0.5" transform="matrix(0.539239 0.842153 0.842153 -0.539239 130.559 173.613)" stroke="#F77D5C" stroke-dasharray="3 3"/>
<line y1="-0.5" x2="248.678" y2="-0.5" transform="matrix(0.551622 0.834094 0.834094 -0.551622 142.551 168.519)" stroke="#9BD1AA" stroke-dasharray="3 3"/>
<path d="M152.387 161.667L291.994 367.838" stroke="#EA525F" stroke-dasharray="3 3"/>
<line y1="-0.5" x2="222.632" y2="-0.5" transform="matrix(1 1.10098e-08 1.10098e-08 -1 217.47 94.6013)" stroke="#5DA676"/>
<line x1="216.95" y1="117.83" x2="439.582" y2="117.83" stroke="#FCD7A2"/>
<path d="M437.2 97.5735L437.274 92.7539L442.586 94.907L437.2 97.5735Z" fill="#5DA676"/>
<path d="M220.34 115.293L220.051 120.104L214.841 117.716L220.34 115.293Z" fill="#FCD7A2"/>
<defs>
<filter id="filter0_d" x="69.8608" y="246.813" width="533.907" height="350.597" filterUnits="userSpaceOnUse" color-interpolation-filters="sRGB">
<feFlood flood-opacity="0" result="BackgroundImageFix"/>
<feColorMatrix in="SourceAlpha" type="matrix" values="0 0 0 0 0 0 0 0 0 0 0 0 0 0 0 0 0 0 127 0"/>
<feOffset dy="12"/>
<feGaussianBlur stdDeviation="20"/>
<feColorMatrix type="matrix" values="0 0 0 0 0.339427 0 0 0 0 0.423456 0 0 0 0 0.554167 0 0 0 0.1 0"/>
<feBlend mode="normal" in2="BackgroundImageFix" result="effect1_dropShadow"/>
<feBlend mode="normal" in="SourceGraphic" in2="effect1_dropShadow" result="shape"/>
</filter>
<linearGradient id="paint0_linear" x1="130.982" y1="0" x2="130.982" y2="261.964" gradientUnits="userSpaceOnUse">
<stop stop-color="#F1F0FF"/>
<stop offset="1" stop-color="white"/>
</linearGradient>
<linearGradient id="paint1_linear" x1="340.872" y1="447.218" x2="360.362" y2="468.833" gradientUnits="userSpaceOnUse">
<stop stop-color="#5DA676"/>
<stop offset="1" stop-color="#1E6D39"/>
</linearGradient>
<linearGradient id="paint2_linear" x1="324.978" y1="463.339" x2="339.948" y2="484.965" gradientUnits="userSpaceOnUse">
<stop stop-color="#5DA676"/>
<stop offset="1" stop-color="#1E6D39"/>
</linearGradient>
<linearGradient id="paint3_linear" x1="265.693" y1="400.551" x2="285.182" y2="422.166" gradientUnits="userSpaceOnUse">
<stop stop-color="#5DA676"/>
<stop offset="1" stop-color="#1E6D39"/>
</linearGradient>
<linearGradient id="paint4_linear" x1="249.798" y1="416.672" x2="264.768" y2="438.299" gradientUnits="userSpaceOnUse">
<stop stop-color="#5DA676"/>
<stop offset="1" stop-color="#1E6D39"/>
</linearGradient>
<linearGradient id="paint5_linear" x1="189.93" y1="356.354" x2="209.42" y2="377.969" gradientUnits="userSpaceOnUse">
<stop stop-color="#5DA676"/>
<stop offset="1" stop-color="#1E6D39"/>
</linearGradient>
<linearGradient id="paint6_linear" x1="174.036" y1="372.475" x2="189.006" y2="394.102" gradientUnits="userSpaceOnUse">
<stop stop-color="#5DA676"/>
<stop offset="1" stop-color="#1E6D39"/>
</linearGradient>
<linearGradient id="paint7_linear" x1="265.693" y1="313.742" x2="285.182" y2="335.356" gradientUnits="userSpaceOnUse">
<stop stop-color="#5DA676"/>
<stop offset="1" stop-color="#1E6D39"/>
</linearGradient>
<linearGradient id="paint8_linear" x1="249.798" y1="329.862" x2="264.768" y2="351.489" gradientUnits="userSpaceOnUse">
<stop stop-color="#5DA676"/>
<stop offset="1" stop-color="#1E6D39"/>
</linearGradient>
<linearGradient id="paint9_linear" x1="341.462" y1="269.545" x2="360.951" y2="291.16" gradientUnits="userSpaceOnUse">
<stop stop-color="#5DA676"/>
<stop offset="1" stop-color="#1E6D39"/>
</linearGradient>
<linearGradient id="paint10_linear" x1="325.567" y1="285.666" x2="340.537" y2="307.292" gradientUnits="userSpaceOnUse">
<stop stop-color="#5DA676"/>
<stop offset="1" stop-color="#1E6D39"/>
</linearGradient>
<linearGradient id="paint11_linear" x1="341.462" y1="356.354" x2="360.951" y2="377.969" gradientUnits="userSpaceOnUse">
<stop stop-color="#5DA676"/>
<stop offset="1" stop-color="#1E6D39"/>
</linearGradient>
<linearGradient id="paint12_linear" x1="325.567" y1="372.475" x2="340.537" y2="394.102" gradientUnits="userSpaceOnUse">
<stop stop-color="#5DA676"/>
<stop offset="1" stop-color="#1E6D39"/>
</linearGradient>
<linearGradient id="paint13_linear" x1="420.376" y1="310.583" x2="439.866" y2="332.198" gradientUnits="userSpaceOnUse">
<stop stop-color="#5DA676"/>
<stop offset="1" stop-color="#1E6D39"/>
</linearGradient>
<linearGradient id="paint14_linear" x1="404.482" y1="326.704" x2="419.452" y2="348.33" gradientUnits="userSpaceOnUse">
<stop stop-color="#5DA676"/>
<stop offset="1" stop-color="#1E6D39"/>
</linearGradient>
<linearGradient id="paint15_linear" x1="421.954" y1="397.392" x2="441.444" y2="419.007" gradientUnits="userSpaceOnUse">
<stop stop-color="#5DA676"/>
<stop offset="1" stop-color="#1E6D39"/>
</linearGradient>
<linearGradient id="paint16_linear" x1="406.06" y1="413.513" x2="421.03" y2="435.139" gradientUnits="userSpaceOnUse">
<stop stop-color="#5DA676"/>
<stop offset="1" stop-color="#1E6D39"/>
</linearGradient>
<linearGradient id="paint17_linear" x1="491.403" y1="356.355" x2="510.893" y2="377.969" gradientUnits="userSpaceOnUse">
<stop stop-color="#5DA676"/>
<stop offset="1" stop-color="#1E6D39"/>
</linearGradient>
<linearGradient id="paint18_linear" x1="475.509" y1="372.475" x2="490.479" y2="394.102" gradientUnits="userSpaceOnUse">
<stop stop-color="#5DA676"/>
<stop offset="1" stop-color="#1E6D39"/>
</linearGradient>
<linearGradient id="paint19_linear" x1="18.8451" y1="0" x2="18.8451" y2="24.921" gradientUnits="userSpaceOnUse">
<stop stop-color="#E6F5FF"/>
<stop offset="1" stop-color="#CDDCE7"/>
</linearGradient>
<linearGradient id="paint20_linear" x1="67.6792" y1="16.362" x2="-3.24244" y2="15.3488" gradientUnits="userSpaceOnUse">
<stop stop-color="#A1CBDF"/>
<stop offset="1" stop-color="#EBFEFF"/>
</linearGradient>
<linearGradient id="paint21_linear" x1="32.3348" y1="0" x2="32.3348" y2="44.1417" gradientUnits="userSpaceOnUse">
<stop stop-color="#C1DCEE"/>
<stop offset="1" stop-color="#EEFDFF"/>
</linearGradient>
<linearGradient id="paint22_linear" x1="123.776" y1="61.0613" x2="123.776" y2="111.964" gradientUnits="userSpaceOnUse">
<stop stop-color="#D6EED7"/>
<stop offset="1" stop-color="#89CA9C"/>
</linearGradient>
<linearGradient id="paint23_linear" x1="96.2319" y1="99.5426" x2="73.6756" y2="138.611" gradientUnits="userSpaceOnUse">
<stop stop-color="#B6D8C0"/>
<stop offset="1" stop-color="#52BC71"/>
</linearGradient>
<linearGradient id="paint24_linear" x1="33.1312" y1="-1.77086e-06" x2="55.1373" y2="44.0122" gradientUnits="userSpaceOnUse">
<stop stop-color="#AAD5B6"/>
<stop offset="1" stop-color="#8EDEA6"/>
</linearGradient>
<linearGradient id="paint25_linear" x1="11.2275" y1="0" x2="11.2275" y2="22.455" gradientUnits="userSpaceOnUse">
<stop stop-color="#B6D8C0"/>
<stop offset="1" stop-color="#64AE7A"/>
</linearGradient>
<linearGradient id="paint26_linear" x1="11.2275" y1="0" x2="11.2275" y2="22.455" gradientUnits="userSpaceOnUse">
<stop stop-color="#B6D8C0"/>
<stop offset="1" stop-color="#64AE7A"/>
</linearGradient>
</defs>
</svg>
