<svg width="465" height="394" viewBox="0 0 465 394" fill="none" xmlns="http://www.w3.org/2000/svg">
<g filter="url(#filter0_d)">
<path d="M424.6 223.949L415.985 223.949L415.986 231.32L424.601 231.32L424.6 223.949Z" fill="#D1DFEA"/>
<path d="M49.2473 223.947L40.6326 223.947L40.6338 231.319L49.2485 231.319L49.2473 223.947Z" fill="#D1DFEA"/>
<rect width="221.508" height="221.508" transform="matrix(0.866718 0.49917 -0.866718 0.49917 232.617 120.749)" fill="#D1DFEA"/>
<rect width="221.508" height="221.508" transform="matrix(0.866718 0.49917 -0.866718 0.49917 232.618 113.379)" fill="url(#paint0_linear)"/>
<line y1="-0.5" x2="221.426" y2="-0.5" transform="matrix(0.866398 0.499355 -0.866398 0.499355 168.527 150.236)" stroke="#DCE3F2"/>
<line y1="-0.5" x2="221.426" y2="-0.5" transform="matrix(0.866398 0.499355 -0.866398 0.499355 104.579 187.092)" stroke="#DCE3F2"/>
<line y1="-0.5" x2="221.426" y2="-0.5" transform="matrix(0.866398 -0.499355 0.866398 0.499355 104.579 260.805)" stroke="#DCE3F2"/>
<line y1="-0.5" x2="221.426" y2="-0.5" transform="matrix(0.866398 -0.499355 0.866398 0.499355 168.527 297.662)" stroke="#DCE3F2"/>
</g>
<rect width="72.43" height="72.43" transform="matrix(0.866398 0.499355 -0.866398 0.499355 231.843 178.607)" fill="url(#paint1_linear)"/>
<path d="M231.843 260.579V250.582L294.597 214.594V223.924L231.843 260.579Z" fill="url(#paint2_linear)"/>
<path d="M233.179 260.579V250.582L170.426 214.594V223.924L233.179 260.579Z" fill="url(#paint3_linear)"/>
<path d="M211.82 185.271V218.524L231.847 230.589V197.92L211.82 185.271Z" fill="url(#paint4_linear)"/>
<path d="M231.843 230.589V197.337L251.871 185.271V217.94L231.843 230.589Z" fill="url(#paint5_linear)"/>
<path d="M322.634 101.299L313.288 107.11V246.583L322.634 239.318V101.299Z" fill="url(#paint6_linear)"/>
<path d="M322.637 101.299L313.29 107.297L138.383 5.99796L147.729 0L322.637 101.299Z" fill="url(#paint7_linear)"/>
<rect x="3.46559" y="5.99742" width="194.715" height="131.765" transform="matrix(0.866398 0.499355 -2.20684e-08 1 138.845 3.6013)" fill="white" stroke="url(#paint8_linear)" stroke-width="8"/>
<path d="M294.639 118.626C289.876 118.626 289.195 238.402 289.876 293.874C294.23 298.766 297.587 295.912 298.721 293.874C299.628 232.515 298.721 118.626 294.639 118.626Z" fill="#5DA676"/>
<path d="M258.574 158.702C286.335 159.789 297.812 185.646 298.039 198.778C295.771 214.175 291.915 211.684 291.915 211.684C293.548 183.97 274.224 164.815 258.574 158.702Z" fill="url(#paint9_linear)"/>
<path d="M327.975 168.893C299.125 162.915 290.551 195.836 289.871 213.044C293.244 243.036 295.207 233.766 298.717 214.403C298.172 183.973 317.995 171.383 327.975 168.893Z" fill="url(#paint10_linear)"/>
<path d="M257.211 196.065C284.972 192.261 296.449 219.386 298.717 233.424C296.222 240.896 290.96 251.357 289.871 233.424C288.783 215.491 267.644 201.046 257.211 196.065Z" fill="url(#paint11_linear)"/>
<path d="M327.979 204.214C290.964 203.671 287.154 247.913 289.875 270.102C294.185 276.442 298.721 286.404 298.721 249.724C298.721 221.28 316.865 208.969 327.979 204.214Z" fill="url(#paint12_linear)"/>
<path d="M266.738 235.461C289.056 232.744 295.543 251.537 295.996 261.273C295.996 268.518 295.044 278.662 291.233 261.273C287.423 243.885 273.316 236.82 266.738 235.461Z" fill="url(#paint13_linear)"/>
<path d="M289.871 277.576C290.96 229.756 315.954 225.047 327.975 228.67C304.024 228.67 298.49 261.274 298.717 277.576H289.871Z" fill="#5DA676"/>
<path d="M68.9663 63.3653L99.3204 81.8959L44.731 116.31L12.8772 96.4557C12.8772 96.4557 16.1765 91.1612 20.1358 89.1758C24.095 87.1904 63.6873 64.0271 63.6873 64.0271C65.9328 62.7584 67.045 62.4674 68.9663 63.3653Z" fill="url(#paint14_linear)"/>
<path d="M43.3203 114.42L12.9788 96.6387C12.0868 97.8259 11 99.9329 11 102.567C11 105.201 11 142.733 11 144.708C11 146.684 12.1002 146.771 13.5817 147.732L43.3202 165.91L43.3203 114.42Z" fill="url(#paint15_linear)"/>
<rect width="67.8068" height="56.2249" rx="7" transform="matrix(-0.866398 0.499355 2.20684e-08 1 101.001 79.1628)" fill="url(#paint16_linear)"/>
<ellipse rx="11.4892" ry="11.4744" transform="matrix(-0.866398 0.499355 2.20684e-08 1 60.3982 130.796)" fill="url(#paint17_linear)"/>
<ellipse rx="7.37031" ry="7.3608" transform="matrix(-0.866398 0.499355 2.20684e-08 1 57.5768 129.724)" fill="#323A40"/>
<ellipse rx="11.4892" ry="11.4744" transform="matrix(-0.866398 0.499355 2.20684e-08 1 87.2185 115.498)" fill="url(#paint18_linear)"/>
<ellipse rx="7.37031" ry="7.3608" transform="matrix(-0.866398 0.499355 2.20684e-08 1 84.4004 114.427)" fill="#323A40"/>
<ellipse rx="5.15922" ry="5.15256" transform="matrix(-0.866398 0.499355 2.20684e-08 1 83.7575 113.663)" fill="#435059"/>
<ellipse rx="2.21109" ry="2.20824" transform="matrix(-0.866398 0.499355 2.20684e-08 1 82.4836 113.071)" fill="#C9ECD7"/>
<ellipse rx="5.15922" ry="5.15256" transform="matrix(-0.866398 0.499355 2.20684e-08 1 56.942 128.963)" fill="#435059"/>
<ellipse rx="2.21109" ry="2.20824" transform="matrix(-0.866398 0.499355 2.20684e-08 1 55.6632 128.373)" fill="#C9ECD7"/>
<path d="M181.031 63.1691C160.709 53.0222 168.346 69.1687 168.346 82.4959C156.998 80.5003 162.338 93.159 162.338 115.818C162.338 133.149 172.351 139.14 177.692 141.143C183.034 143.146 187.707 145.145 205.064 155.138C221.177 164.415 223.533 160.025 223.756 155.138C224.424 145.363 222.421 120.49 222.421 95.8284C222.421 66.4466 202.394 73.8362 181.031 63.1691Z" fill="#8DD6A2"/>
<path d="M179.697 80.4965C180.231 83.1624 181.7 87.8283 185.706 82.4943C189.883 76.9324 179.03 77.165 179.697 80.4965Z" fill="#EA525F"/>
<path d="M194.384 76.4988C195.274 80.2753 197.588 87.5617 199.725 86.4954C202.395 85.1626 196.387 73.8331 194.384 76.4988Z" fill="#EA525F"/>
<path d="M218.417 101.824C212.542 104.49 211.519 91.3829 211.741 84.4963C216.014 78.6317 216.192 89.6057 215.747 95.8258C218.761 99.0247 218.783 101.157 218.417 101.824Z" fill="#EA525F"/>
<path d="M208.403 104.49C204.131 100.757 202.618 97.1587 202.395 95.8258C204.398 91.1607 215.079 103.157 212.409 104.49C210.273 105.556 210.184 107.6 210.406 108.488C227.096 118.485 215.747 138.478 213.076 140.477C210.94 142.077 209.071 136.701 208.403 133.813C200.392 131.147 195.719 113.82 206.401 119.151C214.946 123.416 215.302 120.928 214.412 119.151C209.961 115.153 201.861 107.155 205.065 107.155C208.27 107.155 208.626 105.378 208.403 104.49Z" fill="#EA525F"/>
<path d="M195.052 113.82C192.159 116.263 188.509 122.617 197.054 128.481C199.28 125.593 201.994 118.618 195.052 113.82Z" fill="#EA525F"/>
<path d="M173.689 132.48C174.223 129.281 175.246 128.481 175.691 128.481C177.294 140.744 179.92 140.699 181.032 139.144C181.255 138.478 180.365 133.813 175.024 120.484C169.683 107.155 168.348 114.486 168.348 119.818C161.005 121.817 173.021 136.479 173.689 132.48Z" fill="#EA525F"/>
<path d="M168.598 91.1607C168.799 75.6993 177.861 84.7185 182.367 91.1607C193.583 84.2297 190.156 91.3829 187.041 95.8258C187.708 109.157 168.348 110.487 168.598 91.1607Z" fill="#EA525F"/>
<path d="M247.122 140.275L242.449 138.276V113.618C242.449 106.953 247.122 108.288 247.122 115.617V140.275Z" fill="#8DD6A2"/>
<path d="M242.448 142.277L247.121 144.276V168.934C247.121 175.6 242.448 174.264 242.448 166.935V142.277Z" fill="#EA525F"/>
<path d="M278.495 126.482L262.473 118.484V123.149L278.495 131.147V126.482Z" fill="#D1DEE8"/>
<path d="M271.819 133.149L262.473 128.484V133.149L271.819 137.815V133.149Z" fill="#D1DEE8"/>
<path d="M77.6327 133.954L179.106 192.268M280.579 250.581L179.106 192.268M179.106 192.268L226.505 163.944" stroke="#F77D5C" stroke-dasharray="3 3"/>
<defs>
<filter id="filter0_d" x="0.631897" y="85.3785" width="463.971" height="308.511" filterUnits="userSpaceOnUse" color-interpolation-filters="sRGB">
<feFlood flood-opacity="0" result="BackgroundImageFix"/>
<feColorMatrix in="SourceAlpha" type="matrix" values="0 0 0 0 0 0 0 0 0 0 0 0 0 0 0 0 0 0 127 0"/>
<feOffset dy="12"/>
<feGaussianBlur stdDeviation="20"/>
<feColorMatrix type="matrix" values="0 0 0 0 0.339427 0 0 0 0 0.423456 0 0 0 0 0.554167 0 0 0 0.1 0"/>
<feBlend mode="normal" in2="BackgroundImageFix" result="effect1_dropShadow"/>
<feBlend mode="normal" in="SourceGraphic" in2="effect1_dropShadow" result="shape"/>
</filter>
<linearGradient id="paint0_linear" x1="110.754" y1="0" x2="110.754" y2="221.508" gradientUnits="userSpaceOnUse">
<stop stop-color="#F1F0FF"/>
<stop offset="1" stop-color="white"/>
</linearGradient>
<linearGradient id="paint1_linear" x1="36.215" y1="0" x2="36.215" y2="72.43" gradientUnits="userSpaceOnUse">
<stop stop-color="#BDE4F6"/>
<stop offset="1" stop-color="#D0D4EE"/>
</linearGradient>
<linearGradient id="paint2_linear" x1="263.22" y1="214.594" x2="263.22" y2="260.579" gradientUnits="userSpaceOnUse">
<stop stop-color="#DDECF7"/>
<stop offset="1" stop-color="#D2D6EF"/>
</linearGradient>
<linearGradient id="paint3_linear" x1="201.802" y1="214.594" x2="201.802" y2="260.579" gradientUnits="userSpaceOnUse">
<stop stop-color="#EFFAFF"/>
<stop offset="1" stop-color="#D2D4EE"/>
</linearGradient>
<linearGradient id="paint4_linear" x1="237.967" y1="225.525" x2="237.967" y2="185.272" gradientUnits="userSpaceOnUse">
<stop stop-color="#EFFAFF"/>
<stop offset="1" stop-color="#D2D4EE"/>
</linearGradient>
<linearGradient id="paint5_linear" x1="257.991" y1="190.336" x2="257.991" y2="230.588" gradientUnits="userSpaceOnUse">
<stop stop-color="#EFFAFF"/>
<stop offset="1" stop-color="#D2D4EE"/>
</linearGradient>
<linearGradient id="paint6_linear" x1="317.961" y1="101.299" x2="317.961" y2="246.583" gradientUnits="userSpaceOnUse">
<stop stop-color="#BBE4F7"/>
<stop offset="1" stop-color="#D2D3EE"/>
</linearGradient>
<linearGradient id="paint7_linear" x1="230.51" y1="0" x2="230.51" y2="107.297" gradientUnits="userSpaceOnUse">
<stop stop-color="#BFE2F2"/>
<stop offset="1" stop-color="#BCBDE2"/>
</linearGradient>
<linearGradient id="paint8_linear" x1="101.358" y1="0" x2="101.358" y2="139.765" gradientUnits="userSpaceOnUse">
<stop stop-color="#D2D2ED"/>
<stop offset="1" stop-color="#EFFBFF"/>
</linearGradient>
<linearGradient id="paint9_linear" x1="273.543" y1="166.174" x2="295.942" y2="202.209" gradientUnits="userSpaceOnUse">
<stop stop-color="#5DA676"/>
<stop offset="1" stop-color="#1E6D39"/>
</linearGradient>
<linearGradient id="paint10_linear" x1="304.324" y1="177.201" x2="333.563" y2="214.805" gradientUnits="userSpaceOnUse">
<stop stop-color="#5DA676"/>
<stop offset="1" stop-color="#1E6D39"/>
</linearGradient>
<linearGradient id="paint11_linear" x1="272.954" y1="202.4" x2="291.477" y2="237.366" gradientUnits="userSpaceOnUse">
<stop stop-color="#5DA676"/>
<stop offset="1" stop-color="#1E6D39"/>
</linearGradient>
<linearGradient id="paint12_linear" x1="303.897" y1="214.346" x2="337.392" y2="253.395" gradientUnits="userSpaceOnUse">
<stop stop-color="#5DA676"/>
<stop offset="1" stop-color="#1E6D39"/>
</linearGradient>
<linearGradient id="paint13_linear" x1="277.836" y1="240.213" x2="292.178" y2="265.687" gradientUnits="userSpaceOnUse">
<stop stop-color="#5DA676"/>
<stop offset="1" stop-color="#1E6D39"/>
</linearGradient>
<linearGradient id="paint14_linear" x1="56.4287" y1="63.3643" x2="56.4287" y2="116.309" gradientUnits="userSpaceOnUse">
<stop stop-color="#D6EED7"/>
<stop offset="1" stop-color="#89CA9C"/>
</linearGradient>
<linearGradient id="paint15_linear" x1="28.1212" y1="103.701" x2="4.93405" y2="143.932" gradientUnits="userSpaceOnUse">
<stop stop-color="#B6D8C0"/>
<stop offset="1" stop-color="#52BC71"/>
</linearGradient>
<linearGradient id="paint16_linear" x1="33.9034" y1="-1.80979e-06" x2="56.376" y2="45.0032" gradientUnits="userSpaceOnUse">
<stop stop-color="#AAD5B6"/>
<stop offset="1" stop-color="#8EDEA6"/>
</linearGradient>
<linearGradient id="paint17_linear" x1="11.4892" y1="0" x2="11.4892" y2="22.9487" gradientUnits="userSpaceOnUse">
<stop stop-color="#B6D8C0"/>
<stop offset="1" stop-color="#64AE7A"/>
</linearGradient>
<linearGradient id="paint18_linear" x1="11.4892" y1="0" x2="11.4892" y2="22.9487" gradientUnits="userSpaceOnUse">
<stop stop-color="#B6D8C0"/>
<stop offset="1" stop-color="#64AE7A"/>
</linearGradient>
</defs>
</svg>
