<svg width="1117" height="259" viewBox="0 0 1117 259" fill="none" xmlns="http://www.w3.org/2000/svg">
<path d="M163.75 208.902L160.137 208.902L160.137 212L163.751 212L163.75 208.902Z" fill="#D1DFEA"/>
<path d="M6.3088 208.901L2.69531 208.901L2.69582 211.999L6.3093 211.999L6.3088 208.901Z" fill="#D1DFEA"/>
<rect width="92.9526" height="92.9526" transform="matrix(0.866346 0.499815 -0.866346 0.499815 83.2246 165.54)" fill="#D1DFEA"/>
<rect width="92.9526" height="92.9526" transform="matrix(0.866346 0.499815 -0.866346 0.499815 83.2246 162.442)" fill="url(#paint0_linear)"/>
<path d="M84.3842 174.864C82.6049 187.201 78.2413 175.339 79.724 208.017C83.2821 212.423 86.3964 209.853 87.5088 208.017C88.3984 137.52 88.0911 183.309 84.3842 174.864Z" fill="#8BBC9C"/>
<path d="M86.3967 184.884C82.8382 156.686 64.156 151.839 55.2598 152.941C75.7212 161.752 78.0851 179.542 79.6593 188.898C83.7367 200.647 89.9552 213.083 86.3967 184.884Z" fill="url(#paint1_linear)"/>
<path d="M79.7279 197C77.9487 159.109 103.823 155.143 115.314 158.447C92.183 156.685 86.4001 190.391 87.5121 204.711L79.7279 197Z" fill="#8BBC9C"/>
<path d="M354.381 208.903L350.768 208.903L350.768 212L354.382 212L354.381 208.903Z" fill="#D1DFEA"/>
<path d="M196.94 208.901L193.326 208.901L193.327 211.999L196.94 211.999L196.94 208.901Z" fill="#D1DFEA"/>
<rect width="92.9526" height="92.9526" transform="matrix(0.866346 0.499815 -0.866346 0.499815 273.855 165.541)" fill="#D1DFEA"/>
<rect width="92.9526" height="92.9526" transform="matrix(0.866346 0.499815 -0.866346 0.499815 273.855 162.442)" fill="url(#paint2_linear)"/>
<path d="M267.537 79.5344C265.544 93.471 268.367 170.786 270.028 207.701C274.014 212.679 277.502 209.775 278.748 207.701C279.745 128.064 271.689 89.0744 267.537 79.5344Z" fill="#91C9A4"/>
<path d="M302.413 118.111C272.518 122.092 267.535 152.123 268.781 166.64L272.518 184.061L278.746 170.373C271.77 142.5 291.618 123.918 302.413 118.111Z" fill="url(#paint3_linear)"/>
<path d="M277.501 181.569C273.515 149.714 252.588 144.239 242.623 145.483C265.543 155.437 269.612 173.688 268.782 181.569C273.349 194.842 281.487 213.424 277.501 181.569Z" fill="url(#paint4_linear)"/>
<path d="M270.022 195.257C268.029 152.451 297.011 147.972 309.883 151.705C283.973 149.714 277.496 187.79 278.741 203.967L270.022 195.257Z" fill="#91C9A4"/>
<path d="M544.145 208.902L540.531 208.902L540.532 212L544.145 212L544.145 208.902Z" fill="#D1DFEA"/>
<path d="M386.703 208.901L383.09 208.901L383.09 211.998L386.704 211.998L386.703 208.901Z" fill="#D1DFEA"/>
<rect width="92.9526" height="92.9526" transform="matrix(0.866346 0.499815 -0.866346 0.499815 463.619 165.54)" fill="#D1DFEA"/>
<rect width="92.9526" height="92.9526" transform="matrix(0.866346 0.499815 -0.866346 0.499815 463.619 162.442)" fill="url(#paint5_linear)"/>
<path d="M463.787 124.272C457.652 124.272 456.391 169.921 457.267 208.569C462.877 211.976 467.201 209.989 468.662 208.569C469.831 165.82 469.045 124.272 463.787 124.272Z" fill="#89C69E"/>
<path d="M419.182 90.7738C452.164 86.2552 465.799 118.477 468.494 135.153C465.53 144.029 459.278 156.456 457.985 135.153C456.691 113.851 431.577 96.691 419.182 90.7738Z" fill="url(#paint6_linear)"/>
<path d="M503.255 100.454C459.278 99.8084 454.751 152.364 457.985 178.723C463.105 186.254 468.494 198.089 468.494 154.517C468.494 120.727 490.051 106.102 503.255 100.454Z" fill="url(#paint7_linear)"/>
<path d="M430.492 137.573C457.008 134.346 464.714 156.67 465.253 168.235C465.253 176.842 464.121 188.892 459.594 168.235C455.067 147.579 438.307 139.187 430.492 137.573Z" fill="url(#paint8_linear)"/>
<path d="M457.979 187.602C459.272 130.796 488.967 125.202 503.249 129.505C474.793 129.505 468.218 168.236 468.488 187.602H457.979Z" fill="#89C69E"/>
<path d="M733.914 208.902L730.301 208.902L730.301 212L733.915 212L733.914 208.902Z" fill="#D1DFEA"/>
<path d="M576.473 208.901L572.859 208.901L572.86 211.998L576.473 211.998L576.473 208.901Z" fill="#D1DFEA"/>
<rect width="92.9526" height="92.9526" transform="matrix(0.866346 0.499815 -0.866346 0.499815 653.389 165.54)" fill="#D1DFEA"/>
<rect width="92.9526" height="92.9526" transform="matrix(0.866346 0.499815 -0.866346 0.499815 653.389 162.442)" fill="url(#paint9_linear)"/>
<path d="M655.576 86.5315C649.441 86.5315 648.564 169.939 649.44 208.569C655.05 211.975 659.374 209.988 660.835 208.569C662.003 165.84 660.834 86.5315 655.576 86.5315Z" fill="#89C69E"/>
<path d="M672.576 49.5078C650.144 49.5078 650.951 90.5586 650.143 110.991C654.15 146.602 656.483 135.594 660.651 112.604C660.005 76.4719 660.72 52.4653 672.576 49.5078Z" fill="url(#paint10_linear)"/>
<path d="M611.348 90.83C644.329 86.3135 657.964 118.521 660.658 135.189C657.694 144.061 651.443 156.481 650.149 135.189C648.856 113.896 623.743 96.7444 611.348 90.83Z" fill="url(#paint11_linear)"/>
<path d="M695.421 100.506C651.446 99.8607 646.919 152.392 650.153 178.739C655.272 186.266 660.662 198.096 660.662 154.543C660.662 120.769 682.218 106.152 695.421 100.506Z" fill="url(#paint12_linear)"/>
<path d="M622.658 137.608C649.173 134.382 656.879 156.696 657.418 168.256C657.418 176.859 656.286 188.903 651.76 168.256C647.233 147.61 630.472 139.222 622.658 137.608Z" fill="url(#paint13_linear)"/>
<path d="M650.143 187.613C651.436 130.834 681.13 125.242 695.411 129.544C666.957 129.544 660.382 168.257 660.651 187.613H650.143Z" fill="#89C69E"/>
<path d="M923.684 208.903L920.07 208.903L920.071 212L923.684 212L923.684 208.903Z" fill="#D1DFEA"/>
<path d="M766.24 208.901L762.627 208.901L762.627 211.999L766.241 211.999L766.24 208.901Z" fill="#D1DFEA"/>
<rect width="92.9526" height="92.9526" transform="matrix(0.866346 0.499815 -0.866346 0.499815 843.156 165.541)" fill="#D1DFEA"/>
<rect width="92.9526" height="92.9526" transform="matrix(0.866346 0.499815 -0.866346 0.499815 843.156 162.442)" fill="url(#paint14_linear)"/>
<path d="M845.281 77.947C839.623 77.947 837.916 139.315 838.724 206.002C843.898 211.882 847.886 208.452 849.233 206.002C850.311 132.238 850.13 77.947 845.281 77.947Z" fill="#5DA676"/>
<path d="M801.531 43.5029C834.513 44.8095 848.147 75.8938 848.417 91.681C845.722 110.19 841.141 107.196 841.141 107.196C843.082 73.8796 820.124 50.8521 801.531 43.5029Z" fill="url(#paint15_linear)"/>
<path d="M883.982 55.7535C849.707 48.5676 839.521 88.1444 838.713 108.831C842.72 144.886 845.053 133.741 849.222 110.465C848.575 73.8821 872.126 58.7478 883.982 55.7535Z" fill="url(#paint16_linear)"/>
<path d="M799.916 88.4191C832.898 83.8463 846.532 116.455 849.227 133.331C846.263 142.313 840.011 154.889 838.718 133.331C837.424 111.773 812.311 94.4072 799.916 88.4191Z" fill="url(#paint17_linear)"/>
<path d="M883.99 98.2152C840.014 97.5619 835.488 150.748 838.721 177.423C843.841 185.045 849.23 197.022 849.23 152.926C849.23 118.731 870.786 103.931 883.99 98.2152Z" fill="url(#paint18_linear)"/>
<path d="M811.227 135.781C837.741 132.514 845.448 155.106 845.987 166.811C845.987 175.521 844.855 187.715 840.328 166.811C835.801 145.907 819.041 137.414 811.227 135.781Z" fill="url(#paint19_linear)"/>
<path d="M838.713 186.408C840.006 128.921 869.7 123.26 883.982 127.615C855.527 127.615 848.952 166.811 849.222 186.408H838.713Z" fill="#5DA676"/>
<path d="M1114.13 208.902L1110.52 208.902L1110.52 211.999L1114.13 211.999L1114.13 208.902Z" fill="#D1DFEA"/>
<path d="M956.686 208.901L953.072 208.901L953.073 211.998L956.686 211.998L956.686 208.901Z" fill="#D1DFEA"/>
<rect width="92.9526" height="92.9526" transform="matrix(0.866346 0.499815 -0.866346 0.499815 1033.6 165.54)" fill="#D1DFEA"/>
<rect width="92.9526" height="92.9526" transform="matrix(0.866346 0.499815 -0.866346 0.499815 1033.6 162.442)" fill="url(#paint20_linear)"/>
<path d="M1035.35 0.264648C1029.69 0.264648 1028.88 141.737 1029.69 207.258C1034.86 213.035 1038.85 209.665 1040.2 207.258C1041.28 134.784 1040.2 0.264648 1035.35 0.264648Z" fill="#5DA676"/>
<path d="M992.5 47.5994C1025.48 48.883 1039.12 79.424 1039.39 94.9351C1036.69 113.121 1032.11 110.179 1032.11 110.179C1034.05 77.445 1011.09 54.8201 992.5 47.5994Z" fill="url(#paint21_linear)"/>
<path d="M1074.95 59.6364C1040.67 52.5761 1030.49 91.461 1029.68 111.786C1033.68 147.21 1036.02 136.261 1040.19 113.391C1039.54 77.448 1063.09 62.5783 1074.95 59.6364Z" fill="url(#paint22_linear)"/>
<path d="M990.883 91.7309C1023.86 87.238 1037.5 119.277 1040.19 135.857C1037.23 144.683 1030.98 157.038 1029.68 135.857C1028.39 114.676 1003.28 97.6143 990.883 91.7309Z" fill="url(#paint23_linear)"/>
<path d="M1074.96 101.357C1030.98 100.715 1026.45 152.971 1029.69 179.18C1034.81 186.668 1040.2 198.436 1040.2 155.111C1040.2 121.514 1061.75 106.973 1074.96 101.357Z" fill="url(#paint24_linear)"/>
<path d="M1002.19 138.264C1028.71 135.055 1036.41 157.252 1036.95 168.751C1036.95 177.309 1035.82 189.29 1031.29 168.751C1026.77 148.213 1010.01 139.869 1002.19 138.264Z" fill="url(#paint25_linear)"/>
<path d="M1029.68 188.008C1030.97 131.526 1060.67 125.963 1074.95 130.242C1046.49 130.242 1039.92 168.752 1040.19 188.008H1029.68Z" fill="#5DA676"/>
<defs>
<linearGradient id="paint0_linear" x1="46.4763" y1="0" x2="46.4763" y2="92.9526" gradientUnits="userSpaceOnUse">
<stop stop-color="#F1F0FF"/>
<stop offset="1" stop-color="white"/>
</linearGradient>
<linearGradient id="paint1_linear" x1="67.4316" y1="159.501" x2="88.33" y2="189.981" gradientUnits="userSpaceOnUse">
<stop stop-color="#7AAE8C"/>
<stop offset="1" stop-color="#4F8E65"/>
</linearGradient>
<linearGradient id="paint2_linear" x1="46.4763" y1="0" x2="46.4763" y2="92.9526" gradientUnits="userSpaceOnUse">
<stop stop-color="#F1F0FF"/>
<stop offset="1" stop-color="white"/>
</linearGradient>
<linearGradient id="paint3_linear" x1="281.432" y1="127.385" x2="312.268" y2="161.62" gradientUnits="userSpaceOnUse">
<stop stop-color="#5DA676"/>
<stop offset="1" stop-color="#43975F"/>
</linearGradient>
<linearGradient id="paint4_linear" x1="256.257" y1="152.894" x2="279.937" y2="187.139" gradientUnits="userSpaceOnUse">
<stop stop-color="#5DA676"/>
<stop offset="1" stop-color="#43975F"/>
</linearGradient>
<linearGradient id="paint5_linear" x1="46.4763" y1="0" x2="46.4763" y2="92.9526" gradientUnits="userSpaceOnUse">
<stop stop-color="#F1F0FF"/>
<stop offset="1" stop-color="white"/>
</linearGradient>
<linearGradient id="paint6_linear" x1="437.886" y1="98.2997" x2="459.888" y2="139.839" gradientUnits="userSpaceOnUse">
<stop stop-color="#5DA676"/>
<stop offset="1" stop-color="#479662"/>
</linearGradient>
<linearGradient id="paint7_linear" x1="474.643" y1="112.49" x2="514.432" y2="158.882" gradientUnits="userSpaceOnUse">
<stop stop-color="#5DA676"/>
<stop offset="1" stop-color="#479662"/>
</linearGradient>
<linearGradient id="paint8_linear" x1="443.677" y1="143.218" x2="460.713" y2="173.48" gradientUnits="userSpaceOnUse">
<stop stop-color="#5DA676"/>
<stop offset="1" stop-color="#479662"/>
</linearGradient>
<linearGradient id="paint9_linear" x1="46.4763" y1="0" x2="46.4763" y2="92.9526" gradientUnits="userSpaceOnUse">
<stop stop-color="#F1F0FF"/>
<stop offset="1" stop-color="white"/>
</linearGradient>
<linearGradient id="paint10_linear" x1="667.313" y1="68.4344" x2="702.026" y2="113.103" gradientUnits="userSpaceOnUse">
<stop stop-color="#5DA676"/>
<stop offset="1" stop-color="#1E6D39"/>
</linearGradient>
<linearGradient id="paint11_linear" x1="630.052" y1="98.3524" x2="652.038" y2="139.88" gradientUnits="userSpaceOnUse">
<stop stop-color="#5DA676"/>
<stop offset="1" stop-color="#479662"/>
</linearGradient>
<linearGradient id="paint12_linear" x1="666.811" y1="112.537" x2="706.578" y2="158.924" gradientUnits="userSpaceOnUse">
<stop stop-color="#5DA676"/>
<stop offset="1" stop-color="#479662"/>
</linearGradient>
<linearGradient id="paint13_linear" x1="635.843" y1="143.251" x2="652.867" y2="173.505" gradientUnits="userSpaceOnUse">
<stop stop-color="#5DA676"/>
<stop offset="1" stop-color="#479662"/>
</linearGradient>
<linearGradient id="paint14_linear" x1="46.4763" y1="0" x2="46.4763" y2="92.9526" gradientUnits="userSpaceOnUse">
<stop stop-color="#F1F0FF"/>
<stop offset="1" stop-color="white"/>
</linearGradient>
<linearGradient id="paint15_linear" x1="819.315" y1="52.4853" x2="846.382" y2="95.5186" gradientUnits="userSpaceOnUse">
<stop stop-color="#5DA676"/>
<stop offset="1" stop-color="#1E6D39"/>
</linearGradient>
<linearGradient id="paint16_linear" x1="855.884" y1="65.7418" x2="891.134" y2="110.544" gradientUnits="userSpaceOnUse">
<stop stop-color="#5DA676"/>
<stop offset="1" stop-color="#1E6D39"/>
</linearGradient>
<linearGradient id="paint17_linear" x1="818.62" y1="96.0352" x2="841.035" y2="137.851" gradientUnits="userSpaceOnUse">
<stop stop-color="#5DA676"/>
<stop offset="1" stop-color="#1E6D39"/>
</linearGradient>
<linearGradient id="paint18_linear" x1="855.379" y1="110.396" x2="895.715" y2="156.868" gradientUnits="userSpaceOnUse">
<stop stop-color="#5DA676"/>
<stop offset="1" stop-color="#1E6D39"/>
</linearGradient>
<linearGradient id="paint19_linear" x1="824.411" y1="141.493" x2="841.757" y2="171.941" gradientUnits="userSpaceOnUse">
<stop stop-color="#5DA676"/>
<stop offset="1" stop-color="#1E6D39"/>
</linearGradient>
<linearGradient id="paint20_linear" x1="46.4763" y1="0" x2="46.4763" y2="92.9526" gradientUnits="userSpaceOnUse">
<stop stop-color="#F1F0FF"/>
<stop offset="1" stop-color="white"/>
</linearGradient>
<linearGradient id="paint21_linear" x1="1010.28" y1="56.4247" x2="1036.67" y2="99.1251" gradientUnits="userSpaceOnUse">
<stop stop-color="#5DA676"/>
<stop offset="1" stop-color="#1E6D39"/>
</linearGradient>
<linearGradient id="paint22_linear" x1="1046.85" y1="69.4501" x2="1081.33" y2="114.06" gradientUnits="userSpaceOnUse">
<stop stop-color="#5DA676"/>
<stop offset="1" stop-color="#1E6D39"/>
</linearGradient>
<linearGradient id="paint23_linear" x1="1009.59" y1="99.2138" x2="1031.39" y2="140.619" gradientUnits="userSpaceOnUse">
<stop stop-color="#5DA676"/>
<stop offset="1" stop-color="#1E6D39"/>
</linearGradient>
<linearGradient id="paint24_linear" x1="1046.35" y1="113.325" x2="1085.87" y2="159.674" gradientUnits="userSpaceOnUse">
<stop stop-color="#5DA676"/>
<stop offset="1" stop-color="#1E6D39"/>
</linearGradient>
<linearGradient id="paint25_linear" x1="1015.38" y1="143.877" x2="1032.27" y2="174.048" gradientUnits="userSpaceOnUse">
<stop stop-color="#5DA676"/>
<stop offset="1" stop-color="#1E6D39"/>
</linearGradient>
</defs>
</svg>
