<svg width="1109" height="251" viewBox="0 0 1109 251" fill="none" xmlns="http://www.w3.org/2000/svg">
<path d="M163.738 200.902L160.124 200.902L160.125 204L163.738 204L163.738 200.902Z" fill="#D1DFEA"/>
<path d="M6.2961 200.901L2.68262 200.901L2.68312 203.999L6.29661 203.999L6.2961 200.901Z" fill="#D1DFEA"/>
<rect width="92.9526" height="92.9526" transform="matrix(0.866346 0.499815 -0.866346 0.499815 83.2129 157.54)" fill="#D1DFEA"/>
<rect width="92.9526" height="92.9526" transform="matrix(0.866346 0.499815 -0.866346 0.499815 83.2129 154.442)" fill="url(#paint0_linear)"/>
<path d="M82.8623 200.638C84.1488 194.849 85.1781 182.691 79.0026 180.375C72.8272 178.059 80.6532 168.5 81.9869 165.5M81.9869 165.5C83.3173 162.5 85.9472 152.779 79.0026 150.463M81.9869 165.5L88.6553 150.463" stroke="#2D554C" stroke-width="2" stroke-linecap="round"/>
<path d="M80.9376 150.463C74.1832 140.813 72.0604 139.077 51.9902 147.568C57.7797 154.322 67.4288 164.936 80.9376 150.463Z" fill="url(#paint1_linear)"/>
<path d="M106.99 140.813C90.5867 136.954 86.7271 147.889 87.692 151.427H87.6923C100.815 151.427 104.096 151.427 106.99 140.813Z" fill="url(#paint2_linear)"/>
<path d="M85.7622 156.252C91.23 153.358 102.166 152.393 101.201 175.551C91.5516 172.656 82.6744 166.287 85.7622 156.252Z" fill="url(#paint3_linear)"/>
<path d="M79.9727 180.376C74.5049 177.159 62.6043 174.2 58.7446 188.095C64.8557 190.025 77.6569 191.183 79.9727 180.376Z" fill="url(#paint4_linear)"/>
<path d="M83.8323 186.165C84.4756 180.376 89.4288 171.691 104.095 183.27C101.201 186.808 93.0955 192.34 83.8323 186.165Z" fill="url(#paint5_linear)"/>
<path d="M83.8323 194.849C84.7973 192.598 87.306 189.639 89.6218 195.814C88.9785 195.171 86.9201 194.077 83.8323 194.849Z" fill="url(#paint6_linear)"/>
<path d="M83.8323 191.954C82.8674 190.025 79.2008 187.709 72.2534 193.884C74.1832 193.884 79.2008 193.498 83.8323 191.954Z" fill="url(#paint7_linear)"/>
<path d="M399.163 200.902L395.549 200.902L395.55 204L399.163 204L399.163 200.902Z" fill="#D1DFEA"/>
<path d="M241.721 200.901L238.108 200.901L238.108 203.998L241.722 203.998L241.721 200.901Z" fill="#D1DFEA"/>
<rect width="92.9526" height="92.9526" transform="matrix(0.866346 0.499815 -0.866346 0.499815 318.638 157.54)" fill="#D1DFEA"/>
<rect width="92.9526" height="92.9526" transform="matrix(0.866346 0.499815 -0.866346 0.499815 318.638 154.442)" fill="url(#paint8_linear)"/>
<path d="M340.135 121.649C339.852 115.699 344.555 105.158 365.637 110.599C361.386 118.532 350.334 131.85 340.135 121.649Z" fill="url(#paint9_linear)"/>
<path d="M320.585 200.705V166.703M320.585 123.35V142.901M320.585 142.901C325.962 133.565 329.501 128.824 337.586 121.65M320.585 142.901V166.703M320.585 166.703C319.451 159.619 314.974 141.881 306.134 127.6" stroke="#2D554C" stroke-width="2" stroke-linecap="round"/>
<path d="M337.584 120.8C345.802 117.683 361.726 116.89 359.686 138.651C352.602 137.801 338.264 133.041 337.584 120.8Z" fill="url(#paint10_linear)"/>
<path d="M318.033 120.8C320.017 115.7 326.364 108.049 335.884 118.25C332.767 119.95 324.834 122.841 318.033 120.8Z" fill="url(#paint11_linear)"/>
<path d="M312.083 115.699C310.383 111.732 310.213 104.308 323.133 106.348C321.999 110.882 318.202 119.099 312.083 115.699C301.881 121.139 294.232 116.832 291.683 113.999C301.204 104.479 309.25 111.165 312.083 115.699Z" fill="url(#paint12_linear)"/>
<path d="M306.134 126.75C299.617 121.083 285.223 114.509 279.782 133.551C285.166 135.534 297.973 136.951 306.134 126.75Z" fill="url(#paint13_linear)"/>
<path d="M339.281 119.949C347.787 125.05 351.187 142.901 335.031 148.851C327.385 139.501 325.685 126.75 339.281 119.949Z" fill="url(#paint14_linear)"/>
<path d="M306.131 125.9C310.381 134.4 305.281 145.451 288.28 145.451C286.582 137.801 292.533 119.949 306.131 125.9Z" fill="url(#paint15_linear)"/>
<path d="M311.231 114.849C317.181 114.849 327.382 121.65 317.181 135.251C310.381 132.7 301.03 123.35 311.231 114.849Z" fill="url(#paint16_linear)"/>
<path d="M321.435 176.053C322.285 172.086 326.535 161.602 343.533 170.103C338.436 178.603 327.385 178.603 321.435 176.053Z" fill="url(#paint17_linear)"/>
<path d="M319.735 178.603C320.582 172.653 312.764 164.152 298.483 174.353C301.598 178.603 313.784 181.154 319.735 178.603Z" fill="url(#paint18_linear)"/>
<path d="M320.582 195.605C322.568 193.905 327.389 191.694 330.786 196.455C328.8 195.605 323.979 194.245 320.582 195.605H312.934C315.654 193.564 319.166 194.755 320.582 195.605Z" fill="url(#paint19_linear)"/>
<path d="M634.588 200.902L630.975 200.902L630.975 204L634.589 204L634.588 200.902Z" fill="#D1DFEA"/>
<path d="M477.147 200.901L473.533 200.901L473.534 203.998L477.147 203.998L477.147 200.901Z" fill="#D1DFEA"/>
<rect width="92.9526" height="92.9526" transform="matrix(0.866346 0.499815 -0.866346 0.499815 554.063 157.54)" fill="#D1DFEA"/>
<rect width="92.9526" height="92.9526" transform="matrix(0.866346 0.499815 -0.866346 0.499815 554.063 154.442)" fill="url(#paint20_linear)"/>
<path d="M553.699 201.532V153.239M553.699 112.707C552.836 109.257 549.214 100.461 541.625 92.8717M553.699 112.707C557.723 110.982 563.358 101.84 553.699 79.0735M553.699 112.707V138.578M553.699 138.578C557.723 133.979 570.084 123.573 587.332 118.743M553.699 138.578V153.239M553.699 153.239C551.974 148.927 546.282 139.096 537.313 134.266" stroke="#2D554C" stroke-width="2" stroke-linecap="round"/>
<path d="M542.488 93.7342C539.038 87.41 528 79.0736 511.442 96.3213C520.066 101.495 538.348 108.222 542.488 93.7342Z" fill="url(#paint21_linear)"/>
<path d="M554.561 75.6246C549.099 72.75 537.831 70.6228 536.451 85.1109C541.05 81.9488 551.112 75.6246 554.561 75.6246Z" fill="url(#paint22_linear)"/>
<path d="M565.772 67C570.946 70.4495 576.811 79.2457 558.873 86.8349C549.214 71.6569 559.448 67.2875 565.772 67Z" fill="url(#paint23_linear)"/>
<path d="M567.572 97.1207C570.576 97.7359 574.211 99.8563 577.846 104.945C574.683 106.382 566.98 107.015 561.46 98.0459C568.647 89.7095 584.4 79.4183 589.919 104.945C584.89 102.102 575.037 97.5963 567.572 97.1207Z" fill="url(#paint24_linear)"/>
<path d="M577.846 123.055C578.133 116.731 584.055 106.152 605.442 114.431C601.705 121.618 590.954 133.404 577.846 123.055Z" fill="url(#paint25_linear)"/>
<path d="M511.442 149.789C511.442 130.472 524.665 129.667 531.277 131.679C528.977 127.654 527.655 119.088 540.763 117.018C540.188 121.33 537.486 130.299 531.277 131.679C533.346 147.547 518.916 150.364 511.442 149.789Z" fill="url(#paint26_linear)"/>
<path d="M552.836 140.303C559.448 137.716 573.361 136.853 576.121 154.101C569.222 156.113 554.906 156.171 552.836 140.303Z" fill="url(#paint27_linear)"/>
<path d="M554.561 168.761C551.399 168.761 545.247 171.521 545.937 182.56C550.824 181.41 559.391 177.04 554.561 168.761Z" fill="url(#paint28_linear)"/>
<path d="M552.836 192.908C550.537 190.896 545.247 188.424 542.488 194.633C544.5 194.058 549.387 192.908 552.836 192.908Z" fill="url(#paint29_linear)"/>
<path d="M555.895 191.977C555.407 192.273 554.955 192.593 554.561 192.908C554.848 192.335 555.314 192.049 555.895 191.977C558.962 190.118 563.452 189.214 564.047 196.358C561.998 194.536 558.109 191.704 555.895 191.977Z" fill="url(#paint30_linear)"/>
<path d="M576.12 123.055C576.694 127.942 577.844 137.716 600.266 137.716C599.979 128.804 594.057 113.396 576.12 123.055Z" fill="url(#paint31_linear)"/>
<path d="M529.551 130.817C535.875 131.104 546.798 136.163 539.899 154.101C532.138 151.514 519.202 143.235 529.551 130.817Z" fill="url(#paint32_linear)"/>
<path d="M542.489 92.0092C546.226 99.7706 548.008 115.121 525.241 114.431C522.942 106.957 523.172 92.0092 542.489 92.0092Z" fill="url(#paint33_linear)"/>
<path d="M550.249 74.7615C555.998 74.7615 565.255 78.556 556.286 93.734C549.674 91.4343 539.211 84.4202 550.249 74.7615Z" fill="url(#paint34_linear)"/>
<path d="M562.322 96.3211C568.934 100.346 578.535 111.844 564.047 125.642C558.011 120.468 549.214 107.36 562.322 96.3211Z" fill="url(#paint35_linear)"/>
<path d="M552.836 140.303C558.585 143.465 566.634 152.894 552.836 165.312C547.374 160.713 539.728 149.272 552.836 140.303Z" fill="url(#paint36_linear)"/>
<path d="M552.836 167.899C556.861 167.899 564.047 171.866 560.598 187.734C555.702 185.147 547.296 177.558 552.836 167.899Z" fill="url(#paint37_linear)"/>
<path d="M870.013 200.903L866.4 200.903L866.4 204L870.014 204L870.013 200.903Z" fill="#D1DFEA"/>
<path d="M712.572 200.901L708.958 200.901L708.959 203.998L712.572 203.998L712.572 200.901Z" fill="#D1DFEA"/>
<rect width="92.9526" height="92.9526" transform="matrix(0.866346 0.499815 -0.866346 0.499815 789.489 157.54)" fill="#D1DFEA"/>
<rect width="92.9526" height="92.9526" transform="matrix(0.866346 0.499815 -0.866346 0.499815 789.489 154.442)" fill="url(#paint38_linear)"/>
<path d="M789.838 200.482L789.55 188.607M786.459 61.3792L787.304 96.1548M787.304 96.1548C790.49 82.734 798.927 55.1332 807.191 52.097M787.304 96.1548L764.469 60.4399M787.304 96.1548L788.334 138.564M788.334 138.564C792.218 126.303 801.778 99.4844 808.948 90.3008M788.334 138.564C786.77 134.826 781.824 126.254 774.555 121.877M788.334 138.564L788.684 152.983M788.684 152.983C785.228 146.34 774.945 132.57 761.471 130.638M788.684 152.983L789.076 169.099M789.076 169.099C791.361 158.464 800.959 134.528 821.072 123.864M789.076 169.099L789.55 188.607M789.55 188.607C791.999 185.558 795.399 180.319 799.25 172.923M789.55 188.607C793.096 184.522 803.396 176.658 816.223 177.884M789.55 188.607C789.131 186.384 788.179 183.352 786.563 180.032M762.816 158.657C775.436 162.99 782.8 172.296 786.563 180.032M827.917 82.6379C824.129 103.85 819.255 122.03 814.17 137.126M814.17 137.126L829.262 110.656M814.17 137.126C809.12 152.117 803.862 164.067 799.25 172.923M799.25 172.923C800.932 168.475 808.912 158.592 827.383 154.636M786.563 180.032L778.018 179.667" stroke="#2D554C" stroke-width="2" stroke-linecap="round"/>
<path d="M803.74 53.6442C808.846 46.519 823.098 36.8471 839.262 55.1615C834.313 58.6218 820.28 63.1629 803.74 53.6442Z" fill="url(#paint39_linear)"/>
<path d="M786.969 49.5384C790.593 44.0445 793.267 33.0307 774.969 32.927C772.707 39.6088 771.939 52.2855 786.969 49.5384Z" fill="url(#paint40_linear)"/>
<path d="M765.353 53.7988C765.157 54.024 764.947 54.264 764.724 54.5196C759.701 61.0835 751.136 61.8474 747.482 61.4089C751.298 51.4042 760.567 52.6474 764.724 54.5196C764.947 54.264 765.157 54.024 765.353 53.7988C757.207 52.8052 760.3 43.0891 762.874 38.3417C769.97 43.7165 768.578 49.4706 766.218 52.8093C770.02 48.4594 766.814 52.1859 765.739 53.439C765.635 53.5665 765.53 53.6893 765.425 53.8073C765.417 53.8162 765.417 53.8159 765.424 53.8072C765.4 53.8045 765.377 53.8017 765.353 53.7988Z" fill="url(#paint41_linear)"/>
<path d="M777.135 81.3162C773.034 84.8127 766.282 93.5622 772.079 100.588C774.466 97.5834 778.818 89.5222 777.135 81.3162Z" fill="url(#paint42_linear)"/>
<path d="M827.953 81.7921C827.254 78.373 828.416 71.1358 838.648 69.5393C838.489 73.2416 837.264 79.1382 833.88 81.4188C838.822 81.662 844.594 83.3362 847.152 88.5433C842.3 89.7482 831.666 90.0848 827.953 81.7921Z" fill="url(#paint43_linear)"/>
<path d="M828.344 112.312C830.192 108.719 836.36 103.164 846.249 109.687C842.71 113.208 834.173 118.661 828.344 112.312Z" fill="url(#paint44_linear)"/>
<path d="M812.729 81.1418C807.606 82.0528 797.922 86.61 800.166 97.5514C805.607 95.8067 815.736 90.0823 812.729 81.1418Z" fill="url(#paint45_linear)"/>
<path d="M820.732 111.987C814.291 104.086 819.618 98.3822 819.618 98.3822C822.671 99.6424 827.168 104.127 820.732 111.987Z" fill="url(#paint46_linear)"/>
<path d="M815.377 177.848C822.155 177.855 834.052 181.018 827.413 193.613C826.934 191.616 823.855 185.666 815.377 177.848Z" fill="url(#paint47_linear)"/>
<path d="M777.83 124.558C780.516 127.78 782.485 134.586 768.866 136.038C768.213 131.491 769.092 122.83 777.83 124.558Z" fill="url(#paint48_linear)"/>
<path d="M761.618 127.255C754.689 124.135 738.828 121.198 730.807 134.412C737.698 138.378 753.509 142.499 761.618 127.255Z" fill="url(#paint49_linear)"/>
<path d="M743.4 156.98C752.427 151.943 760.693 155.459 763.698 157.847C765.492 166.736 754.919 173.006 749.407 175.03C747.773 167.651 752.923 162.751 758.069 160.04C748.836 162.785 744.488 159.411 743.4 156.98Z" fill="url(#paint50_linear)"/>
<path d="M788.442 153.82C786.213 150.09 779.386 144.369 769.912 151.334C772.278 155.389 779.296 161.564 788.442 153.82Z" fill="url(#paint51_linear)"/>
<path d="M803.73 53.6434C801.53 45.6412 802.881 29.8825 825.886 30.8651C826.393 38.795 822.673 54.4525 803.73 53.6434Z" fill="url(#paint52_linear)"/>
<path d="M811.034 81.0692C808.586 85.4836 806.199 95.0974 816.232 98.2373C825.548 86.434 816.649 81.8738 811.034 81.0692Z" fill="url(#paint53_linear)"/>
<path d="M828.022 80.1001C834.764 80.953 844.558 85.7208 829.801 97.9695C827.8 97.2062 827.781 85.7386 828.022 80.1001Z" fill="url(#paint54_linear)"/>
<path d="M828.341 112.311C826.806 108.574 826.971 100.73 839.914 99.2488C840.543 104.359 839.109 114.127 828.341 112.311Z" fill="url(#paint55_linear)"/>
<path d="M817.614 125.41C823.469 120.576 835.779 116.696 838.18 139.845C834.168 134.59 824.437 124.346 817.614 125.41Z" fill="url(#paint56_linear)"/>
<path d="M761.613 127.255C762.386 128.982 774.422 144.748 745.558 146.057C743.334 138.619 743.431 124.445 761.613 127.255Z" fill="url(#paint57_linear)"/>
<path d="M785.38 46.9285C792.368 48.6391 802.823 55.1298 788.742 67.4074C783.506 64.3594 775.503 55.9965 785.38 46.9285Z" fill="url(#paint58_linear)"/>
<path d="M764.755 53.6733C769.944 57.849 775.512 67.6897 756.278 73.6466C755.954 67.9841 757.196 56.0618 764.755 53.6733Z" fill="url(#paint59_linear)"/>
<path d="M827.38 154.636C832.882 151.481 842.851 149.535 838.717 166.982C836.581 164.067 831.323 157.515 827.38 154.636C828.655 157.797 828.964 165.04 819.997 168.725C819.872 165.048 821.174 157.082 827.38 154.636C821.347 153.022 819.47 148.084 819.285 145.817C829.434 146.25 828.911 151.877 827.38 154.636Z" fill="url(#paint60_linear)"/>
<path d="M815.41 177.002C821.023 177.806 829.603 181.844 819.022 191.56C814.866 189.688 808.326 184.155 815.41 177.002Z" fill="url(#paint61_linear)"/>
<path d="M765.316 159.611C763.624 159.538 768.359 147.878 750.345 153.04C750.176 156.987 752.934 163.827 765.316 159.611Z" fill="url(#paint62_linear)"/>
<path d="M787.08 106.313C788.989 101.31 795.051 94.2823 804.032 106.189C801.523 112.013 794.622 120.192 787.08 106.313C785.207 118.434 774.29 114.804 769.066 111.474C774.235 97.4603 783.229 102.194 787.08 106.313Z" fill="url(#paint63_linear)"/>
<path d="M777.169 80.47C777 84.4169 775.339 91.5763 766.514 91.8772C766.107 88.1882 766.962 81.3898 777.169 80.47Z" fill="url(#paint64_linear)"/>
<path d="M780.554 179.749C777.207 178.759 770.42 178.978 770.044 187.774C773.979 188.224 781.59 187.25 780.554 179.749Z" fill="url(#paint65_linear)"/>
<path d="M794.454 132.047C798.627 128.216 804.078 129.4 807.324 130.952C805.816 129.837 804.305 127.823 804.928 124.868C807.147 125.81 811.04 128.519 808.867 131.815C803.957 135.672 797.213 133.577 794.454 132.047Z" fill="url(#paint66_linear)"/>
<path d="M778.797 141.546C777.105 141.473 773.348 142.16 771.85 145.485C774.375 145.876 779.3 145.634 778.797 141.546Z" fill="url(#paint67_linear)"/>
<path d="M799.829 144.986C800.7 144.458 802.737 144.432 803.917 148.55C802.494 148.771 799.684 148.369 799.829 144.986Z" fill="url(#paint68_linear)"/>
<path d="M778.674 124.594C780.522 121.002 780.483 113.995 765.539 114.713C766.192 119.26 769.733 127.602 778.674 124.594Z" fill="url(#paint69_linear)"/>
<path d="M1105.44 200.902L1101.83 200.902L1101.83 204L1105.44 204L1105.44 200.902Z" fill="#D1DFEA"/>
<path d="M947.997 200.901L944.384 200.901L944.384 203.998L947.998 203.998L947.997 200.901Z" fill="#D1DFEA"/>
<rect width="92.9526" height="92.9526" transform="matrix(0.866346 0.499815 -0.866346 0.499815 1024.91 157.54)" fill="#D1DFEA"/>
<rect width="92.9526" height="92.9526" transform="matrix(0.866346 0.499815 -0.866346 0.499815 1024.91 154.442)" fill="url(#paint70_linear)"/>
<path d="M1026.77 201.95L1026.81 186.796M1027.18 37.3046L1027.14 54.5064M1027.14 54.5064C1031.55 50.3341 1041.95 38.0306 1048.23 22.1947M1027.14 54.5064L1027.09 74.9846M1027.04 95.4629C1030.79 84.7494 1039.6 63.2996 1044.84 63.2083M1027.04 95.4629L1027.01 104.473M1027.04 95.4629L1027.09 74.9846M1027.01 104.473C1024.88 97.6846 1018.58 80.0472 1010.43 63.8071M1027.01 104.473L1026.98 119.218M1027.09 74.9846L1015.15 52.2577M1026.98 119.218C1033.89 108.449 1050.83 86.8579 1063.28 86.6412M1026.98 119.218L1026.97 123.723M1026.96 128.228C1020.9 122.054 1008.07 106.933 1005.26 95.8419M1026.96 128.228L1026.97 123.723M1026.96 128.228L1026.92 141.334M1026.97 123.723C1023.59 116.546 1016.06 104.664 1010.92 91.6479M1026.92 141.334C1030.86 139.627 1040.96 132.08 1049.85 115.543M1026.92 141.334L1026.88 160.174M1026.85 171.642C1021.31 163.547 1010.03 144.249 1009.16 131.814M1026.85 171.642L1026.86 165.908M1026.85 171.642L1026.81 186.796M1026.88 160.174C1030.36 156.564 1038.6 147.192 1043.7 138.585M1026.88 160.174L1026.86 165.908M1026.86 165.908L1040.66 152.562M1026.81 186.796C1033.65 177.53 1049.27 157.655 1057.05 152.277M1026.81 186.796C1023.26 182.374 1018.11 176.566 1013 171.883M995.83 166.448C998.067 160.565 1005.5 165.015 1013 171.883M1013 171.883C1008.45 158.993 996.057 132.37 982.886 128.995" stroke="#55342D" stroke-width="2"/>
<path d="M1016.92 12.9097C1014.37 8.03895 1017.64 -2.01045 1038.06 3.53167C1035.6 12.748 1022.94 13.6238 1016.92 12.9097C1015.12 22.7697 1001.56 24.9175 995.005 24.7589C997.342 8.33637 1010.59 10.0167 1016.92 12.9097Z" fill="url(#paint71_linear)"/>
<path d="M1047.38 20.5711C1049.69 11.7939 1057.99 -0.582441 1072.78 20.1291C1068.65 18.5627 1057.8 16.4581 1047.38 20.5711Z" fill="url(#paint72_linear)"/>
<path d="M1014.95 40.7937C1012.39 34.5586 1003.36 24.7773 987.817 35.5322C991.467 41.2024 1002 50.1929 1014.95 40.7937Z" fill="url(#paint73_linear)"/>
<path d="M1008.78 63.0166C1007.3 56.4896 999.457 45.1588 979.909 52.0517C982.466 57.7409 991.822 67.8987 1008.78 63.0166Z" fill="url(#paint74_linear)"/>
<path d="M1020.22 61.1793C1018.81 58.1285 1014.68 53.2393 1009.52 58.0893C1010.93 60.795 1015.05 65.201 1020.22 61.1793Z" fill="url(#paint75_linear)"/>
<path d="M1043.16 60.7801C1044.98 55.2879 1053.55 45.528 1073.31 50.4264C1069.88 57.5849 1059.05 69.6775 1043.16 60.7801Z" fill="url(#paint76_linear)"/>
<path d="M1064.09 85.8079C1064.55 81.1583 1068.94 72.9455 1082.79 77.2916C1080.42 82.2474 1073.35 90.8889 1064.09 85.8079C1070.13 94.2213 1064.64 101.907 1061.14 104.698C1052.5 98.2959 1059.51 89.4371 1064.09 85.8079Z" fill="url(#paint77_linear)"/>
<path d="M1036.05 75.6477C1039.04 74.7765 1045.05 75.1633 1045.2 83.6793C1042.21 84.2775 1036.18 83.5086 1036.05 75.6477Z" fill="url(#paint78_linear)"/>
<path d="M1000.24 90.1954C999.392 89.376 998.459 88.5565 997.483 87.7979C992.408 85.8569 987.689 96.8083 985.722 103.554C981.285 80.0477 990.473 82.3494 997.483 87.7979C998.395 88.147 999.319 88.913 1000.24 90.1954Z" fill="url(#paint79_linear)"/>
<path d="M1052.28 113.863C1057.44 111.862 1068.45 110.469 1071.25 120.904C1065.26 121.555 1053.06 121.057 1052.28 113.863C1043.78 114.734 1039.96 112.194 1039.12 110.815C1046.89 105.438 1051.13 110.606 1052.28 113.863Z" fill="url(#paint80_linear)"/>
<path d="M1057.78 147.35C1059.36 144.046 1065 138.378 1074.9 142.137C1073.07 146.538 1067.07 153.741 1057.78 147.35C1054.78 147.675 1049.09 146.846 1050.3 140.927C1056.15 138.204 1057.73 144.074 1057.78 147.35Z" fill="url(#paint81_linear)"/>
<path d="M1042.1 141.07C1040.7 139.183 1039.87 135.211 1047.72 134.419C1048.32 137.139 1048.02 142.277 1042.1 141.07Z" fill="url(#paint82_linear)"/>
<path d="M1049 160.608C1053.33 158.076 1064 155.924 1072.07 167.579C1066.62 168.492 1054.38 168.378 1049 160.608Z" fill="url(#paint83_linear)"/>
<path d="M998.247 163.949C1001 164.993 1005.39 169.23 1000.95 177.826C997.627 175.427 992.439 169.292 998.247 163.949C993.659 164.028 990.807 160.256 989.954 158.359C995.175 156.958 997.658 161.502 998.247 163.949Z" fill="url(#paint84_linear)"/>
<path d="M963.096 121.967C971.537 117.234 980.344 124.125 983.692 128.162C982.006 125.461 980.764 120.022 989.284 119.873C989.87 122.105 989.57 126.886 983.692 128.162C973.94 132.918 965.898 126.014 963.096 121.967Z" fill="url(#paint85_linear)"/>
<path d="M1008.27 127.734C1007.64 122.83 1003.45 114.385 991.742 119.831C991.823 124.471 995.242 132.548 1008.27 127.734Z" fill="url(#paint86_linear)"/>
<path d="M1025.89 151.181C1026.38 147.896 1025.06 141.203 1015.87 140.707C1015.95 145.347 1018.07 153.938 1025.89 151.181Z" fill="url(#paint87_linear)"/>
<path d="M1060.81 85.865C1062.39 82.2881 1061.77 75.2 1046.7 75.4623C1047.31 79.2741 1050.99 86.6911 1060.81 85.865Z" fill="url(#paint88_linear)"/>
<path d="M999.066 163.935C994.668 162.374 984.946 162.543 981.241 175.713C987.259 176.154 999.248 174.417 999.066 163.935Z" fill="url(#paint89_linear)"/>
<path d="M984.525 128.967C980.664 126.85 972.835 125.894 972.407 139.007C977.318 138.649 986.617 136.139 984.525 128.967Z" fill="url(#paint90_linear)"/>
<path d="M1056.92 144.908C1061.58 145.646 1069.78 149.271 1065.34 157.867C1060.43 158.225 1051.87 156.135 1056.92 144.908Z" fill="url(#paint91_linear)"/>
<path d="M1037.43 155.076C1038.47 152.328 1042.38 147.454 1049.63 149.949C1048.06 153.799 1043.42 160.214 1037.43 155.076Z" fill="url(#paint92_linear)"/>
<path d="M1013.97 172.685C1008.54 174.691 1000.34 180.786 1010.98 189.119C1012.04 187.19 1014.12 181.201 1013.97 172.685Z" fill="url(#paint93_linear)"/>
<path d="M998.724 144.282C995.164 143.798 988.415 145.281 989.897 155.084C993.701 153.926 1000.79 150.144 998.724 144.282Z" fill="url(#paint94_linear)"/>
<path d="M1004.17 127.806C1008.47 123.362 1017.62 118.562 1019.87 134.904C1015.25 136.622 1005.66 137.608 1004.17 127.806Z" fill="url(#paint95_linear)"/>
<path d="M1043.91 56.6725C1053.16 54.6003 1069.14 55.9059 1059.03 77.7059C1051.34 75.6556 1037.56 68.5786 1043.91 56.6725Z" fill="url(#paint96_linear)"/>
<path d="M1015.27 12.12C1026.44 10.2875 1046.43 13.0522 1037.04 38.7713C1028.31 38.9234 1011.72 33.8063 1015.27 12.12Z" fill="url(#paint97_linear)"/>
<path d="M1047.37 19.7521C1053.11 20.1982 1063.36 25.0437 1058.39 40.8568C1051.81 39.879 1040.41 34.2893 1047.37 19.7521Z" fill="url(#paint98_linear)"/>
<path d="M1008.73 59.7411C1013.19 64.8511 1017.55 76.7886 999.308 83.6587C995.62 75.805 992.34 60.0262 1008.73 59.7411Z" fill="url(#paint99_linear)"/>
<path d="M1015.74 39.1419C1018.83 44.0023 1021.41 54.1134 1007.02 55.6754C1004.47 50.4281 1002.64 39.7752 1015.74 39.1419Z" fill="url(#paint100_linear)"/>
<path d="M1053.09 113.029C1058.08 117.311 1064.66 127.899 1051.03 136C1046.3 131.168 1040.09 119.808 1053.09 113.029Z" fill="url(#paint101_linear)"/>
<path d="M1064.07 84.9889C1070.9 84.8701 1083.47 88.0916 1079.12 101.928C1073.1 101.214 1061.66 96.826 1064.07 84.9889Z" fill="url(#paint102_linear)"/>
<path d="M1049.82 160.594C1055.25 158.588 1064.38 159.194 1057.49 177.661C1055.51 173.873 1051.21 165.156 1049.82 160.594Z" fill="url(#paint103_linear)"/>
<path d="M1009.51 104.778C1011.9 100.641 1012.89 91.9409 997.783 90.238C996.537 97.0855 997.136 109.58 1009.51 104.778Z" fill="url(#paint104_linear)"/>
<path d="M1011.78 94.0899C1014.2 91.5906 1016.39 85.9825 1005.86 83.5447C1004.81 86.0202 1004.53 91.595 1011.78 94.0899Z" fill="url(#paint105_linear)"/>
<defs>
<linearGradient id="paint0_linear" x1="46.4763" y1="0" x2="46.4763" y2="92.9526" gradientUnits="userSpaceOnUse">
<stop stop-color="#F1F0FF"/>
<stop offset="1" stop-color="white"/>
</linearGradient>
<linearGradient id="paint1_linear" x1="94.0875" y1="152.516" x2="103.6" y2="197.898" gradientUnits="userSpaceOnUse">
<stop stop-color="#5DA676"/>
<stop offset="1" stop-color="#1E6D39"/>
</linearGradient>
<linearGradient id="paint2_linear" x1="94.0875" y1="152.516" x2="103.6" y2="197.898" gradientUnits="userSpaceOnUse">
<stop stop-color="#5DA676"/>
<stop offset="1" stop-color="#1E6D39"/>
</linearGradient>
<linearGradient id="paint3_linear" x1="94.0875" y1="152.516" x2="103.6" y2="197.898" gradientUnits="userSpaceOnUse">
<stop stop-color="#5DA676"/>
<stop offset="1" stop-color="#1E6D39"/>
</linearGradient>
<linearGradient id="paint4_linear" x1="94.0875" y1="152.516" x2="103.6" y2="197.898" gradientUnits="userSpaceOnUse">
<stop stop-color="#5DA676"/>
<stop offset="1" stop-color="#1E6D39"/>
</linearGradient>
<linearGradient id="paint5_linear" x1="94.0875" y1="152.516" x2="103.6" y2="197.898" gradientUnits="userSpaceOnUse">
<stop stop-color="#5DA676"/>
<stop offset="1" stop-color="#1E6D39"/>
</linearGradient>
<linearGradient id="paint6_linear" x1="94.0875" y1="152.516" x2="103.6" y2="197.898" gradientUnits="userSpaceOnUse">
<stop stop-color="#5DA676"/>
<stop offset="1" stop-color="#1E6D39"/>
</linearGradient>
<linearGradient id="paint7_linear" x1="94.0875" y1="152.516" x2="103.6" y2="197.898" gradientUnits="userSpaceOnUse">
<stop stop-color="#5DA676"/>
<stop offset="1" stop-color="#1E6D39"/>
</linearGradient>
<linearGradient id="paint8_linear" x1="46.4763" y1="0" x2="46.4763" y2="92.9526" gradientUnits="userSpaceOnUse">
<stop stop-color="#F1F0FF"/>
<stop offset="1" stop-color="white"/>
</linearGradient>
<linearGradient id="paint9_linear" x1="364.788" y1="112.299" x2="344.916" y2="117.907" gradientUnits="userSpaceOnUse">
<stop stop-color="#5DA676"/>
<stop offset="1" stop-color="#1E6D39"/>
</linearGradient>
<linearGradient id="paint10_linear" x1="341.078" y1="113.322" x2="343.395" y2="140.842" gradientUnits="userSpaceOnUse">
<stop stop-color="#55A26F"/>
<stop offset="1" stop-color="#15532A"/>
</linearGradient>
<linearGradient id="paint11_linear" x1="341.078" y1="113.322" x2="343.395" y2="140.842" gradientUnits="userSpaceOnUse">
<stop stop-color="#55A26F"/>
<stop offset="1" stop-color="#15532A"/>
</linearGradient>
<linearGradient id="paint12_linear" x1="341.078" y1="113.322" x2="343.395" y2="140.842" gradientUnits="userSpaceOnUse">
<stop stop-color="#55A26F"/>
<stop offset="1" stop-color="#15532A"/>
</linearGradient>
<linearGradient id="paint13_linear" x1="341.078" y1="113.322" x2="343.395" y2="140.842" gradientUnits="userSpaceOnUse">
<stop stop-color="#55A26F"/>
<stop offset="1" stop-color="#15532A"/>
</linearGradient>
<linearGradient id="paint14_linear" x1="332.704" y1="133.148" x2="351.157" y2="197.092" gradientUnits="userSpaceOnUse">
<stop stop-color="#5DA676"/>
<stop offset="1" stop-color="#1E6D39"/>
</linearGradient>
<linearGradient id="paint15_linear" x1="332.704" y1="133.148" x2="351.157" y2="197.092" gradientUnits="userSpaceOnUse">
<stop stop-color="#5DA676"/>
<stop offset="1" stop-color="#1E6D39"/>
</linearGradient>
<linearGradient id="paint16_linear" x1="332.704" y1="133.148" x2="351.157" y2="197.092" gradientUnits="userSpaceOnUse">
<stop stop-color="#5DA676"/>
<stop offset="1" stop-color="#1E6D39"/>
</linearGradient>
<linearGradient id="paint17_linear" x1="332.704" y1="133.148" x2="351.157" y2="197.092" gradientUnits="userSpaceOnUse">
<stop stop-color="#5DA676"/>
<stop offset="1" stop-color="#1E6D39"/>
</linearGradient>
<linearGradient id="paint18_linear" x1="332.704" y1="133.148" x2="351.157" y2="197.092" gradientUnits="userSpaceOnUse">
<stop stop-color="#5DA676"/>
<stop offset="1" stop-color="#1E6D39"/>
</linearGradient>
<linearGradient id="paint19_linear" x1="332.704" y1="133.148" x2="351.157" y2="197.092" gradientUnits="userSpaceOnUse">
<stop stop-color="#5DA676"/>
<stop offset="1" stop-color="#1E6D39"/>
</linearGradient>
<linearGradient id="paint20_linear" x1="46.4763" y1="0" x2="46.4763" y2="92.9526" gradientUnits="userSpaceOnUse">
<stop stop-color="#F1F0FF"/>
<stop offset="1" stop-color="white"/>
</linearGradient>
<linearGradient id="paint21_linear" x1="463.148" y1="98.9083" x2="562.467" y2="187.394" gradientUnits="userSpaceOnUse">
<stop stop-color="#5DA676"/>
<stop offset="1" stop-color="#1E6D39"/>
</linearGradient>
<linearGradient id="paint22_linear" x1="463.148" y1="98.9083" x2="562.467" y2="187.394" gradientUnits="userSpaceOnUse">
<stop stop-color="#5DA676"/>
<stop offset="1" stop-color="#1E6D39"/>
</linearGradient>
<linearGradient id="paint23_linear" x1="463.148" y1="98.9083" x2="562.467" y2="187.394" gradientUnits="userSpaceOnUse">
<stop stop-color="#5DA676"/>
<stop offset="1" stop-color="#1E6D39"/>
</linearGradient>
<linearGradient id="paint24_linear" x1="463.148" y1="98.9083" x2="562.467" y2="187.394" gradientUnits="userSpaceOnUse">
<stop stop-color="#5DA676"/>
<stop offset="1" stop-color="#1E6D39"/>
</linearGradient>
<linearGradient id="paint25_linear" x1="463.148" y1="98.9083" x2="562.467" y2="187.394" gradientUnits="userSpaceOnUse">
<stop stop-color="#5DA676"/>
<stop offset="1" stop-color="#1E6D39"/>
</linearGradient>
<linearGradient id="paint26_linear" x1="463.148" y1="98.9083" x2="562.467" y2="187.394" gradientUnits="userSpaceOnUse">
<stop stop-color="#5DA676"/>
<stop offset="1" stop-color="#1E6D39"/>
</linearGradient>
<linearGradient id="paint27_linear" x1="463.148" y1="98.9083" x2="562.467" y2="187.394" gradientUnits="userSpaceOnUse">
<stop stop-color="#5DA676"/>
<stop offset="1" stop-color="#1E6D39"/>
</linearGradient>
<linearGradient id="paint28_linear" x1="463.148" y1="98.9083" x2="562.467" y2="187.394" gradientUnits="userSpaceOnUse">
<stop stop-color="#5DA676"/>
<stop offset="1" stop-color="#1E6D39"/>
</linearGradient>
<linearGradient id="paint29_linear" x1="463.148" y1="98.9083" x2="562.467" y2="187.394" gradientUnits="userSpaceOnUse">
<stop stop-color="#5DA676"/>
<stop offset="1" stop-color="#1E6D39"/>
</linearGradient>
<linearGradient id="paint30_linear" x1="463.148" y1="98.9083" x2="562.467" y2="187.394" gradientUnits="userSpaceOnUse">
<stop stop-color="#5DA676"/>
<stop offset="1" stop-color="#1E6D39"/>
</linearGradient>
<linearGradient id="paint31_linear" x1="582.433" y1="100.094" x2="609.334" y2="187.731" gradientUnits="userSpaceOnUse">
<stop stop-color="#5DA676"/>
<stop offset="1" stop-color="#1E6D39"/>
</linearGradient>
<linearGradient id="paint32_linear" x1="582.433" y1="100.094" x2="609.334" y2="187.731" gradientUnits="userSpaceOnUse">
<stop stop-color="#5DA676"/>
<stop offset="1" stop-color="#1E6D39"/>
</linearGradient>
<linearGradient id="paint33_linear" x1="582.433" y1="100.094" x2="609.334" y2="187.731" gradientUnits="userSpaceOnUse">
<stop stop-color="#5DA676"/>
<stop offset="1" stop-color="#1E6D39"/>
</linearGradient>
<linearGradient id="paint34_linear" x1="582.433" y1="100.094" x2="609.334" y2="187.731" gradientUnits="userSpaceOnUse">
<stop stop-color="#5DA676"/>
<stop offset="1" stop-color="#1E6D39"/>
</linearGradient>
<linearGradient id="paint35_linear" x1="582.433" y1="100.094" x2="609.334" y2="187.731" gradientUnits="userSpaceOnUse">
<stop stop-color="#5DA676"/>
<stop offset="1" stop-color="#1E6D39"/>
</linearGradient>
<linearGradient id="paint36_linear" x1="582.433" y1="100.094" x2="609.334" y2="187.731" gradientUnits="userSpaceOnUse">
<stop stop-color="#5DA676"/>
<stop offset="1" stop-color="#1E6D39"/>
</linearGradient>
<linearGradient id="paint37_linear" x1="582.433" y1="100.094" x2="609.334" y2="187.731" gradientUnits="userSpaceOnUse">
<stop stop-color="#5DA676"/>
<stop offset="1" stop-color="#1E6D39"/>
</linearGradient>
<linearGradient id="paint38_linear" x1="46.4763" y1="0" x2="46.4763" y2="92.9526" gradientUnits="userSpaceOnUse">
<stop stop-color="#F1F0FF"/>
<stop offset="1" stop-color="white"/>
</linearGradient>
<linearGradient id="paint39_linear" x1="870.126" y1="125.959" x2="798.744" y2="27.4182" gradientUnits="userSpaceOnUse">
<stop stop-color="#5DA676"/>
<stop offset="1" stop-color="#1E6D39"/>
</linearGradient>
<linearGradient id="paint40_linear" x1="870.126" y1="125.959" x2="798.744" y2="27.4182" gradientUnits="userSpaceOnUse">
<stop stop-color="#5DA676"/>
<stop offset="1" stop-color="#1E6D39"/>
</linearGradient>
<linearGradient id="paint41_linear" x1="870.126" y1="125.959" x2="798.744" y2="27.4182" gradientUnits="userSpaceOnUse">
<stop stop-color="#5DA676"/>
<stop offset="1" stop-color="#1E6D39"/>
</linearGradient>
<linearGradient id="paint42_linear" x1="870.126" y1="125.959" x2="798.744" y2="27.4182" gradientUnits="userSpaceOnUse">
<stop stop-color="#5DA676"/>
<stop offset="1" stop-color="#1E6D39"/>
</linearGradient>
<linearGradient id="paint43_linear" x1="870.126" y1="125.959" x2="798.744" y2="27.4182" gradientUnits="userSpaceOnUse">
<stop stop-color="#5DA676"/>
<stop offset="1" stop-color="#1E6D39"/>
</linearGradient>
<linearGradient id="paint44_linear" x1="870.126" y1="125.959" x2="798.744" y2="27.4182" gradientUnits="userSpaceOnUse">
<stop stop-color="#5DA676"/>
<stop offset="1" stop-color="#1E6D39"/>
</linearGradient>
<linearGradient id="paint45_linear" x1="870.126" y1="125.959" x2="798.744" y2="27.4182" gradientUnits="userSpaceOnUse">
<stop stop-color="#5DA676"/>
<stop offset="1" stop-color="#1E6D39"/>
</linearGradient>
<linearGradient id="paint46_linear" x1="870.126" y1="125.959" x2="798.744" y2="27.4182" gradientUnits="userSpaceOnUse">
<stop stop-color="#5DA676"/>
<stop offset="1" stop-color="#1E6D39"/>
</linearGradient>
<linearGradient id="paint47_linear" x1="870.126" y1="125.959" x2="798.744" y2="27.4182" gradientUnits="userSpaceOnUse">
<stop stop-color="#5DA676"/>
<stop offset="1" stop-color="#1E6D39"/>
</linearGradient>
<linearGradient id="paint48_linear" x1="870.126" y1="125.959" x2="798.744" y2="27.4182" gradientUnits="userSpaceOnUse">
<stop stop-color="#5DA676"/>
<stop offset="1" stop-color="#1E6D39"/>
</linearGradient>
<linearGradient id="paint49_linear" x1="870.126" y1="125.959" x2="798.744" y2="27.4182" gradientUnits="userSpaceOnUse">
<stop stop-color="#5DA676"/>
<stop offset="1" stop-color="#1E6D39"/>
</linearGradient>
<linearGradient id="paint50_linear" x1="870.126" y1="125.959" x2="798.744" y2="27.4182" gradientUnits="userSpaceOnUse">
<stop stop-color="#5DA676"/>
<stop offset="1" stop-color="#1E6D39"/>
</linearGradient>
<linearGradient id="paint51_linear" x1="870.126" y1="125.959" x2="798.744" y2="27.4182" gradientUnits="userSpaceOnUse">
<stop stop-color="#5DA676"/>
<stop offset="1" stop-color="#1E6D39"/>
</linearGradient>
<linearGradient id="paint52_linear" x1="821.16" y1="66.763" x2="858.131" y2="190.364" gradientUnits="userSpaceOnUse">
<stop stop-color="#5DA676"/>
<stop offset="1" stop-color="#1E6D39"/>
</linearGradient>
<linearGradient id="paint53_linear" x1="821.16" y1="66.763" x2="858.131" y2="190.364" gradientUnits="userSpaceOnUse">
<stop stop-color="#5DA676"/>
<stop offset="1" stop-color="#1E6D39"/>
</linearGradient>
<linearGradient id="paint54_linear" x1="821.16" y1="66.763" x2="858.131" y2="190.364" gradientUnits="userSpaceOnUse">
<stop stop-color="#5DA676"/>
<stop offset="1" stop-color="#1E6D39"/>
</linearGradient>
<linearGradient id="paint55_linear" x1="821.16" y1="66.763" x2="858.131" y2="190.364" gradientUnits="userSpaceOnUse">
<stop stop-color="#5DA676"/>
<stop offset="1" stop-color="#1E6D39"/>
</linearGradient>
<linearGradient id="paint56_linear" x1="821.16" y1="66.763" x2="858.131" y2="190.364" gradientUnits="userSpaceOnUse">
<stop stop-color="#5DA676"/>
<stop offset="1" stop-color="#1E6D39"/>
</linearGradient>
<linearGradient id="paint57_linear" x1="821.16" y1="66.763" x2="858.131" y2="190.364" gradientUnits="userSpaceOnUse">
<stop stop-color="#5DA676"/>
<stop offset="1" stop-color="#1E6D39"/>
</linearGradient>
<linearGradient id="paint58_linear" x1="821.16" y1="66.763" x2="858.131" y2="190.364" gradientUnits="userSpaceOnUse">
<stop stop-color="#5DA676"/>
<stop offset="1" stop-color="#1E6D39"/>
</linearGradient>
<linearGradient id="paint59_linear" x1="821.16" y1="66.763" x2="858.131" y2="190.364" gradientUnits="userSpaceOnUse">
<stop stop-color="#5DA676"/>
<stop offset="1" stop-color="#1E6D39"/>
</linearGradient>
<linearGradient id="paint60_linear" x1="821.16" y1="66.763" x2="858.131" y2="190.364" gradientUnits="userSpaceOnUse">
<stop stop-color="#5DA676"/>
<stop offset="1" stop-color="#1E6D39"/>
</linearGradient>
<linearGradient id="paint61_linear" x1="821.16" y1="66.763" x2="858.131" y2="190.364" gradientUnits="userSpaceOnUse">
<stop stop-color="#5DA676"/>
<stop offset="1" stop-color="#1E6D39"/>
</linearGradient>
<linearGradient id="paint62_linear" x1="821.16" y1="66.763" x2="858.131" y2="190.364" gradientUnits="userSpaceOnUse">
<stop stop-color="#5DA676"/>
<stop offset="1" stop-color="#1E6D39"/>
</linearGradient>
<linearGradient id="paint63_linear" x1="821.16" y1="66.763" x2="858.131" y2="190.364" gradientUnits="userSpaceOnUse">
<stop stop-color="#5DA676"/>
<stop offset="1" stop-color="#1E6D39"/>
</linearGradient>
<linearGradient id="paint64_linear" x1="821.16" y1="66.763" x2="858.131" y2="190.364" gradientUnits="userSpaceOnUse">
<stop stop-color="#5DA676"/>
<stop offset="1" stop-color="#1E6D39"/>
</linearGradient>
<linearGradient id="paint65_linear" x1="821.16" y1="66.763" x2="858.131" y2="190.364" gradientUnits="userSpaceOnUse">
<stop stop-color="#5DA676"/>
<stop offset="1" stop-color="#1E6D39"/>
</linearGradient>
<linearGradient id="paint66_linear" x1="821.16" y1="66.763" x2="858.131" y2="190.364" gradientUnits="userSpaceOnUse">
<stop stop-color="#5DA676"/>
<stop offset="1" stop-color="#1E6D39"/>
</linearGradient>
<linearGradient id="paint67_linear" x1="821.16" y1="66.763" x2="858.131" y2="190.364" gradientUnits="userSpaceOnUse">
<stop stop-color="#5DA676"/>
<stop offset="1" stop-color="#1E6D39"/>
</linearGradient>
<linearGradient id="paint68_linear" x1="821.16" y1="66.763" x2="858.131" y2="190.364" gradientUnits="userSpaceOnUse">
<stop stop-color="#5DA676"/>
<stop offset="1" stop-color="#1E6D39"/>
</linearGradient>
<linearGradient id="paint69_linear" x1="821.16" y1="66.763" x2="858.131" y2="190.364" gradientUnits="userSpaceOnUse">
<stop stop-color="#5DA676"/>
<stop offset="1" stop-color="#1E6D39"/>
</linearGradient>
<linearGradient id="paint70_linear" x1="46.4763" y1="0" x2="46.4763" y2="92.9526" gradientUnits="userSpaceOnUse">
<stop stop-color="#F1F0FF"/>
<stop offset="1" stop-color="white"/>
</linearGradient>
<linearGradient id="paint71_linear" x1="937.456" y1="108.489" x2="1050.35" y2="183.484" gradientUnits="userSpaceOnUse">
<stop stop-color="#AC6C62"/>
<stop offset="1" stop-color="#6D311E"/>
</linearGradient>
<linearGradient id="paint72_linear" x1="937.456" y1="108.489" x2="1050.35" y2="183.484" gradientUnits="userSpaceOnUse">
<stop stop-color="#AC6C62"/>
<stop offset="1" stop-color="#6D311E"/>
</linearGradient>
<linearGradient id="paint73_linear" x1="937.456" y1="108.489" x2="1050.35" y2="183.484" gradientUnits="userSpaceOnUse">
<stop stop-color="#AC6C62"/>
<stop offset="1" stop-color="#6D311E"/>
</linearGradient>
<linearGradient id="paint74_linear" x1="937.456" y1="108.489" x2="1050.35" y2="183.484" gradientUnits="userSpaceOnUse">
<stop stop-color="#AC6C62"/>
<stop offset="1" stop-color="#6D311E"/>
</linearGradient>
<linearGradient id="paint75_linear" x1="937.456" y1="108.489" x2="1050.35" y2="183.484" gradientUnits="userSpaceOnUse">
<stop stop-color="#AC6C62"/>
<stop offset="1" stop-color="#6D311E"/>
</linearGradient>
<linearGradient id="paint76_linear" x1="937.456" y1="108.489" x2="1050.35" y2="183.484" gradientUnits="userSpaceOnUse">
<stop stop-color="#AC6C62"/>
<stop offset="1" stop-color="#6D311E"/>
</linearGradient>
<linearGradient id="paint77_linear" x1="937.456" y1="108.489" x2="1050.35" y2="183.484" gradientUnits="userSpaceOnUse">
<stop stop-color="#AC6C62"/>
<stop offset="1" stop-color="#6D311E"/>
</linearGradient>
<linearGradient id="paint78_linear" x1="937.456" y1="108.489" x2="1050.35" y2="183.484" gradientUnits="userSpaceOnUse">
<stop stop-color="#AC6C62"/>
<stop offset="1" stop-color="#6D311E"/>
</linearGradient>
<linearGradient id="paint79_linear" x1="937.456" y1="108.489" x2="1050.35" y2="183.484" gradientUnits="userSpaceOnUse">
<stop stop-color="#AC6C62"/>
<stop offset="1" stop-color="#6D311E"/>
</linearGradient>
<linearGradient id="paint80_linear" x1="937.456" y1="108.489" x2="1050.35" y2="183.484" gradientUnits="userSpaceOnUse">
<stop stop-color="#AC6C62"/>
<stop offset="1" stop-color="#6D311E"/>
</linearGradient>
<linearGradient id="paint81_linear" x1="937.456" y1="108.489" x2="1050.35" y2="183.484" gradientUnits="userSpaceOnUse">
<stop stop-color="#AC6C62"/>
<stop offset="1" stop-color="#6D311E"/>
</linearGradient>
<linearGradient id="paint82_linear" x1="937.456" y1="108.489" x2="1050.35" y2="183.484" gradientUnits="userSpaceOnUse">
<stop stop-color="#AC6C62"/>
<stop offset="1" stop-color="#6D311E"/>
</linearGradient>
<linearGradient id="paint83_linear" x1="937.456" y1="108.489" x2="1050.35" y2="183.484" gradientUnits="userSpaceOnUse">
<stop stop-color="#AC6C62"/>
<stop offset="1" stop-color="#6D311E"/>
</linearGradient>
<linearGradient id="paint84_linear" x1="937.456" y1="108.489" x2="1050.35" y2="183.484" gradientUnits="userSpaceOnUse">
<stop stop-color="#AC6C62"/>
<stop offset="1" stop-color="#6D311E"/>
</linearGradient>
<linearGradient id="paint85_linear" x1="937.456" y1="108.489" x2="1050.35" y2="183.484" gradientUnits="userSpaceOnUse">
<stop stop-color="#AC6C62"/>
<stop offset="1" stop-color="#6D311E"/>
</linearGradient>
<linearGradient id="paint86_linear" x1="937.456" y1="108.489" x2="1050.35" y2="183.484" gradientUnits="userSpaceOnUse">
<stop stop-color="#AC6C62"/>
<stop offset="1" stop-color="#6D311E"/>
</linearGradient>
<linearGradient id="paint87_linear" x1="937.456" y1="108.489" x2="1050.35" y2="183.484" gradientUnits="userSpaceOnUse">
<stop stop-color="#AC6C62"/>
<stop offset="1" stop-color="#6D311E"/>
</linearGradient>
<linearGradient id="paint88_linear" x1="937.456" y1="108.489" x2="1050.35" y2="183.484" gradientUnits="userSpaceOnUse">
<stop stop-color="#AC6C62"/>
<stop offset="1" stop-color="#6D311E"/>
</linearGradient>
<linearGradient id="paint89_linear" x1="1053.8" y1="50.8433" x2="1101.78" y2="185.065" gradientUnits="userSpaceOnUse">
<stop stop-color="#AC7169"/>
<stop offset="1" stop-color="#AE7056"/>
</linearGradient>
<linearGradient id="paint90_linear" x1="1053.8" y1="50.8433" x2="1101.78" y2="185.065" gradientUnits="userSpaceOnUse">
<stop stop-color="#AC7169"/>
<stop offset="1" stop-color="#AE7056"/>
</linearGradient>
<linearGradient id="paint91_linear" x1="1053.8" y1="50.8433" x2="1101.78" y2="185.065" gradientUnits="userSpaceOnUse">
<stop stop-color="#AC7169"/>
<stop offset="1" stop-color="#AE7056"/>
</linearGradient>
<linearGradient id="paint92_linear" x1="1053.8" y1="50.8433" x2="1101.78" y2="185.065" gradientUnits="userSpaceOnUse">
<stop stop-color="#AC7169"/>
<stop offset="1" stop-color="#AE7056"/>
</linearGradient>
<linearGradient id="paint93_linear" x1="1053.8" y1="50.8433" x2="1101.78" y2="185.065" gradientUnits="userSpaceOnUse">
<stop stop-color="#AC7169"/>
<stop offset="1" stop-color="#AE7056"/>
</linearGradient>
<linearGradient id="paint94_linear" x1="1053.8" y1="50.8433" x2="1101.78" y2="185.065" gradientUnits="userSpaceOnUse">
<stop stop-color="#AC7169"/>
<stop offset="1" stop-color="#AE7056"/>
</linearGradient>
<linearGradient id="paint95_linear" x1="1053.8" y1="50.8433" x2="1101.78" y2="185.065" gradientUnits="userSpaceOnUse">
<stop stop-color="#AC7169"/>
<stop offset="1" stop-color="#AE7056"/>
</linearGradient>
<linearGradient id="paint96_linear" x1="1053.8" y1="50.8433" x2="1101.78" y2="185.065" gradientUnits="userSpaceOnUse">
<stop stop-color="#AC7169"/>
<stop offset="1" stop-color="#AE7056"/>
</linearGradient>
<linearGradient id="paint97_linear" x1="1053.8" y1="50.8433" x2="1101.78" y2="185.065" gradientUnits="userSpaceOnUse">
<stop stop-color="#AC7169"/>
<stop offset="1" stop-color="#AE7056"/>
</linearGradient>
<linearGradient id="paint98_linear" x1="1053.8" y1="50.8433" x2="1101.78" y2="185.065" gradientUnits="userSpaceOnUse">
<stop stop-color="#AC7169"/>
<stop offset="1" stop-color="#AE7056"/>
</linearGradient>
<linearGradient id="paint99_linear" x1="1053.8" y1="50.8433" x2="1101.78" y2="185.065" gradientUnits="userSpaceOnUse">
<stop stop-color="#AC7169"/>
<stop offset="1" stop-color="#AE7056"/>
</linearGradient>
<linearGradient id="paint100_linear" x1="1053.8" y1="50.8433" x2="1101.78" y2="185.065" gradientUnits="userSpaceOnUse">
<stop stop-color="#AC7169"/>
<stop offset="1" stop-color="#AE7056"/>
</linearGradient>
<linearGradient id="paint101_linear" x1="1053.8" y1="50.8433" x2="1101.78" y2="185.065" gradientUnits="userSpaceOnUse">
<stop stop-color="#AC7169"/>
<stop offset="1" stop-color="#AE7056"/>
</linearGradient>
<linearGradient id="paint102_linear" x1="1053.8" y1="50.8433" x2="1101.78" y2="185.065" gradientUnits="userSpaceOnUse">
<stop stop-color="#AC7169"/>
<stop offset="1" stop-color="#AE7056"/>
</linearGradient>
<linearGradient id="paint103_linear" x1="1053.8" y1="50.8433" x2="1101.78" y2="185.065" gradientUnits="userSpaceOnUse">
<stop stop-color="#AC7169"/>
<stop offset="1" stop-color="#AE7056"/>
</linearGradient>
<linearGradient id="paint104_linear" x1="1053.8" y1="50.8433" x2="1101.78" y2="185.065" gradientUnits="userSpaceOnUse">
<stop stop-color="#AC7169"/>
<stop offset="1" stop-color="#AE7056"/>
</linearGradient>
<linearGradient id="paint105_linear" x1="1053.8" y1="50.8433" x2="1101.78" y2="185.065" gradientUnits="userSpaceOnUse">
<stop stop-color="#AC7169"/>
<stop offset="1" stop-color="#AE7056"/>
</linearGradient>
</defs>
</svg>
